<svg width="55" height="49" viewBox="0 0 55 49" fill="none" xmlns="http://www.w3.org/2000/svg">
<g clip-path="url(#clip0_118_283)">
<path d="M15.696 44.1391C14.5829 44.1391 13.5483 43.521 13.1424 42.4838C12.2434 40.1955 11.7831 37.7584 11.7857 35.2998C11.7857 30.7165 13.3545 26.505 15.9814 23.1631C16.3769 22.6603 16.9583 22.3538 17.5529 22.1234C18.7917 21.6441 19.8838 20.7772 20.7271 19.7034C22.7603 17.1096 25.3124 14.9687 28.2202 13.4177C30.1138 12.4119 31.7559 10.9139 32.5495 8.926C33.1069 7.53333 33.3931 6.04702 33.3928 4.54696V2.8891C33.3928 2.36814 33.5998 1.86852 33.9682 1.50014C34.3365 1.13177 34.8362 0.92482 35.3571 0.92482C36.92 0.92482 38.4189 1.54567 39.524 2.6508C40.6291 3.75592 41.25 5.25479 41.25 6.81767C41.25 9.83481 40.569 12.6922 39.3564 15.2458C38.6597 16.7072 39.6367 18.6034 41.2552 18.6034H49.4424C52.1295 18.6034 54.5364 20.421 54.8219 23.095C54.9397 24.2003 55 25.3212 55 26.4605C55.0108 33.6271 52.5618 40.5804 48.0621 46.1583C47.0459 47.4207 45.4771 48.0676 43.8586 48.0676H33.3405C32.0755 48.0676 30.8157 47.8633 29.6136 47.4652L21.4579 44.7414C20.256 44.3417 18.9976 44.1383 17.731 44.1391H15.696ZM2.17645 23.7812C0.73315 27.4497 -0.00523333 31.3576 2.7919e-05 35.2998C-0.00327982 38.412 0.455696 41.5074 1.36193 44.4848C2.04288 46.711 4.20098 48.0676 6.52931 48.0676H8.90478C10.0703 48.0676 10.7905 46.7633 10.2745 45.7157C8.67729 42.4762 7.84914 38.9117 7.85454 35.2998C7.85454 30.8265 9.10121 26.6438 11.2645 23.0793C11.9062 22.0238 11.1912 20.5677 9.95502 20.5677H7.2024C5.02336 20.5677 2.97788 21.7541 2.17645 23.7812Z" fill="#4AD0CE"/>
</g>
<defs>
<clipPath id="clip0_118_283">
<rect width="55" height="47.1428" fill="white" transform="translate(0 0.92482)"/>
</clipPath>
</defs>
</svg>
