<svg width="426" height="371" viewBox="0 0 426 371" fill="none" xmlns="http://www.w3.org/2000/svg">
<g clip-path="url(#clip0_120_335)">
<path d="M297.564 365.486L291.131 365.485L288.07 340.67L297.565 340.671L297.564 365.486Z" fill="#FFB6B6"/>
<path d="M275.523 365.34C275.322 365.677 275.217 366.766 275.217 367.158C275.217 368.364 276.194 369.342 277.4 369.342H297.324C298.146 369.342 298.813 368.675 298.813 367.852V367.023C298.813 367.023 299.799 364.53 297.77 361.457C297.77 361.457 295.248 363.863 291.479 360.095L290.368 358.082L282.324 363.965L277.865 364.513C276.89 364.634 276.025 364.495 275.523 365.34Z" fill="#2F2E41"/>
<path d="M365.478 357.438L359.599 360.051L346.722 338.62L355.398 334.763L365.478 357.438Z" fill="#FFB6B6"/>
<path d="M345.278 366.259C345.232 366.649 345.577 367.687 345.737 368.045C346.227 369.147 347.517 369.643 348.619 369.153L366.824 361.059C367.576 360.725 367.915 359.845 367.58 359.093L367.243 358.335C367.243 358.335 367.131 355.657 364.029 353.673C364.029 353.673 362.702 356.896 357.727 354.984L355.894 353.596L350.933 362.239L347.082 364.552C346.24 365.058 345.393 365.283 345.278 366.259Z" fill="#2F2E41"/>
<path d="M283.583 210.215L277.863 222.226L287.587 346.92H299.747L304.746 265.126L348.389 346.92H363.305L340.782 288.577L325.338 212.503L283.583 210.215Z" fill="#2F2E41"/>
<path d="M314.209 133.182H299.126L293.595 141.862L281.118 147.829L283.83 185.26L282.469 212.553L284.334 212.498C297.645 212.11 310.95 214.275 323.302 219.249C326.472 220.525 329.794 221.237 332.654 220.522C332.654 220.522 331.569 216.182 330.484 215.097C329.399 214.012 328.856 213.115 329.399 212.479C329.941 211.842 331.026 211.3 329.941 210.215C328.856 209.13 328.856 207.763 328.856 207.763L325.601 183.633L332.111 149.457L318.549 141.862L314.209 133.182Z" fill="#6A33EB"/>
<path d="M340.127 180.504L339.716 212.516L331.751 241.054L325.383 238.678L328.21 212.521L327.839 177.123L340.127 180.504Z" fill="#FFB6B6"/>
<path d="M331.724 245.655C332.471 241.552 331.101 237.866 328.665 237.422C326.229 236.978 323.648 239.945 322.901 244.049C322.154 248.152 323.523 251.838 325.959 252.282C328.396 252.726 330.977 249.759 331.724 245.655Z" fill="#FFB6B6"/>
<path d="M328.856 147.829C328.856 147.829 337.844 149.222 337.961 156.934C338.079 164.646 346.758 177.123 341.334 186.888L327.229 189.058L319.634 161.391L328.314 146.744" fill="#6A33EB"/>
<path d="M287.835 174.866L269.924 201.402L247.606 220.889L243.586 215.409L260.303 195.093L279.416 165.297L287.835 174.866Z" fill="#FFB6B6"/>
<path d="M245.058 224.721C247.934 221.7 248.812 217.867 247.019 216.159C245.225 214.451 241.44 215.516 238.564 218.536C235.687 221.557 234.809 225.39 236.603 227.097C238.396 228.805 242.182 227.741 245.058 224.721Z" fill="#FFB6B6"/>
<path d="M296.342 141.365C296.342 141.365 303.091 147.461 298.957 153.973C294.823 160.485 295.233 175.678 285.339 180.865L272.357 174.939C273.451 164.241 274.089 153.149 281.19 147.643L296.484 140.161" fill="#6A33EB"/>
<path d="M304.327 130.946C311.781 130.946 317.823 124.904 317.823 117.451C317.823 109.997 311.781 103.955 304.327 103.955C296.874 103.955 290.832 109.997 290.832 117.451C290.832 124.904 296.874 130.946 304.327 130.946Z" fill="#FFB6B6"/>
<path d="M314.239 128.539C314.982 128.666 315.855 126.864 316.689 125.109C318.435 121.436 319.545 119.1 319.629 115.799C319.701 112.986 318.919 113.724 318.159 107.469C317.908 105.406 314.384 105.41 313.666 104.431C312.455 102.776 314.314 102.093 311.299 101.099C305.652 99.2374 303.099 102.13 299.513 102.379C299.422 102.385 297.644 104.124 296.651 104.214C294.912 104.371 292.402 104.1 291.277 101.45C290.225 98.9718 289.528 106.213 290.469 107.11C291.267 107.871 292.644 109.78 292.679 109.919C292.719 110.077 289.405 106.405 288.852 107.918C288.453 109.007 289.707 114.609 290.719 114.819C291.566 114.995 293.636 112.205 293.169 113.349C292.086 116.004 298.6 117.697 306.399 112.369C306.676 112.18 306.414 112.482 307.379 114.819C308.596 117.768 308.87 117.927 308.849 118.739C308.803 120.497 307.483 121.015 307.869 122.169C308.182 123.104 309.403 123.828 310.319 123.639C311.353 123.426 311.531 122.147 312.279 122.169C312.92 122.189 313.681 123.155 313.749 124.129C313.892 126.183 310.852 126.748 310.319 129.519C310.018 131.084 313.556 128.423 314.239 128.539Z" fill="#2F2E41"/>
<path d="M207.403 369.957H91.4395C74.0464 369.957 59.896 355.806 59.896 338.413V31.8589C59.896 14.4659 74.0464 0.31543 91.4395 0.31543H207.403C224.796 0.31543 238.946 14.4659 238.946 31.8589C241.105 154.962 244.786 292.817 238.946 338.413C238.946 355.806 224.796 369.957 207.403 369.957Z" fill="#3F3D56"/>
<path d="M240.563 113.076C239.827 113.076 239.229 113.674 239.229 114.41V157.113C239.229 157.849 239.827 158.447 240.563 158.447C241.299 158.447 241.898 157.849 241.898 157.113V114.41C241.898 113.674 241.299 113.076 240.563 113.076Z" fill="#3F3D56"/>
<path d="M235.944 31.8592V338.408C235.944 353.547 224.161 365.931 209.262 366.891H209.255C209.035 366.905 208.815 366.918 208.588 366.925C208.194 366.945 207.801 366.951 207.4 366.951C207.4 366.951 205.932 366.845 203.25 366.645C200.541 366.444 196.598 366.144 191.681 365.75C190.206 365.637 188.651 365.51 187.01 365.377C183.741 365.11 180.151 364.816 176.301 364.483C174.766 364.356 173.179 364.216 171.557 364.076C163.27 363.362 153.989 362.528 144.201 361.58C142.546 361.427 140.878 361.267 139.197 361.1C138.757 361.053 62.8989 341.984 62.8989 338.408V31.8592C62.8989 16.0927 75.6762 3.31543 91.4427 3.31543H108.484C111.206 3.31543 113.394 5.43719 113.628 8.15279C113.648 8.33296 113.668 8.51307 113.701 8.69324C114.195 11.4222 116.697 13.3238 119.473 13.3238H179.37C182.146 13.3238 184.648 11.4222 185.142 8.69324C185.175 8.51307 185.195 8.33296 185.215 8.15279C185.449 5.43719 187.637 3.31543 190.359 3.31543H207.4C223.167 3.31543 235.944 16.0927 235.944 31.8592Z" fill="white"/>
<path d="M59.229 81.0493C58.493 81.0493 57.8945 81.6478 57.8945 82.3838V93.0593C57.8945 93.7953 58.493 94.3938 59.229 94.3938C59.9649 94.3938 60.5634 93.7953 60.5634 93.0593V82.3838C60.5634 81.6478 59.9649 81.0493 59.229 81.0493Z" fill="#3F3D56"/>
<path d="M59.229 113.076C58.493 113.076 57.8945 113.674 57.8945 114.41V135.094C57.8945 135.83 58.493 136.429 59.229 136.429C59.9649 136.429 60.5634 135.83 60.5634 135.094V114.41C60.5634 113.674 59.9649 113.076 59.229 113.076Z" fill="#3F3D56"/>
<path d="M59.229 142.434C58.493 142.434 57.8945 143.032 57.8945 143.768V164.452C57.8945 165.188 58.493 165.787 59.229 165.787C59.9649 165.787 60.5634 165.188 60.5634 164.452V143.768C60.5634 143.032 59.9649 142.434 59.229 142.434Z" fill="#3F3D56"/>
<path d="M108.019 7.98853H82.4989C82.3603 7.98853 82.248 8.10082 82.248 8.23934V11.0738C82.248 11.2123 82.3603 11.3246 82.4989 11.3246H108.019C108.157 11.3246 108.27 11.2123 108.27 11.0738V8.23934C108.27 8.10082 108.157 7.98853 108.019 7.98853Z" fill="#E6E6E6"/>
<path d="M194.576 11.3248C196.05 11.3248 197.245 10.1299 197.245 8.65595C197.245 7.18196 196.05 5.98706 194.576 5.98706C193.102 5.98706 191.907 7.18196 191.907 8.65595C191.907 10.1299 193.102 11.3248 194.576 11.3248Z" fill="#E6E6E6"/>
<path d="M201.915 11.3248C203.389 11.3248 204.584 10.1299 204.584 8.65595C204.584 7.18196 203.389 5.98706 201.915 5.98706C200.441 5.98706 199.247 7.18196 199.247 8.65595C199.247 10.1299 200.441 11.3248 201.915 11.3248Z" fill="#E6E6E6"/>
<path d="M209.255 11.3248C210.729 11.3248 211.924 10.1299 211.924 8.65595C211.924 7.18196 210.729 5.98706 209.255 5.98706C207.781 5.98706 206.586 7.18196 206.586 8.65595C206.586 10.1299 207.781 11.3248 209.255 11.3248Z" fill="#E6E6E6"/>
<path d="M210.104 245.887C210.104 215.466 184.392 198.731 155.021 190.804C117.366 180.642 89.7872 201.206 99.9388 245.887C106.679 275.552 140.89 319.824 155.021 292.884C171.192 262.058 210.104 276.308 210.104 245.887Z" fill="#F2F2F2"/>
<path d="M0.894043 370.038C0.894043 370.571 1.32259 371 1.85624 371H424.144C424.678 371 425.106 370.571 425.106 370.038C425.106 369.504 424.678 369.076 424.144 369.076H1.85624C1.32259 369.076 0.894043 369.504 0.894043 370.038Z" fill="#CCCCCC"/>
<path d="M136.09 240.457L129.436 237.305C132.165 241.113 134.517 247.062 135.776 251.795C137.907 247.386 141.344 241.991 144.745 238.768L137.712 240.578C142.046 219.339 158.345 204.092 177.011 204.092L177.275 203.325C157.779 203.325 140.514 218.361 136.09 240.457Z" fill="#3F3D56"/>
<path d="M166.716 272.817H124.673C122.889 272.817 121.438 271.366 121.438 269.583C121.438 267.8 122.889 266.349 124.673 266.349H166.716C168.5 266.349 169.95 267.8 169.95 269.583C169.95 271.366 168.5 272.817 166.716 272.817Z" fill="#4360F6"/>
<path d="M206.018 105.203V190.907C206.018 198.486 199.852 204.652 192.273 204.652H106.569C98.9896 204.652 92.8237 198.486 92.8237 190.907V105.203C92.8237 97.6234 98.9896 91.4575 106.569 91.4575H192.273C199.852 91.4575 206.018 97.6234 206.018 105.203ZM192.273 203.035C198.971 203.035 204.401 197.605 204.401 190.907V147.698C204.401 117.53 179.945 93.0746 149.777 93.0746H106.569C99.8707 93.0746 94.4408 98.5045 94.4408 105.203V190.907C94.4408 197.605 99.8707 203.035 106.569 203.035H192.273Z" fill="#3F3D56"/>
<path d="M160.83 126.461H133.161C132.464 126.461 131.896 125.893 131.896 125.196C131.896 124.498 132.464 123.931 133.161 123.931H160.83C161.527 123.931 162.094 124.498 162.094 125.196C162.094 125.893 161.527 126.461 160.83 126.461Z" fill="#4AD0CE"/>
<path d="M160.83 153.436H133.161C132.464 153.436 131.896 152.868 131.896 152.171C131.896 151.473 132.464 150.906 133.161 150.906H160.83C161.527 150.906 162.094 151.473 162.094 152.171C162.094 152.868 161.527 153.436 160.83 153.436Z" fill="#3F3D56"/>
<path d="M147.084 190.628H119.416C118.718 190.628 118.151 190.061 118.151 189.363C118.151 188.666 118.718 188.098 119.416 188.098H147.084C147.782 188.098 148.349 188.666 148.349 189.363C148.349 190.061 147.782 190.628 147.084 190.628Z" fill="#3F3D56"/>
<path d="M175.677 139.957H118.314C117.616 139.957 117.049 139.389 117.049 138.692C117.049 137.994 117.616 137.427 118.314 137.427H175.677C176.374 137.427 176.942 137.994 176.942 138.692C176.942 139.389 176.374 139.957 175.677 139.957Z" fill="#3F3D56"/>
</g>
<defs>
<clipPath id="clip0_120_335">
<rect width="424.212" height="370.685" fill="white" transform="translate(0.894043 0.31543)"/>
</clipPath>
</defs>
</svg>
