<svg width="894" height="528" viewBox="0 0 894 528" fill="none" xmlns="http://www.w3.org/2000/svg">
<g clip-path="url(#clip0_120_327)">
<path d="M279.256 311.205V28.7953C279.256 13.925 291.355 1.82727 306.225 1.82727H866.188C881.059 1.82727 893.157 13.925 893.157 28.7953V311.205C893.157 326.075 881.059 338.174 866.188 338.174H306.225C291.355 338.174 279.256 326.075 279.256 311.205ZM890.423 28.7953C890.423 15.4115 879.573 4.5618 866.189 4.5618H306.225C292.841 4.5618 281.991 15.4118 281.991 28.796V311.205C281.991 324.589 292.841 335.439 306.225 335.439H687.104C799.394 335.439 890.423 244.41 890.423 132.121L890.423 28.7953Z" fill="#E6E6E6"/>
<path d="M476.534 53.1965H162.701C153.396 53.1965 145.829 60.7634 145.829 70.069V185.356C145.829 194.661 153.396 202.228 162.701 202.228H476.534C485.839 202.228 493.406 194.661 493.406 185.356V70.069C493.406 60.7634 485.839 53.1965 476.534 53.1965Z" fill="white"/>
<path d="M476.534 53.1965H162.701C153.396 53.1965 145.829 60.7634 145.829 70.069V185.356C145.829 194.661 153.396 202.228 162.701 202.228H476.534C485.839 202.228 493.406 194.661 493.406 185.356V70.069C493.406 60.7634 485.839 53.1965 476.534 53.1965ZM491.632 185.356C491.632 193.685 484.864 200.454 476.534 200.454H162.701C154.371 200.454 147.603 193.685 147.603 185.356V70.069C147.603 61.7392 154.371 54.9707 162.701 54.9707H476.534C484.864 54.9707 491.632 61.7392 491.632 70.069V185.356Z" fill="#3F3D56"/>
<path d="M177.396 105.739H456.317C458.96 105.739 461.102 107.882 461.102 110.525C461.102 113.168 458.96 115.31 456.317 115.31H177.396C174.753 115.31 172.61 113.168 172.61 110.525C172.61 107.882 174.753 105.739 177.396 105.739Z" fill="#4360F6"/>
<path d="M177.396 137.186H278.573C281.216 137.186 283.358 139.329 283.358 141.972C283.358 144.615 281.216 146.757 278.573 146.757H177.396C174.753 146.757 172.61 144.615 172.61 141.972C172.61 139.329 174.753 137.186 177.396 137.186Z" fill="#4360F6"/>
<path d="M786.446 91.1193H595.03C592.014 91.1193 589.561 88.6658 589.561 85.6502C589.561 82.6346 592.014 80.1812 595.03 80.1812H786.446C789.462 80.1812 791.915 82.6346 791.915 85.6502C791.915 88.6658 789.462 91.1193 786.446 91.1193Z" fill="#E6E6E6"/>
<path d="M786.446 160.85H595.03C592.014 160.85 589.561 158.396 589.561 155.381C589.561 152.365 592.014 149.912 595.03 149.912H786.446C789.462 149.912 791.915 152.365 791.915 155.381C791.915 158.396 789.462 160.85 786.446 160.85Z" fill="#E6E6E6"/>
<path d="M786.446 124.881H595.03C592.014 124.881 589.561 122.427 589.561 119.412C589.561 116.396 592.014 113.943 595.03 113.943H786.446C789.462 113.943 791.915 116.396 791.915 119.412C791.915 122.427 789.462 124.881 786.446 124.881Z" fill="#E6E6E6"/>
<path d="M455.995 224.393L444.742 219.063C449.357 225.504 453.334 235.563 455.463 243.568C459.068 236.111 464.879 226.988 470.631 221.538L458.739 224.598C466.067 188.683 493.63 162.899 525.194 162.899V160.165C492.225 160.165 463.477 187.028 455.995 224.393Z" fill="#4360F6"/>
<path d="M507.786 279.116H436.688C433.672 279.116 431.219 276.663 431.219 273.647C431.219 270.632 433.672 268.178 436.688 268.178H507.786C510.801 268.178 513.255 270.632 513.255 273.647C513.255 276.663 510.801 279.116 507.786 279.116Z" fill="#6A33EB"/>
<path d="M325.743 160.43C336.315 160.43 344.885 151.86 344.885 141.288C344.885 130.716 336.315 122.146 325.743 122.146C315.171 122.146 306.601 130.716 306.601 141.288C306.601 151.86 315.171 160.43 325.743 160.43Z" fill="#6A33EB"/>
<path d="M335.699 130.08C334.787 129.546 333.394 129.823 332.893 130.815C330.618 135.323 328.343 139.83 326.068 144.337C324.232 141.462 321.884 138.952 319.16 136.847C318.283 136.17 316.863 136.714 316.354 137.583C315.735 138.643 316.211 139.71 317.09 140.389C320.266 142.843 322.716 146.141 324.365 149.781C324.992 151.164 327.252 151.077 327.907 149.781C330.749 144.149 333.592 138.517 336.435 132.886C336.934 131.897 336.696 130.663 335.699 130.08Z" fill="white"/>
<path d="M555.443 104.372C566.015 104.372 574.585 95.8019 574.585 85.2303C574.585 74.6586 566.015 66.0886 555.443 66.0886C544.872 66.0886 536.302 74.6586 536.302 85.2303C536.302 95.8019 544.872 104.372 555.443 104.372Z" fill="#4AD0CE"/>
<path d="M565.4 74.0216C564.488 73.4881 563.095 73.7647 562.594 74.7574C560.318 79.2647 558.043 83.7719 555.768 88.2793C553.933 85.4041 551.585 82.8935 548.861 80.7893C547.983 80.1116 546.563 80.6558 546.055 81.525C545.435 82.5845 545.911 83.6517 546.791 84.3311C549.967 86.7848 552.416 90.0828 554.065 93.7226C554.692 95.1063 556.953 95.0189 557.607 93.7226C560.45 88.0909 563.293 82.4593 566.135 76.8277C566.634 75.8393 566.397 74.6047 565.4 74.0216Z" fill="white"/>
<path d="M830.263 135.819C840.835 135.819 849.405 127.249 849.405 116.677C849.405 106.106 840.835 97.5356 830.263 97.5356C819.691 97.5356 811.121 106.106 811.121 116.677C811.121 127.249 819.691 135.819 830.263 135.819Z" fill="#6A33EB"/>
<path d="M840.219 105.469C839.307 104.935 837.914 105.212 837.413 106.204C835.138 110.712 832.863 115.219 830.588 119.726C828.752 116.851 826.404 114.341 823.68 112.236C822.803 111.559 821.383 112.103 820.874 112.972C820.255 114.032 820.731 115.099 821.61 115.778C824.786 118.232 827.236 121.53 828.885 125.17C829.512 126.553 831.772 126.466 832.427 125.17C835.269 119.538 838.112 113.906 840.955 108.275C841.454 107.286 841.216 106.052 840.219 105.469Z" fill="white"/>
<path d="M401.238 236.423H355.132C352.269 236.423 349.941 234.094 349.941 231.231C343.845 213.414 343.965 195.955 349.941 178.834C349.941 175.971 352.269 173.642 355.132 173.642H401.238C404.101 173.642 406.429 175.971 406.429 178.834V231.231C406.429 234.094 404.101 236.423 401.238 236.423Z" fill="#E6E6E6"/>
<path d="M365.011 175.189C357.542 175.189 351.488 181.244 351.488 188.712V230.12C351.488 232.747 353.617 234.876 356.244 234.876H381.741C394.522 234.876 404.883 224.515 404.883 211.734V179.946C404.883 177.319 402.753 175.189 400.127 175.189H365.011Z" fill="white"/>
<path d="M388.922 190.416H367.336C366.792 190.416 366.349 189.973 366.349 189.429C366.349 188.885 366.792 188.442 367.336 188.442H388.922C389.467 188.442 389.909 188.885 389.909 189.429C389.909 189.973 389.467 190.416 388.922 190.416Z" fill="#E6E6E6"/>
<path d="M388.922 211.462H367.336C366.792 211.462 366.349 211.019 366.349 210.475C366.349 209.931 366.792 209.488 367.336 209.488H388.922C389.467 209.488 389.909 209.931 389.909 210.475C389.909 211.019 389.467 211.462 388.922 211.462Z" fill="#E6E6E6"/>
<path d="M400.506 200.946H355.753C355.209 200.946 354.766 200.503 354.766 199.959C354.766 199.415 355.209 198.972 355.753 198.972H400.506C401.05 198.972 401.493 199.415 401.493 199.959C401.493 200.503 401.05 200.946 400.506 200.946Z" fill="#E6E6E6"/>
<path d="M401.034 220.019H382.36C381.816 220.019 381.373 219.576 381.373 219.032C381.373 218.488 381.816 218.045 382.36 218.045H401.034C401.578 218.045 402.02 218.488 402.02 219.032C402.02 219.576 401.578 220.019 401.034 220.019Z" fill="#E6E6E6"/>
<path d="M83.5852 93.0708C84.7996 87.47 85.1564 91.5959 87.7979 86.5157C85.9848 93.0804 89.3305 90.9308 93.7748 96.0783C125.007 100.975 126.975 90.2784 138.534 90.6063L138.593 90.6058C141.136 90.5646 142.443 87.5192 140.909 85.4896C137.124 80.478 132.95 72.7451 136.9 67.8768C143.897 59.2521 137.731 41.5658 134.715 45.3895C134.715 30.6408 116.552 20.9688 109.506 23.3651C96.4877 27.793 84.4315 33.7651 82.9713 47.1277C82.7433 49.2142 82.4484 51.2886 82.0736 53.3538C81.3124 57.5478 78.1771 58.6615 79.2561 62.7804L82.6301 66.2125C84.2136 72.2569 83.7133 78.6026 81.5442 84.4623C80.3451 87.7015 80.1789 90.4787 83.5852 93.0708Z" fill="#2F2E41"/>
<path d="M116.101 73.2802C126.913 73.2802 135.678 64.5151 135.678 53.7029C135.678 42.8907 126.913 34.1257 116.101 34.1257C105.288 34.1257 96.5234 42.8907 96.5234 53.7029C96.5234 64.5151 105.288 73.2802 116.101 73.2802Z" fill="#A0616A"/>
<path d="M85.6042 500.004L95.6862 500.241L101.306 454.947L86.4276 454.595L85.6042 500.004Z" fill="#A0616A"/>
<path d="M120.194 521.037C120.194 522.741 118.985 524.121 117.494 524.121H97.4826C97.4826 524.121 95.5132 516.205 87.484 512.798L86.9298 524.121H76.6064L77.8572 505.915C77.8572 505.915 75.0957 496.174 80.8308 491.195C86.5661 486.216 81.9208 486.909 81.9208 486.909L84.1769 475.64L99.7766 477.475L99.8913 495.164L107.462 512.722L118.566 518.207C119.554 518.695 120.194 519.808 120.194 521.037Z" fill="#2F2E41"/>
<path d="M96.6921 458.911L104.7 465.04L135.917 431.743L124.1 422.697L96.6921 458.911Z" fill="#A0616A"/>
<path d="M112.26 496.281C111.257 497.657 109.467 498.061 108.262 497.183L92.0885 485.398C92.0885 485.398 95.1589 477.84 90.676 470.358L83.5598 479.183L75.2166 473.103L86.9497 459.125C86.9497 459.125 90.4543 449.627 98.0218 448.98C105.589 448.334 101.427 446.158 101.427 446.158L109.886 438.38L121.414 449.049L111.089 463.413L106.867 482.062L112.611 493.034C113.122 494.011 112.984 495.287 112.26 496.281Z" fill="#2F2E41"/>
<path d="M67.8427 268.406C68.4506 270.898 67.3309 282.498 67.9569 286.488C69.5488 296.636 84.0926 351.962 81.5836 367.734C72.391 425.523 85.1049 462.595 85.1049 462.595H105.614L116.552 287.585L127.227 301.658L148.116 364.048L111.165 430.485L130.459 446.42L188.067 354.825L147.131 201.604L144.658 192.353L89.3475 190.81L92.425 195.422L85.424 202.339C85.424 202.339 85.4147 202.357 85.3775 202.395C84.2991 203.901 60.3304 237.622 67.8427 268.406Z" fill="#2F2E41"/>
<path d="M85.3777 202.395C91.7836 204.682 135.072 202.32 147.131 201.604L144.658 192.353L89.3477 190.81L92.4251 195.422L85.4242 202.339C85.4242 202.339 85.4148 202.357 85.3777 202.395Z" fill="#A0616A"/>
<path d="M156.969 128.308L154.977 138.879L154.494 141.414L143.897 163.164L145.29 195.05C146.181 198.781 108.556 190.313 89.0097 199.061L73.7949 126.296L89.2223 92.7576L101.296 86.0501L103.308 78.001H128.884C130.246 84.3799 128.77 87.5231 126.123 89.3321L132.53 106.418L156.969 128.308Z" fill="#6A33EB"/>
<path d="M176.974 65.9548C176.658 68.6923 175.749 71.1314 174.494 72.9703L173.125 99.2396L160.644 98.2228L163.376 71.6846C162.574 69.6078 162.246 67.0257 162.562 64.2882C163.285 58.0342 167.098 53.3375 171.078 53.7977C175.057 54.2579 177.697 59.7008 176.974 65.9548Z" fill="#A0616A"/>
<path d="M127.229 93.5615L128.857 97.5355C128.857 97.5355 105.067 95.152 105.575 107.574C106.008 118.172 150.789 160.174 152.929 161.155C159.266 164.06 166.632 160.151 167.779 153.274C177.862 127.259 179.952 103.805 175.344 82.4956H161.672L157.219 99.306L156.969 112.093L149.759 127.473L126.123 97.5355L127.229 93.5615Z" fill="#6A33EB"/>
<path d="M47.965 239.577C48.844 236.898 49.0452 234.243 48.6672 231.997L58.6531 207.01L46.624 202.606L37.7895 228.427C36.154 230.012 34.7429 232.27 33.8638 234.949C31.8556 241.068 33.3843 247.064 37.2782 248.342C41.1722 249.62 45.9568 245.696 47.965 239.577Z" fill="#A0616A"/>
<path d="M105.567 93.5755C105.567 93.5755 90.7965 87.975 82.4118 94.8184C78.9539 97.6407 63.6614 117.088 61.3058 143.268C61.1212 145.32 59.7234 147.086 58.9359 149.005C54.0794 160.84 45.7187 166.291 42.1636 176.413C40.7743 180.368 43.3225 190.598 42.4446 194.011C37.8481 211.879 39.5068 222.067 39.5068 222.067L51.9194 226.2L58.6528 221.441L69.7123 181.055L105.567 93.5755Z" fill="#6A33EB"/>
<path d="M216.658 62.7806H170.552C167.689 62.7806 165.36 60.4517 165.36 57.5891C159.264 39.7714 159.385 22.3125 165.36 5.19144C165.36 2.32883 167.689 0 170.552 0H216.658C219.52 0 221.849 2.32883 221.849 5.19144V57.5891C221.849 60.4517 219.52 62.7806 216.658 62.7806Z" fill="#E6E6E6"/>
<path d="M180.43 1.54688C172.962 1.54688 166.907 7.60146 166.907 15.0701V56.4775C166.907 59.1044 169.037 61.2339 171.664 61.2339H197.16C209.941 61.2339 220.302 50.8727 220.302 38.0916V6.30323C220.302 3.67637 218.173 1.54688 215.546 1.54688H180.43Z" fill="white"/>
<path d="M204.342 16.7741H182.756C182.212 16.7741 181.769 16.3313 181.769 15.7871C181.769 15.2429 182.212 14.8003 182.756 14.8003H204.342C204.886 14.8003 205.329 15.2429 205.329 15.7871C205.329 16.3313 204.886 16.7741 204.342 16.7741Z" fill="#E6E6E6"/>
<path d="M204.342 37.8196H182.756C182.212 37.8196 181.769 37.3768 181.769 36.8326C181.769 36.2884 182.212 35.8458 182.756 35.8458H204.342C204.886 35.8458 205.329 36.2884 205.329 36.8326C205.329 37.3768 204.886 37.8196 204.342 37.8196Z" fill="#E6E6E6"/>
<path d="M215.926 27.3039H171.173C170.628 27.3039 170.186 26.8611 170.186 26.3169C170.186 25.7727 170.628 25.3301 171.173 25.3301H215.926C216.47 25.3301 216.912 25.7727 216.912 26.3169C216.912 26.8611 216.47 27.3039 215.926 27.3039Z" fill="#E6E6E6"/>
<path d="M216.453 46.3767H197.779C197.235 46.3767 196.792 45.9338 196.792 45.3896C196.792 44.8454 197.235 44.4028 197.779 44.4028H216.453C216.997 44.4028 217.44 44.8454 217.44 45.3896C217.44 45.9338 216.997 46.3767 216.453 46.3767Z" fill="#E6E6E6"/>
<path d="M229.929 501.567C232.754 501.744 234.315 498.234 232.178 496.189L231.966 495.344C231.994 495.276 232.022 495.208 232.05 495.141C234.907 488.329 244.588 488.376 247.42 495.198C249.934 501.252 253.134 507.317 253.922 513.719C254.276 516.545 254.117 519.424 253.49 522.196C259.38 509.33 262.48 495.28 262.48 481.15C262.48 477.6 262.285 474.05 261.888 470.509C261.561 467.612 261.111 464.733 260.528 461.881C257.375 446.462 250.549 431.776 240.702 419.51C235.969 416.922 232.022 412.878 229.637 408.03C228.781 406.281 228.109 404.4 227.792 402.484C228.33 402.555 229.823 394.351 229.416 393.847C230.167 392.708 231.511 392.142 232.331 391.03C236.408 385.502 242.026 386.467 244.959 393.98C251.224 397.142 251.285 402.386 247.44 407.429C244.995 410.638 244.659 414.98 242.513 418.415C242.734 418.698 242.963 418.971 243.184 419.254C247.232 424.447 250.734 430.028 253.686 435.892C252.852 429.375 254.083 421.524 256.183 416.463C258.573 410.697 263.054 405.841 266.999 400.856C271.738 394.868 281.455 397.482 282.29 405.072C282.298 405.145 282.306 405.219 282.314 405.292C281.728 405.623 281.154 405.974 280.593 406.345C277.394 408.46 278.5 413.419 282.29 414.004L282.376 414.017C282.164 416.128 281.802 418.221 281.272 420.278C286.333 439.852 275.406 446.981 259.804 447.301C259.459 447.478 259.124 447.654 258.779 447.822C260.36 452.273 261.623 456.839 262.559 461.466C263.398 465.555 263.981 469.688 264.308 473.838C264.714 479.075 264.679 484.338 264.237 489.566L264.263 489.381C265.385 483.623 268.511 478.245 273.05 474.518C279.812 468.963 289.366 466.918 296.661 462.453C300.172 460.304 304.672 463.081 304.059 467.152L304.029 467.347C302.943 467.789 301.883 468.301 300.859 468.875C300.273 469.206 299.699 469.557 299.138 469.928C295.939 472.043 297.045 477.002 300.835 477.587L300.921 477.6C300.983 477.609 301.036 477.618 301.097 477.627C299.234 482.051 296.638 486.157 293.388 489.699C290.223 506.785 276.631 508.407 262.091 503.431H262.082C260.493 510.354 258.17 517.119 255.185 523.565H230.547C230.458 523.292 230.379 523.009 230.3 522.735C232.578 522.877 234.874 522.744 237.117 522.329C235.289 520.086 233.461 517.825 231.633 515.582C231.589 515.538 231.554 515.494 231.518 515.45C230.591 514.302 229.655 513.162 228.728 512.014L228.727 512.013C228.669 508.489 229.092 504.976 229.929 501.567Z" fill="#4AD0CE"/>
<path d="M0.843018 525.68C0.843018 526.582 1.56771 527.307 2.47014 527.307H300.93C301.832 527.307 302.557 526.582 302.557 525.68C302.557 524.777 301.832 524.053 300.93 524.053H2.47014C1.56771 524.053 0.843018 524.777 0.843018 525.68Z" fill="#CCCCCC"/>
<path d="M121.408 30.5399H117.422C105.762 30.553 85.8322 47.0453 93.544 58.613C86.9588 76.1784 86.7188 85.3177 89.5142 90.1009C90.5432 91.8616 92.5864 92.6638 94.6208 92.521C94.892 92.502 95.1651 92.4961 95.4401 92.5053C97.4111 92.5704 100.055 101.835 101.889 102.548L106.759 101.067L114.747 93.0856L110.694 80.9115L102.851 74.7752L103.92 60.5643C98.6703 48.4994 104.381 47.9088 107.595 44.017L107.92 56.5029L112.523 52.0608C116.272 52.158 120.654 53.7834 123.567 50.4025C128.857 44.2125 134.342 51.6861 140.592 53.1966L142.53 51.6621C142.596 48.1811 142.082 44.82 141.082 41.8103C140.611 40.3935 139.409 39.226 139.358 37.8177C139.169 32.5327 129.18 27.4064 121.408 30.5399Z" fill="#2F2E41"/>
</g>
<defs>
<clipPath id="clip0_120_327">
<rect width="892.314" height="527.307" fill="white" transform="translate(0.843018)"/>
</clipPath>
</defs>
</svg>
