<svg width="408" height="296" viewBox="0 0 408 296" fill="none" xmlns="http://www.w3.org/2000/svg">
<g clip-path="url(#clip0_118_289)">
<path d="M408 162.596C408 162.883 407.768 163.115 407.481 163.115H0V162.077H407.481C407.768 162.077 408 162.309 408 162.596Z" fill="#F2F2F2"/>
<path d="M133.982 36.4958C142.486 36.4958 149.381 29.6014 149.381 21.0967C149.381 12.592 142.486 5.69763 133.982 5.69763C125.477 5.69763 118.583 12.592 118.583 21.0967C118.583 29.6014 125.477 36.4958 133.982 36.4958Z" fill="#FFB6B6"/>
<path d="M142.142 39.7451L121.872 45.5363L118.977 52.0514L112.462 83.1793V132.405C112.462 132.405 104.499 149.778 108.842 164.98C113.485 181.23 129.835 162.051 142.142 164.239C154.448 166.428 173.993 168.6 173.993 168.6L162.411 115.755L159.515 51.3275L142.142 39.7451Z" fill="#E6E6E6"/>
<path d="M138.317 26.1395L135.186 24.5741C135.186 24.5741 134.403 17.5299 132.838 15.9645C131.273 14.3991 131.273 13.6164 131.273 13.6164L133.621 10.4856C133.621 10.4856 121.88 16.7472 119.532 12.8337C117.184 8.92022 120.315 7.35483 120.315 7.35483L116.401 4.22405C116.401 4.22405 121.098 7.35483 121.88 5.00674C122.663 2.65865 127.359 1.06553 127.359 1.06553C127.359 1.06553 137.614 3.38588 136.792 1.06553C135.969 -1.25483 139.1 1.09326 139.882 1.87596C140.665 2.65865 147.709 10.4856 148.492 9.70291C149.275 8.92022 153.188 11.2683 152.405 12.051C151.623 12.8337 151.623 13.6164 152.405 14.3991C153.188 15.1818 157.884 23.7914 153.971 26.9222C150.057 30.053 144.578 33.9665 145.361 37.0973C146.144 40.2281 145.361 26.9222 138.317 26.1395Z" fill="#2F2E41"/>
<path d="M62.4064 64.9103C58.454 61.5032 57.0082 56.7021 59.177 54.1871C61.3457 51.6722 66.3069 52.3959 70.2603 55.8047C71.8582 57.1448 73.1119 58.848 73.9166 60.7719L90.4807 75.4195L83.4414 83.046L67.8594 67.7964C65.8373 67.2837 63.9675 66.294 62.4064 64.9103Z" fill="#FFB6B6"/>
<path d="M119.151 52.3004L130.061 51.3085L139.63 96.9436C141.453 105.639 135.753 114.129 127.015 115.733L119.151 117.176L69.0275 73.0446L76.3504 60.8369L113.314 84.0237L119.151 52.3004Z" fill="#E6E6E6"/>
<path d="M94.7917 255.245C94.7917 255.245 86.1377 271.317 86.7558 270.699C87.374 270.081 97.8824 273.79 97.8824 273.79L104.064 257.718L94.7917 255.245Z" fill="#FFB6B6"/>
<path d="M82.0185 142.746C82.0185 142.746 77.5886 160.454 78.0355 159.702C78.4824 158.951 89.5805 159.958 89.5805 159.958L91.614 142.859L82.0185 142.746Z" fill="#FFB6B6"/>
<path d="M159.079 139.768C139.522 142.516 121.857 140.12 107.464 128.835C107.464 128.835 96.9551 164.069 116.118 167.778C135.28 171.487 156.606 165.112 159.079 158.931C161.551 152.749 159.079 139.768 159.079 139.768Z" fill="#2F2E41"/>
<path d="M122.608 150.895L101.282 201.158L91.3918 259.263L104.373 262.354L127.592 208.884L159.079 157.694L122.608 150.895Z" fill="#2F2E41"/>
<path d="M119.826 136.562C119.826 136.562 114.881 98.2367 105.609 95.7641C101.089 94.5587 96.8625 94.6755 93.7178 95.1118C90.5481 95.5515 88.0214 97.9732 87.4672 101.125L79.0411 149.04H90.9562L94.7916 136.059L104.991 153.87L119.826 136.562Z" fill="#2F2E41"/>
<path d="M89.5374 155.106L77.7561 153.87L75.9382 160.669C75.9382 160.669 56.7757 177.977 66.666 179.214C76.5563 180.45 85.8285 173.65 85.8285 173.65L99.4338 165.846C99.4338 165.846 94.1734 151.822 90.4646 151.822C86.7557 151.822 89.5374 155.106 89.5374 155.106Z" fill="#2F2E41"/>
<path d="M95.7189 271.008L83.9376 269.772L82.1197 276.571C82.1197 276.571 62.9572 293.879 72.8475 295.116C82.7379 296.352 92.01 289.552 92.01 289.552L105.615 281.748C105.615 281.748 104.682 267.106 100.973 267.106C97.2642 267.106 95.7189 271.008 95.7189 271.008Z" fill="#2F2E41"/>
<path d="M155.371 177.431C153.951 182.303 150.286 185.519 147.185 184.614C144.085 183.71 142.724 179.028 144.146 174.154C144.687 172.2 145.688 170.403 147.066 168.915L153.345 148.349L162.934 151.501L155.725 171.441C156.087 173.437 155.966 175.491 155.371 177.431Z" fill="#FFB6B6"/>
<path d="M162.008 51.417L157.008 50.007C152.294 59.3869 150.267 69.8884 151.151 80.3491L153.619 109.538L145.477 160.843L161.435 164.971L174.01 100.586L162.008 51.417Z" fill="#E6E6E6"/>
<path d="M64.6749 131.631C64.4559 130.961 62.7965 131.256 62.6372 130.656C62.4785 130.059 64.0708 129.559 65.292 127.876C65.5122 127.573 66.9001 125.66 66.3678 124.856C65.3589 123.332 58.3392 127.129 56.6543 124.998C56.2845 124.53 56.1323 123.727 55.0307 122.233C54.5925 121.639 54.3113 121.352 53.9754 121.361C53.4987 121.373 53.3281 121.969 52.579 123.049C51.4554 124.669 51.05 124.466 50.3098 125.793C49.7604 126.779 49.6952 127.408 49.299 127.445C48.7383 127.498 48.5067 126.271 47.8215 126.223C47.1224 126.175 46.4228 127.387 46.076 128.334C45.4252 130.111 45.8282 131.47 45.9176 132.823C46.0147 134.295 45.7867 136.448 44.1881 139.212L29.1106 163.235C32.3487 158.338 41.5402 144.984 45.2435 140.085C46.3126 138.671 47.4614 137.251 49.2297 136.984C50.9321 136.727 53.0035 137.569 55.8948 137.52C56.2324 137.515 57.1722 137.487 57.4007 136.989C57.5897 136.577 57.1205 136.219 57.2912 135.832C57.5201 135.312 58.5502 135.535 59.954 135.19C60.9439 134.947 61.6164 134.546 62.1947 134.2C62.369 134.096 64.9664 132.523 64.6749 131.631Z" fill="#4AD0CE"/>
<path d="M25.184 137.239C24.792 137.153 24.458 138.053 24.1179 137.958C23.779 137.864 23.9927 136.938 23.5193 135.853C23.4339 135.657 22.8958 134.425 22.3474 134.454C21.3081 134.509 21.1463 139.05 19.6143 139.262C19.2781 139.309 18.8402 139.152 17.7891 139.261C17.371 139.305 17.149 139.36 17.0563 139.528C16.9246 139.765 17.1681 140.021 17.4821 140.7C17.953 141.719 17.7362 141.859 18.1741 142.605C18.4992 143.159 18.7894 143.373 18.6933 143.578C18.5573 143.869 17.8883 143.628 17.6673 143.951C17.4417 144.28 17.8348 144.973 18.1996 145.417C18.8841 146.249 19.6671 146.443 20.3573 146.79C21.1074 147.167 22.0986 147.9 22.9941 149.482L30.434 163.813C28.9647 160.811 25.0626 152.447 23.727 149.216C23.3414 148.283 22.976 147.31 23.3551 146.365C23.7201 145.455 24.7311 144.681 25.5413 143.248C25.6359 143.081 25.8933 142.611 25.7148 142.355C25.5673 142.144 25.2562 142.271 25.1154 142.075C24.9267 141.813 25.3332 141.372 25.569 140.583C25.7353 140.027 25.7321 139.581 25.7295 139.198C25.7286 139.082 25.7058 137.354 25.184 137.239Z" fill="#4AD0CE"/>
<path d="M32.6064 140.736L32.8403 138.577L32.9837 138.441C33.6473 137.814 34.0625 137.15 34.2182 136.466C34.243 136.357 34.2622 136.247 34.2818 136.135C34.3595 135.691 34.4559 135.139 34.8827 134.566C35.1215 134.247 35.7534 133.525 36.4051 133.777C36.581 133.843 36.6997 133.957 36.7821 134.078C36.8028 134.057 36.8241 134.036 36.8467 134.013C37.1282 133.74 37.3252 133.64 37.5148 133.543C37.6606 133.469 37.8111 133.393 38.0658 133.189C38.1776 133.1 38.267 133.019 38.3424 132.952C38.5711 132.747 38.8636 132.508 39.2642 132.603C39.6889 132.719 39.8345 133.124 39.9311 133.392C40.1036 133.871 40.1568 134.2 40.1919 134.418C40.2046 134.498 40.2193 134.587 40.2304 134.617C40.3233 134.851 41.4902 134.911 41.9293 134.937C42.9162 134.99 43.7702 135.037 43.9755 135.712C44.1229 136.196 43.8158 136.723 43.0364 137.321C42.7936 137.507 42.5509 137.636 42.3394 137.732C42.4695 137.855 42.5731 138.022 42.5795 138.25C42.5937 138.789 42.0407 139.203 40.9359 139.482C40.6613 139.552 40.292 139.644 39.8088 139.621C39.5812 139.61 39.3818 139.575 39.2118 139.542C39.1865 139.639 39.14 139.74 39.0562 139.835C38.8103 140.117 38.4132 140.188 37.8742 140.03C37.279 139.864 36.8088 139.638 36.3939 139.44C36.0315 139.267 35.719 139.12 35.4568 139.08C34.9691 139.011 34.5144 139.312 33.9702 139.713L32.6064 140.736Z" fill="#4AD0CE"/>
<path d="M36.4985 128.438L34.3507 128.76L34.1831 128.655C33.4081 128.173 32.6601 127.94 31.9592 127.962C31.8477 127.966 31.7365 127.975 31.6232 127.985C31.174 128.022 30.6158 128.069 29.9531 127.802C29.5835 127.652 28.7251 127.223 28.8037 126.529C28.8228 126.342 28.903 126.198 28.999 126.088C28.9735 126.073 28.9479 126.058 28.9202 126.042C28.5842 125.839 28.4373 125.674 28.2958 125.515C28.187 125.393 28.0749 125.267 27.8133 125.072C27.6985 124.986 27.598 124.92 27.5136 124.865C27.2581 124.695 26.9526 124.473 26.9426 124.061C26.9472 123.621 27.3021 123.377 27.537 123.216C27.956 122.928 28.2607 122.793 28.4629 122.704C28.5368 122.671 28.6199 122.634 28.6453 122.616C28.8483 122.467 28.6109 121.323 28.5241 120.891C28.3255 119.923 28.1537 119.085 28.7553 118.715C29.1856 118.45 29.7735 118.614 30.5498 119.216C30.7914 119.403 30.9772 119.606 31.1236 119.786C31.2096 119.629 31.3451 119.486 31.5638 119.422C32.0817 119.272 32.6222 119.702 33.1722 120.7C33.3096 120.947 33.493 121.281 33.5929 121.754C33.6398 121.977 33.6566 122.179 33.6682 122.352C33.7684 122.352 33.8775 122.371 33.9912 122.428C34.3259 122.594 34.4958 122.96 34.4791 123.522C34.4696 124.14 34.3707 124.652 34.2842 125.103C34.2091 125.498 34.1456 125.838 34.1731 126.101C34.2308 126.59 34.6374 126.954 35.1631 127.379L36.4985 128.438Z" fill="#4AD0CE"/>
<path d="M36.7878 121.988L37.0217 119.829L37.1651 119.694C37.8287 119.067 38.2439 118.402 38.3996 117.718C38.4244 117.61 38.4436 117.5 38.4632 117.388C38.5408 116.944 38.6373 116.392 39.0641 115.819C39.3029 115.499 39.9348 114.777 40.5865 115.029C40.7624 115.095 40.8811 115.209 40.9635 115.33C40.9842 115.309 41.0055 115.288 41.0281 115.266C41.3096 114.992 41.5065 114.892 41.6962 114.795C41.842 114.721 41.9925 114.645 42.2472 114.441C42.359 114.352 42.4484 114.271 42.5238 114.204C42.7525 114 43.045 113.761 43.4456 113.855C43.8703 113.971 44.0159 114.376 44.1125 114.645C44.285 115.123 44.3382 115.452 44.3733 115.67C44.386 115.75 44.4007 115.84 44.4118 115.869C44.5047 116.103 45.6716 116.164 46.1107 116.189C47.0976 116.243 47.9516 116.289 48.1569 116.965C48.3043 117.448 47.9972 117.975 47.2178 118.574C46.975 118.76 46.7323 118.888 46.5208 118.984C46.6509 119.107 46.7545 119.274 46.7608 119.502C46.7751 120.041 46.2221 120.455 45.1173 120.734C44.8427 120.804 44.4734 120.897 43.9902 120.873C43.7626 120.862 43.5632 120.827 43.3932 120.795C43.3679 120.891 43.3214 120.992 43.2376 121.088C42.9917 121.369 42.5946 121.441 42.0556 121.282C41.4604 121.116 40.9902 120.891 40.5753 120.692C40.2129 120.52 39.9004 120.372 39.6382 120.332C39.1505 120.264 38.6958 120.565 38.1516 120.965L36.7878 121.988Z" fill="#4AD0CE"/>
<path d="M29.8235 163.358L29.4437 162.983L28.9159 162.927C28.9184 162.877 28.915 162.761 28.9111 162.58C28.8908 161.587 28.8278 158.564 29.2487 153.919C29.5426 150.677 30.0338 147.386 30.7085 144.135C31.3844 140.88 32.0859 138.458 32.6493 136.511C33.0745 135.043 33.5036 133.65 33.9226 132.294C35.0406 128.669 36.0962 125.246 36.7499 121.34C36.8963 120.469 37.2001 118.654 36.5781 116.512C36.2172 115.27 35.5992 114.101 34.7408 113.038L35.5716 112.367C36.5189 113.541 37.2023 114.836 37.6031 116.216C38.2928 118.59 37.9617 120.568 37.8027 121.518C37.1373 125.492 36.0712 128.948 34.9422 132.607C34.5254 133.959 34.0976 135.346 33.6743 136.808C33.1159 138.737 32.4208 141.138 31.7537 144.351C31.0866 147.563 30.6017 150.814 30.311 154.015C29.8957 158.601 29.9581 161.579 29.9785 162.557C29.9891 163.08 29.9913 163.189 29.8235 163.358Z" fill="#4AD0CE"/>
<path d="M32.4616 114.267C32.4189 114.257 32.3759 114.247 32.3329 114.234C31.4566 113.988 30.7537 113.274 30.2431 112.112C30.0041 111.565 29.9477 110.99 29.8352 109.843C29.8176 109.666 29.7396 108.771 29.8355 107.584C29.8978 106.809 29.9812 106.498 30.1921 106.253C30.4264 105.981 30.742 105.825 31.0755 105.747C31.0845 105.644 31.1181 105.544 31.1847 105.449C31.459 105.054 31.9183 105.216 32.1674 105.301C32.293 105.346 32.4494 105.403 32.6254 105.433C32.902 105.481 33.0671 105.432 33.3171 105.36C33.5562 105.29 33.8536 105.204 34.2647 105.211C35.0758 105.222 35.6762 105.587 35.8742 105.707C36.917 106.333 37.277 107.333 37.6937 108.49C37.7764 108.722 38.0512 109.561 38.1152 110.641C38.1614 111.42 38.0593 111.739 37.9422 111.967C37.7031 112.436 37.337 112.653 36.4284 113.11C35.4791 113.589 35.0028 113.829 34.6123 113.952C33.7036 114.237 33.1329 114.417 32.4616 114.267Z" fill="#4AD0CE"/>
<path d="M276.146 23.893C276.146 23.893 282.041 27.3502 280.107 30.7692C278.174 34.1881 275.479 38.8451 277.307 40.3118C279.136 41.7785 282.155 48.2451 282.155 48.2451C282.155 48.2451 295.04 46.4454 293.83 56.4547C292.621 66.464 286.567 67.8286 291.756 72.2319C296.944 76.6353 286.363 81.9017 286.363 81.9017C286.363 81.9017 279.059 79.6254 277.392 72.6255C275.726 65.6256 278.878 77.9778 277.821 78.8635C276.764 79.7491 272.659 85.587 269.754 77.8252C266.85 70.0634 269.726 67.054 265.888 62.4731C262.05 57.8921 259.441 50.4827 259.555 49.1875C259.669 47.8923 255.165 36.0733 262.098 31.464C269.031 26.8548 276.146 23.893 276.146 23.893Z" fill="#2F2E41"/>
<path d="M334.212 132.495C337.635 135.327 341.871 135.857 343.673 133.679C345.475 131.5 344.161 127.439 340.737 124.606C339.385 123.455 337.777 122.645 336.047 122.244L321.394 110.425L315.994 117.419L331.013 128.328C331.731 129.952 332.828 131.381 334.212 132.495Z" fill="#FFB6B6"/>
<path d="M290.294 68.0374C290.294 68.0374 278.795 60.3469 275.029 64.1179C271.263 67.8889 272.163 77.3078 272.163 77.3078L302.319 112.453L326.232 127.653L332.644 117.613L312.54 99.6735L290.294 68.0374Z" fill="#3F3D56"/>
<path d="M273.438 51.3785L277.61 66.2091H254.71L262.251 47.9355L273.438 51.3785Z" fill="#FFB6B6"/>
<path opacity="0.1" d="M273.438 51.3785L277.61 66.2091H254.71L262.251 47.9355L273.438 51.3785Z" fill="black"/>
<path d="M223.496 160.877C223.201 165.31 225.248 169.056 228.07 169.244C230.891 169.432 233.417 165.99 233.712 161.556C233.854 159.786 233.57 158.008 232.884 156.37L233.9 137.572L225.068 137.283L225.005 155.846C224.107 157.379 223.59 159.104 223.496 160.877Z" fill="#FFB6B6"/>
<path d="M250.09 87.5544C250.09 87.5544 249.601 73.7289 244.34 72.8802C239.079 72.0315 231.965 78.2702 231.965 78.2702L221.098 123.287L222.756 151.573L234.65 150.901L237.441 124.102L250.09 87.5544Z" fill="#3F3D56"/>
<path d="M301.1 252.773C301.1 252.773 309.754 268.845 309.136 268.226C308.518 267.608 298.009 271.317 298.009 271.317L291.828 255.245L301.1 252.773Z" fill="#FFB6B6"/>
<path d="M313.873 140.273C313.873 140.273 318.303 157.981 317.856 157.23C317.409 156.478 306.311 157.485 306.311 157.485L304.277 140.386L313.873 140.273Z" fill="#FFB6B6"/>
<path d="M279.465 61.2639H257.859L234.34 77.3357L227.541 133.587L231.25 144.713L238.049 157.694C238.049 157.694 231.25 129.26 247.939 140.386C264.629 151.513 265.866 153.367 265.866 153.367L288.119 142.241L296.464 96.1891L290.282 70.8452L279.465 61.2639Z" fill="#3F3D56"/>
<path d="M236.813 137.296C256.37 140.043 274.034 137.648 288.428 126.362C288.428 126.362 298.936 161.596 279.774 165.305C260.611 169.014 239.285 162.64 236.813 156.458C234.34 150.277 236.813 137.296 236.813 137.296Z" fill="#2F2E41"/>
<path d="M273.283 148.422L294.609 198.685L304.5 256.791L291.519 259.881L268.299 206.412L236.813 155.222L273.283 148.422Z" fill="#2F2E41"/>
<path d="M276.065 134.089C276.065 134.089 281.01 95.7641 290.282 93.2915C294.802 92.0861 299.029 92.2029 302.174 92.6392C305.343 93.079 307.87 95.5006 308.424 98.6522L316.85 146.568H304.935L301.1 133.587L290.9 151.397L276.065 134.089Z" fill="#2F2E41"/>
<path d="M306.354 152.633L318.135 151.397L319.953 158.197C319.953 158.197 339.116 175.505 329.225 176.741C319.335 177.977 310.063 171.178 310.063 171.178L296.458 163.373C296.458 163.373 301.718 149.349 305.427 149.349C309.136 149.349 306.354 152.633 306.354 152.633Z" fill="#2F2E41"/>
<path d="M300.173 268.535L311.954 267.299L313.772 274.099C313.772 274.099 332.934 291.407 323.044 292.643C313.154 293.879 303.881 287.08 303.881 287.08L290.276 279.275C290.276 279.275 291.209 264.633 294.918 264.633C298.627 264.633 300.173 268.535 300.173 268.535Z" fill="#2F2E41"/>
<path d="M267.997 54.6013C275.614 54.6013 281.788 48.4267 281.788 40.8101C281.788 33.1934 275.614 27.0189 267.997 27.0189C260.38 27.0189 254.206 33.1934 254.206 40.8101C254.206 48.4267 260.38 54.6013 267.997 54.6013Z" fill="#FFB6B6"/>
<path d="M273.284 25.4099C273.284 25.4099 275.582 31.8458 271.905 33.2249C268.227 34.604 263.17 36.4429 263.63 38.7414C264.09 41.0399 262.251 47.9355 262.251 47.9355C262.251 47.9355 273.284 54.8311 265.928 61.7267C258.573 68.6223 253.057 65.7808 254.206 72.4882C255.355 79.1955 243.863 76.4373 243.863 76.4373C243.863 76.4373 239.725 70.0014 242.943 63.5655C246.161 57.1296 240.645 68.6223 239.265 68.6223C237.886 68.6223 230.991 70.4611 233.749 62.6461C236.507 54.8311 240.645 54.3714 240.645 48.3952C240.645 42.419 243.403 35.0637 244.322 34.1443C245.242 33.2249 249.379 21.2726 257.654 22.192C265.928 23.1114 273.284 25.4099 273.284 25.4099Z" fill="#2F2E41"/>
<path d="M152.745 252.773C152.745 252.773 144.091 268.845 144.709 268.226C145.327 267.608 155.836 271.317 155.836 271.317L162.017 255.245L152.745 252.773Z" fill="#A0616A"/>
<path d="M217.032 137.296C197.475 140.043 179.811 137.648 165.417 126.362C165.417 126.362 154.909 161.596 174.071 165.305C193.234 169.014 214.56 162.64 217.032 156.458C219.505 150.277 217.032 137.296 217.032 137.296Z" fill="#2F2E41"/>
<path d="M180.562 148.422L159.236 198.685L149.345 256.791L162.326 259.881L185.546 206.412L217.032 155.222L180.562 148.422Z" fill="#2F2E41"/>
<path d="M153.672 268.535L141.891 267.299L140.073 274.099C140.073 274.099 120.911 291.407 130.801 292.643C140.691 293.879 149.964 287.08 149.964 287.08L163.569 279.275C163.569 279.275 162.635 264.633 158.927 264.633C155.218 264.633 153.672 268.535 153.672 268.535Z" fill="#2F2E41"/>
<path d="M172.286 244.317C172.286 244.317 169.012 262.275 169.409 261.496C169.807 260.717 180.947 261.003 180.947 261.003L181.869 243.808L172.286 244.317Z" fill="#A0616A"/>
<path d="M166.553 136.475L161.773 190.865L170.291 249.188L183.593 248.123L189.184 190.098L203.342 131.691L166.553 136.475Z" fill="#2F2E41"/>
<path d="M178.031 259.025L166.443 261.483L166.811 268.512C166.811 268.512 153.923 290.888 163.712 289.012C173.501 287.137 180.224 277.809 180.224 277.809L190.757 266.187C190.757 266.187 185.353 252.548 181.825 253.692C178.297 254.836 178.031 259.025 178.031 259.025Z" fill="#2F2E41"/>
<path d="M177.699 23.893C177.699 23.893 171.804 27.3502 173.738 30.7692C175.671 34.1881 178.366 38.8451 176.538 40.3118C174.709 41.7785 171.691 48.2451 171.691 48.2451C171.691 48.2451 158.805 46.4454 160.015 56.4547C161.224 66.464 167.278 67.8286 162.089 72.2319C156.901 76.6353 167.482 81.9017 167.482 81.9017C167.482 81.9017 174.786 79.6254 176.453 72.6255C178.119 65.6256 174.967 77.9778 176.024 78.8635C177.082 79.7491 181.186 85.587 184.091 77.8252C186.995 70.0634 184.119 67.054 187.957 62.4731C191.795 57.8921 194.404 50.4827 194.29 49.1875C194.176 47.8923 198.68 36.0733 191.747 31.464C184.814 26.8548 177.699 23.893 177.699 23.893Z" fill="#2F2E41"/>
<path d="M180.407 51.3785L176.235 66.2091H199.135L191.594 47.9355L180.407 51.3785Z" fill="#A0616A"/>
<path opacity="0.1" d="M180.407 51.3785L176.235 66.2091H199.135L191.594 47.9355L180.407 51.3785Z" fill="black"/>
<path d="M230.349 160.877C230.644 165.31 228.597 169.056 225.776 169.244C222.954 169.432 220.429 165.99 220.133 161.556C219.991 159.786 220.275 158.008 220.961 156.37L219.945 137.572L228.777 137.283L228.84 155.846C229.738 157.379 230.255 159.104 230.349 160.877Z" fill="#A0616A"/>
<path d="M203.755 87.5544C203.755 87.5544 204.244 73.7289 209.505 72.8802C214.766 72.0315 221.88 78.2702 221.88 78.2702L232.747 123.287L231.089 151.573L219.195 150.901L216.404 124.102L203.755 87.5544Z" fill="#6A33EB"/>
<path d="M174.38 61.2639H195.986L219.505 77.3357L226.304 133.587L222.595 144.713L215.796 157.694C215.796 157.694 222.595 129.26 205.906 140.386C205.739 140.498 205.573 140.608 205.41 140.717C194.666 147.893 180.49 147.156 170.545 138.909L162.635 132.351L166.963 110.715L163.563 70.8452L174.38 61.2639Z" fill="#6A33EB"/>
<path d="M120.317 131.689C116.851 134.469 112.608 134.935 110.839 132.729C109.07 130.524 110.445 126.482 113.912 123.702C115.282 122.572 116.902 121.786 118.637 121.411L133.469 109.816L138.762 116.892L123.579 127.571C122.836 129.185 121.717 130.597 120.317 131.689Z" fill="#A0616A"/>
<path d="M165.209 67.9066C165.209 67.9066 176.824 60.3917 180.532 64.2195C184.24 68.0473 183.198 77.4515 183.198 77.4515L152.51 112.134L128.369 126.969L122.111 116.832L142.485 99.201L165.209 67.9066Z" fill="#6A33EB"/>
<path d="M185.848 54.6013C193.464 54.6013 199.639 48.4267 199.639 40.8101C199.639 33.1934 193.464 27.0189 185.848 27.0189C178.231 27.0189 172.057 33.1934 172.057 40.8101C172.057 48.4267 178.231 54.6013 185.848 54.6013Z" fill="#A0616A"/>
<path d="M178.982 31.566C178.982 31.566 176.951 24.7934 180.337 24.7934C183.723 24.7934 197.268 25.4707 198.623 26.8252C199.977 28.1797 216.005 41.7738 206.524 52.6099C197.042 63.446 206.524 68.6816 206.524 68.6816C206.524 68.6816 213.522 85.0691 206.75 86.4236C199.977 87.7781 172.197 80.033 178.982 67.4604C186.346 53.8166 189.772 32.2819 178.982 31.566Z" fill="#2F2E41"/>
<path d="M404.654 132.249C404.435 131.579 402.776 131.874 402.616 131.275C402.458 130.678 404.05 130.177 405.271 128.494C405.491 128.191 406.879 126.279 406.347 125.474C405.338 123.95 398.318 127.747 396.634 125.616C396.264 125.148 396.112 124.346 395.01 122.852C394.572 122.257 394.291 121.97 393.955 121.979C393.478 121.991 393.307 122.587 392.558 123.667C391.435 125.287 391.029 125.084 390.289 126.411C389.74 127.397 389.674 128.026 389.278 128.063C388.718 128.116 388.486 126.889 387.801 126.842C387.102 126.793 386.402 128.005 386.055 128.952C385.404 130.729 385.807 132.088 385.897 133.442C385.994 134.913 385.766 137.066 384.167 139.831L369.09 163.853C372.328 158.956 381.519 145.602 385.223 140.703C386.292 139.289 387.441 137.869 389.209 137.602C390.911 137.345 392.983 138.187 395.874 138.138C396.212 138.133 397.151 138.105 397.38 137.607C397.569 137.195 397.1 136.837 397.27 136.45C397.499 135.931 398.529 136.153 399.933 135.809C400.923 135.565 401.596 135.164 402.174 134.818C402.348 134.714 404.946 133.141 404.654 132.249Z" fill="#4AD0CE"/>
<path d="M365.163 137.858C364.771 137.772 364.437 138.671 364.097 138.576C363.758 138.482 363.972 137.556 363.499 136.471C363.413 136.276 362.875 135.043 362.327 135.072C361.287 135.127 361.126 139.668 359.594 139.88C359.257 139.927 358.819 139.77 357.768 139.88C357.35 139.923 357.128 139.978 357.036 140.146C356.904 140.383 357.147 140.639 357.461 141.318C357.932 142.337 357.715 142.477 358.153 143.224C358.478 143.778 358.769 143.991 358.673 144.196C358.537 144.487 357.868 144.247 357.647 144.569C357.421 144.898 357.814 145.591 358.179 146.035C358.863 146.867 359.646 147.061 360.337 147.408C361.087 147.785 362.078 148.518 362.973 150.1L370.413 164.431C368.944 161.429 365.042 153.065 363.706 149.834C363.321 148.901 362.955 147.928 363.334 146.983C363.699 146.073 364.71 145.299 365.521 143.866C365.615 143.699 365.873 143.229 365.694 142.974C365.547 142.762 365.235 142.889 365.095 142.694C364.906 142.431 365.312 141.99 365.548 141.202C365.715 140.646 365.711 140.2 365.709 139.816C365.708 139.7 365.685 137.972 365.163 137.858Z" fill="#4AD0CE"/>
<path d="M372.586 141.354L372.82 139.195L372.963 139.06C373.627 138.432 374.042 137.768 374.198 137.084C374.222 136.975 374.242 136.865 374.261 136.753C374.339 136.309 374.435 135.758 374.862 135.184C375.101 134.865 375.733 134.143 376.384 134.395C376.56 134.461 376.679 134.575 376.761 134.696C376.782 134.675 376.803 134.654 376.826 134.632C377.108 134.358 377.305 134.258 377.494 134.161C377.64 134.087 377.79 134.011 378.045 133.807C378.157 133.718 378.246 133.637 378.322 133.57C378.55 133.365 378.843 133.126 379.244 133.221C379.668 133.337 379.814 133.742 379.91 134.011C380.083 134.489 380.136 134.818 380.171 135.036C380.184 135.116 380.199 135.205 380.21 135.235C380.303 135.469 381.47 135.53 381.909 135.555C382.896 135.608 383.75 135.655 383.955 136.331C384.102 136.814 383.795 137.341 383.016 137.939C382.773 138.125 382.53 138.254 382.319 138.35C382.449 138.473 382.552 138.64 382.559 138.868C382.573 139.407 382.02 139.821 380.915 140.1C380.641 140.17 380.271 140.262 379.788 140.239C379.561 140.228 379.361 140.193 379.191 140.16C379.166 140.257 379.119 140.358 379.036 140.453C378.79 140.735 378.393 140.807 377.854 140.648C377.258 140.482 376.788 140.256 376.373 140.058C376.011 139.886 375.698 139.738 375.436 139.698C374.949 139.629 374.494 139.931 373.95 140.331L372.586 141.354Z" fill="#4AD0CE"/>
<path d="M376.478 129.056L374.33 129.378L374.162 129.274C373.387 128.791 372.639 128.558 371.938 128.581C371.827 128.584 371.716 128.593 371.602 128.603C371.153 128.64 370.595 128.687 369.932 128.42C369.563 128.27 368.704 127.841 368.783 127.147C368.802 126.96 368.882 126.817 368.978 126.706C368.953 126.691 368.927 126.676 368.899 126.66C368.563 126.457 368.416 126.292 368.275 126.133C368.166 126.011 368.054 125.885 367.792 125.69C367.678 125.605 367.577 125.538 367.493 125.483C367.237 125.313 366.932 125.091 366.922 124.679C366.926 124.239 367.281 123.996 367.516 123.834C367.935 123.546 368.24 123.411 368.442 123.322C368.516 123.289 368.599 123.252 368.624 123.234C368.827 123.085 368.59 121.941 368.503 121.51C368.305 120.541 368.133 119.704 368.734 119.333C369.165 119.068 369.753 119.232 370.529 119.834C370.77 120.021 370.956 120.224 371.103 120.404C371.189 120.247 371.324 120.104 371.543 120.04C372.061 119.89 372.601 120.32 373.151 121.318C373.289 121.565 373.472 121.899 373.572 122.373C373.619 122.596 373.636 122.797 373.647 122.97C373.747 122.97 373.857 122.989 373.97 123.046C374.305 123.213 374.475 123.579 374.458 124.14C374.449 124.758 374.35 125.27 374.263 125.722C374.188 126.116 374.125 126.456 374.152 126.72C374.21 127.209 374.617 127.572 375.142 127.997L376.478 129.056Z" fill="#4AD0CE"/>
<path d="M376.767 122.607L377.001 120.447L377.145 120.312C377.808 119.685 378.223 119.02 378.379 118.336C378.404 118.228 378.423 118.118 378.443 118.006C378.52 117.562 378.617 117.01 379.044 116.437C379.282 116.117 379.914 115.395 380.566 115.648C380.742 115.714 380.861 115.828 380.943 115.948C380.964 115.927 380.985 115.907 381.008 115.884C381.289 115.61 381.486 115.51 381.676 115.414C381.821 115.339 381.972 115.263 382.227 115.059C382.338 114.97 382.428 114.889 382.503 114.822C382.732 114.618 383.024 114.379 383.425 114.473C383.85 114.589 383.995 114.995 384.092 115.263C384.265 115.741 384.318 116.07 384.353 116.288C384.365 116.368 384.38 116.458 384.391 116.487C384.484 116.721 385.651 116.782 386.09 116.807C387.077 116.861 387.931 116.907 388.136 117.583C388.284 118.066 387.977 118.594 387.197 119.192C386.954 119.378 386.712 119.506 386.5 119.602C386.63 119.725 386.734 119.892 386.74 120.12C386.755 120.659 386.202 121.073 385.097 121.352C384.822 121.422 384.453 121.515 383.97 121.491C383.742 121.48 383.543 121.445 383.373 121.413C383.347 121.509 383.301 121.61 383.217 121.706C382.971 121.987 382.574 122.059 382.035 121.9C381.44 121.734 380.97 121.509 380.555 121.311C380.192 121.138 379.88 120.99 379.618 120.95C379.13 120.882 378.675 121.183 378.131 121.584L376.767 122.607Z" fill="#4AD0CE"/>
<path d="M369.803 163.976L369.423 163.601L368.895 163.545C368.898 163.495 368.894 163.379 368.89 163.198C368.87 162.205 368.807 159.182 369.228 154.537C369.522 151.295 370.013 148.004 370.688 144.753C371.364 141.498 372.065 139.076 372.629 137.129C373.054 135.661 373.483 134.268 373.902 132.912C375.02 129.287 376.075 125.864 376.729 121.959C376.876 121.087 377.179 119.272 376.557 117.13C376.196 115.888 375.578 114.719 374.72 113.656L375.551 112.985C376.498 114.16 377.182 115.454 377.582 116.834C378.272 119.208 377.941 121.186 377.782 122.136C377.117 126.11 376.05 129.566 374.921 133.226C374.505 134.577 374.077 135.964 373.654 137.426C373.095 139.355 372.4 141.756 371.733 144.97C371.066 148.181 370.581 151.432 370.29 154.633C369.875 159.219 369.937 162.197 369.958 163.176C369.968 163.698 369.971 163.807 369.803 163.976Z" fill="#4AD0CE"/>
<path d="M372.441 114.885C372.398 114.876 372.355 114.865 372.312 114.852C371.436 114.606 370.733 113.892 370.222 112.73C369.983 112.183 369.927 111.608 369.814 110.461C369.797 110.284 369.719 109.389 369.814 108.203C369.877 107.427 369.96 107.116 370.171 106.872C370.405 106.599 370.721 106.443 371.054 106.365C371.064 106.262 371.097 106.162 371.164 106.067C371.438 105.672 371.897 105.834 372.146 105.919C372.272 105.964 372.428 106.021 372.604 106.051C372.881 106.099 373.046 106.05 373.296 105.978C373.535 105.908 373.833 105.822 374.244 105.829C375.055 105.84 375.655 106.205 375.853 106.325C376.896 106.951 377.256 107.951 377.673 109.109C377.755 109.341 378.03 110.179 378.094 111.259C378.14 112.038 378.038 112.357 377.921 112.585C377.682 113.054 377.316 113.271 376.407 113.728C375.458 114.207 374.982 114.447 374.591 114.57C373.683 114.856 373.112 115.035 372.441 114.885Z" fill="#4AD0CE"/>
<path d="M103.329 126.597L102.631 104.596C102.62 104.238 102.76 103.891 103.016 103.642C103.273 103.392 103.624 103.262 103.981 103.283L121.44 104.33C121.793 104.351 122.124 104.52 122.348 104.793C122.573 105.066 122.674 105.423 122.627 105.773L119.673 127.64C119.584 128.302 118.992 128.786 118.326 128.741L104.518 127.828C104.378 127.819 104.245 127.788 104.121 127.738C103.665 127.553 103.345 127.115 103.329 126.597Z" fill="#4360F6"/>
<path d="M102.653 102.537C102.897 102.512 103.224 102.48 103.617 102.447C103.512 102.251 103.469 102.02 103.514 101.783L103.826 100.135C103.907 99.7072 104.251 99.3793 104.683 99.3216C107.254 98.9779 116.096 98.0452 121.663 100.571C122.011 100.729 122.236 101.076 122.247 101.459L122.298 103.217C122.304 103.434 122.241 103.636 122.13 103.803C122.593 103.927 123.054 104.059 123.512 104.202C123.799 104.292 124.004 104.545 124.038 104.844L124.125 105.593C124.18 106.068 123.79 106.476 123.313 106.444L102.44 105.035C101.965 105.003 101.635 104.549 101.749 104.087L101.989 103.115C102.067 102.802 102.332 102.571 102.653 102.537Z" fill="#3F3D56"/>
<path d="M50.7865 64.1645L50.089 42.163C50.0777 41.8059 50.2181 41.4582 50.4742 41.2091C50.7305 40.9599 51.0822 40.8292 51.4391 40.8506L68.8981 41.8977C69.2508 41.9187 69.5817 42.0873 69.806 42.3602C70.0305 42.633 70.132 42.9902 70.0848 43.3402L67.1313 65.2079C67.0419 65.8696 66.4502 66.3531 65.7841 66.3089L51.9761 65.3958C51.8361 65.3865 51.7027 65.3553 51.5791 65.3054C51.1231 65.1209 50.8029 64.6826 50.7865 64.1645Z" fill="#4360F6"/>
<path d="M50.1108 40.1048C50.3551 40.0791 50.6823 40.0475 51.0751 40.0145C50.9701 39.8189 50.9271 39.5877 50.972 39.3504L51.2838 37.7023C51.3647 37.2746 51.7093 36.9467 52.1408 36.889C54.7115 36.5453 63.5534 35.6127 69.121 38.1386C69.4693 38.2966 69.6934 38.6437 69.7045 39.026L69.7554 40.7842C69.7617 41.0016 69.6986 41.203 69.5879 41.3701C70.0507 41.4945 70.512 41.6262 70.9697 41.7697C71.2565 41.8596 71.4618 42.1127 71.4962 42.4113L71.5827 43.1602C71.6376 43.6354 71.248 44.0439 70.7708 44.0117L49.8983 42.6021C49.4233 42.57 49.0925 42.1167 49.2068 41.6546L49.4473 40.6824C49.5247 40.3691 49.79 40.1386 50.1108 40.1048Z" fill="#3F3D56"/>
<path d="M324.624 132.16L323.927 110.159C323.916 109.802 324.056 109.454 324.312 109.205C324.569 108.956 324.92 108.825 325.277 108.846L342.736 109.894C343.089 109.915 343.42 110.083 343.644 110.356C343.868 110.629 343.97 110.986 343.923 111.336L340.969 133.204C340.88 133.865 340.288 134.349 339.622 134.305L325.814 133.392C325.674 133.382 325.541 133.351 325.417 133.301C324.961 133.117 324.641 132.678 324.624 132.16Z" fill="#4360F6"/>
<path d="M323.949 108.101C324.193 108.075 324.52 108.043 324.913 108.01C324.808 107.815 324.765 107.584 324.81 107.346L325.122 105.698C325.203 105.27 325.547 104.943 325.979 104.885C328.549 104.541 337.391 103.609 342.959 106.134C343.307 106.292 343.531 106.64 343.542 107.022L343.593 108.78C343.6 108.997 343.536 109.199 343.426 109.366C343.889 109.49 344.35 109.622 344.808 109.766C345.094 109.855 345.3 110.109 345.334 110.407L345.421 111.156C345.476 111.631 345.086 112.04 344.609 112.008L323.736 110.598C323.261 110.566 322.93 110.113 323.045 109.65L323.285 108.678C323.363 108.365 323.628 108.134 323.949 108.101Z" fill="#3F3D56"/>
</g>
<defs>
<clipPath id="clip0_118_289">
<rect width="408" height="295.198" fill="white" transform="translate(0 0.067627)"/>
</clipPath>
</defs>
</svg>
