<svg width="55" height="61" viewBox="0 0 55 61" fill="none" xmlns="http://www.w3.org/2000/svg">
<g clip-path="url(#clip0_118_285)">
<path d="M46.9792 0.484299C43.8167 0.484299 41.25 3.05097 41.25 6.21347V54.3385C41.25 57.501 43.8167 60.0676 46.9792 60.0676H49.2708C52.4333 60.0676 55 57.501 55 54.3385V6.21347C55 3.04791 52.4333 0.484299 49.2708 0.484299H46.9792ZM20.625 19.9635C20.625 16.7979 23.1917 14.2343 26.3542 14.2343H28.6458C31.8114 14.2343 34.375 16.801 34.375 19.9635V54.3385C34.375 57.501 31.8083 60.0676 28.6458 60.0676H26.3542C24.8347 60.0676 23.3775 59.464 22.303 58.3896C21.2286 57.3152 20.625 55.8579 20.625 54.3385V19.9635ZM0 33.7135C0 30.5479 2.56667 27.9843 5.72917 27.9843H8.02083C11.1864 27.9843 13.75 30.551 13.75 33.7135V54.3385C13.75 57.501 11.1833 60.0676 8.02083 60.0676H5.72917C4.2097 60.0676 2.75246 59.464 1.67803 58.3896C0.603607 57.3152 0 55.8579 0 54.3385V33.7135Z" fill="#4AD0CE"/>
</g>
<defs>
<clipPath id="clip0_118_285">
<rect width="55" height="59.5833" fill="white" transform="translate(0 0.484299)"/>
</clipPath>
</defs>
</svg>
