<svg width="456" height="475" viewBox="0 0 456 475" fill="none" xmlns="http://www.w3.org/2000/svg">
<g clip-path="url(#clip0_120_329)">
<path d="M405.08 361.407L405.071 361.621L415.773 474.797H337.673L327.55 405.287L323.094 473.014L242.891 472.123L251.41 383.205L258.655 341.989V341.98L259.742 335.778H402.95L403.137 338.023L405.08 361.407Z" fill="#2F2E41"/>
<path d="M198.683 427.015C206.954 428.522 215.579 419.207 217.947 406.209C218.984 400.519 218.649 395.067 217.252 390.609L218.52 383.116L239.804 282.319C239.804 282.319 278.997 203.92 278.996 190.309C278.995 176.699 267.658 170.024 267.658 170.024L252.318 170.168L204.211 287.663L195.547 374.487L194.146 386.399C191.266 390.078 189.03 395.062 187.994 400.752C185.625 413.75 190.411 425.508 198.683 427.015Z" fill="#FFB6B6"/>
<path d="M354.73 121.457L340.471 88.4846L294.132 96.5049L291.013 135.298L354.73 121.457Z" fill="#FFB6B6"/>
<path opacity="0.1" d="M354.73 121.457L340.471 88.4846L294.132 96.5049L291.013 135.298L354.73 121.457Z" fill="black"/>
<path d="M455.43 190.075C455.43 190.075 422.457 128.586 416.219 122.348C413.442 119.571 409.077 119.532 405.086 120.342L359.186 104.525L343.628 95.7837L342.603 112.414L291.527 121.582C291.81 111.44 293.241 107.582 293.241 107.582L274.527 129.477L237.99 147.3L238.01 147.461C235.329 148.397 232.787 149.998 230.861 152.647C223.731 162.45 204.126 281.863 204.126 281.863L246.01 290.775L251.71 255.005L255.813 287.21L258.932 347.363C258.932 347.363 315.965 396.376 343.591 378.553C371.216 360.73 405.08 361.621 405.08 361.621L405.925 333.739C406.526 332.778 406.862 332.213 406.862 332.213L405.971 233.31V206.992C412.76 216.451 420.953 224.585 430.478 228.395C461.668 240.871 455.43 190.075 455.43 190.075Z" fill="#E6E6E6"/>
<path d="M312.458 102.306C336.003 102.306 355.089 83.2196 355.089 59.6751C355.089 36.1306 336.003 17.0439 312.458 17.0439C288.914 17.0439 269.827 36.1306 269.827 59.6751C269.827 83.2196 288.914 102.306 312.458 102.306Z" fill="#FFB6B6"/>
<path d="M343.041 71.723C343.041 71.723 346.748 58.7483 355.089 59.675C363.43 60.6018 365.284 53.1877 363.43 49.4806C361.577 45.7736 357.869 27.2383 357.869 27.2383C357.869 27.2383 359.723 14.2636 348.602 12.4101C337.481 10.5566 333.774 8.70304 331.92 4.99598C330.067 1.28892 302.264 -2.41813 292.996 3.14246C283.728 8.70304 276.314 19.3718 269.827 22.3783C263.34 25.3848 257.779 30.9454 261.486 40.213C265.193 49.4806 270.569 67.6062 270.569 67.6062C270.569 67.6062 280.021 64.3089 281.875 69.8694C283.728 75.43 276.314 68.0159 285.582 53.1877C294.85 38.3595 294.85 23.5313 309.678 29.0918C324.506 34.6524 341.188 32.7989 339.334 43.9201C337.481 55.0412 343.041 71.723 343.041 71.723Z" fill="#2F2E41"/>
<path d="M340.435 409.686H16.6662C7.51008 409.686 0.0612793 402.236 0.0612793 393.081V221.096C0.0612793 211.94 7.51008 204.491 16.6662 204.491H340.435C349.591 204.491 357.039 211.94 357.039 221.096V393.081C357.039 402.236 349.591 409.686 340.435 409.686Z" fill="white"/>
<path d="M340.435 409.686H16.6662C7.51008 409.686 0.0612793 402.236 0.0612793 393.081V221.096C0.0612793 211.94 7.51008 204.491 16.6662 204.491H340.435C349.591 204.491 357.039 211.94 357.039 221.096V393.081C357.039 402.236 349.591 409.686 340.435 409.686ZM16.6662 207.264C9.03937 207.264 2.83418 213.469 2.83418 221.096V393.081C2.83418 400.708 9.03937 406.913 16.6662 406.913H340.435C348.061 406.913 354.267 400.708 354.267 393.081V221.096C354.267 213.469 348.061 207.264 340.435 207.264H16.6662Z" fill="#3F3D56"/>
<path d="M315.446 225.287C317.743 225.287 319.605 223.425 319.605 221.128C319.605 218.831 317.743 216.969 315.446 216.969C313.149 216.969 311.286 218.831 311.286 221.128C311.286 223.425 313.149 225.287 315.446 225.287Z" fill="#3F3D56"/>
<path d="M326.537 225.287C328.834 225.287 330.697 223.425 330.697 221.128C330.697 218.831 328.834 216.969 326.537 216.969C324.24 216.969 322.378 218.831 322.378 221.128C322.378 223.425 324.24 225.287 326.537 225.287Z" fill="#3F3D56"/>
<path d="M337.629 225.287C339.926 225.287 341.788 223.425 341.788 221.128C341.788 218.831 339.926 216.969 337.629 216.969C335.332 216.969 333.47 218.831 333.47 221.128C333.47 223.425 335.332 225.287 337.629 225.287Z" fill="#3F3D56"/>
<path d="M23.631 288.371C22.4842 288.371 21.5513 289.304 21.5513 290.451C21.5513 291.01 21.7672 291.527 22.1592 291.909C22.5546 292.314 23.0724 292.53 23.631 292.53H334.856C336.003 292.53 336.936 291.598 336.936 290.451C336.936 289.892 336.72 289.374 336.328 288.993C335.932 288.588 335.415 288.371 334.856 288.371H23.631Z" fill="#E6E6E6"/>
<path d="M296.036 287.678V293.224H23.6311C22.8685 293.224 22.1753 292.919 21.6762 292.406C21.1631 291.907 20.8582 291.213 20.8582 290.451C20.8582 288.926 22.106 287.678 23.6311 287.678H296.036Z" fill="#4360F6"/>
<path d="M331.39 277.28H303.661C300.603 277.28 298.115 274.792 298.115 271.734C298.115 268.675 300.603 266.188 303.661 266.188H331.39C334.448 266.188 336.936 268.675 336.936 271.734C336.936 274.792 334.448 277.28 331.39 277.28Z" fill="#E6E6E6"/>
<path d="M149.765 248.164H25.7106C22.6527 248.164 20.1648 245.677 20.1648 242.618C20.1648 239.56 22.6527 237.073 25.7106 237.073H149.765C152.823 237.073 155.31 239.56 155.31 242.618C155.31 245.677 152.823 248.164 149.765 248.164Z" fill="#E6E6E6"/>
<path d="M23.631 350.762C22.4842 350.762 21.5513 351.695 21.5513 352.841C21.5513 353.401 21.7672 353.918 22.1592 354.3C22.5546 354.704 23.0724 354.921 23.631 354.921H334.856C336.003 354.921 336.936 353.988 336.936 352.841C336.936 352.282 336.72 351.765 336.328 351.383C335.932 350.978 335.415 350.762 334.856 350.762H23.631Z" fill="#E6E6E6"/>
<path d="M189.279 350.068V355.614H23.6311C22.8685 355.614 22.1753 355.309 21.6762 354.796C21.1631 354.297 20.8582 353.604 20.8582 352.841C20.8582 351.316 22.106 350.068 23.6311 350.068H189.279Z" fill="#4360F6"/>
<path d="M331.39 339.67H303.661C300.603 339.67 298.115 337.183 298.115 334.124C298.115 331.065 300.603 328.578 303.661 328.578H331.39C334.448 328.578 336.936 331.065 336.936 334.124C336.936 337.183 334.448 339.67 331.39 339.67Z" fill="#E6E6E6"/>
<path d="M379.934 105.588C403.915 105.588 423.356 86.5565 423.356 63.0803C423.356 39.604 403.915 20.5728 379.934 20.5728C355.952 20.5728 336.511 39.604 336.511 63.0803C336.511 86.5565 355.952 105.588 379.934 105.588Z" fill="#6A33EB"/>
<path d="M394.671 41.6393C388.891 52.1656 383.11 62.6921 377.329 73.2185C373.644 66.7087 369.98 60.1874 366.287 53.6827C365.011 51.4362 361.542 53.4568 362.82 55.7089C367.102 63.2493 371.339 70.8148 375.621 78.3552C376.353 79.6445 378.362 79.6744 379.087 78.3552C385.437 66.792 391.788 55.2287 398.138 43.6655C399.382 41.3996 395.917 39.3717 394.671 41.6393Z" fill="white"/>
<path d="M439.877 175.125L396.614 154.429C396.614 154.429 394.876 140.578 386.763 135.637C385.384 132.346 383.797 128.731 382.355 125.867C378.791 118.783 384.138 105.416 379.682 105.416C375.226 105.416 368.64 119.474 368.988 123.239C369.256 126.129 371.644 131.175 372.138 135.591C366.704 137.64 362.321 141.153 359.439 143.949C356.945 146.37 356.019 149.98 356.993 153.316C359.818 162.982 366.878 182.946 377.009 182.946C390.376 182.946 393.94 180.273 393.94 180.273C393.94 180.273 421.566 215.027 442.062 217.701C462.559 220.374 439.877 175.125 439.877 175.125Z" fill="#FFB6B6"/>
</g>
<defs>
<clipPath id="clip0_120_329">
<rect width="455.878" height="474.49" fill="white" transform="translate(0.0612793 0.306885)"/>
</clipPath>
</defs>
</svg>
