<svg width="742" height="575" viewBox="0 0 742 575" fill="none" xmlns="http://www.w3.org/2000/svg">
<g clip-path="url(#clip0_120_334)">
<path d="M718.356 0H70.7364C64.7208 0.0072432 58.9538 2.40012 54.7001 6.65375C50.4465 10.9074 48.0536 16.6745 48.0464 22.69V417.31C48.0536 423.326 50.4465 429.093 54.7001 433.346C58.9538 437.6 64.7208 439.993 70.7364 440H718.356C724.372 439.993 730.139 437.6 734.393 433.346C738.646 429.093 741.039 423.326 741.046 417.31V22.69C741.039 16.6745 738.646 10.9074 734.393 6.65375C730.139 2.40012 724.372 0.00724584 718.356 0ZM739.046 417.31C739.046 420.027 738.511 422.717 737.471 425.228C736.432 427.738 734.908 430.019 732.986 431.94C731.065 433.861 728.784 435.385 726.274 436.425C723.764 437.465 721.073 438 718.356 438H70.7364C65.2491 438 59.9865 435.82 56.1063 431.94C52.2262 428.06 50.0464 422.797 50.0464 417.31V157.676C50.0464 137.232 54.0731 116.989 61.8965 98.1011C69.7199 79.2137 81.1869 62.0521 95.6427 47.5963C110.099 33.1405 127.26 21.6735 146.147 13.8501C165.035 6.02666 185.278 2 205.722 2H718.356C721.073 2 723.764 2.53516 726.274 3.57493C728.784 4.6147 731.065 6.13872 732.986 8.05996C734.908 9.9812 736.432 12.2621 737.471 14.7723C738.511 17.2825 739.046 19.9729 739.046 22.69V417.31Z" fill="#3F3D56"/>
<path d="M679.866 335.731H383.236C380.157 335.727 377.205 334.503 375.027 332.325C372.85 330.148 371.625 327.196 371.622 324.117V227.782C371.625 224.702 372.85 221.75 375.027 219.573C377.205 217.396 380.157 216.171 383.236 216.167H679.866C682.945 216.171 685.897 217.396 688.074 219.573C690.252 221.75 691.477 224.702 691.48 227.782V324.117C691.477 327.196 690.252 330.148 688.074 332.325C685.897 334.503 682.945 335.727 679.866 335.731Z" fill="#E6E6E6"/>
<path d="M217.349 63.7074C222.122 63.7074 225.991 59.752 225.991 54.8728C225.991 49.9937 222.122 46.0383 217.349 46.0383C212.576 46.0383 208.707 49.9937 208.707 54.8728C208.707 59.752 212.576 63.7074 217.349 63.7074Z" fill="#3F3D56"/>
<path d="M187.495 63.7074C192.268 63.7074 196.137 59.752 196.137 54.8728C196.137 49.9937 192.268 46.0383 187.495 46.0383C182.722 46.0383 178.853 49.9937 178.853 54.8728C178.853 59.752 182.722 63.7074 187.495 63.7074Z" fill="#3F3D56"/>
<path d="M157.641 63.7074C162.414 63.7074 166.283 59.752 166.283 54.8728C166.283 49.9937 162.414 46.0383 157.641 46.0383C152.868 46.0383 148.999 49.9937 148.999 54.8728C148.999 59.752 152.868 63.7074 157.641 63.7074Z" fill="#3F3D56"/>
<path d="M499.719 145.109H378.854C376.86 145.109 374.947 144.317 373.537 142.906C372.126 141.496 371.334 139.583 371.334 137.589C371.334 135.594 372.126 133.682 373.537 132.271C374.947 130.861 376.86 130.069 378.854 130.069H499.719C501.714 130.069 503.626 130.861 505.037 132.271C506.447 133.682 507.239 135.594 507.239 137.589C507.239 139.583 506.447 141.496 505.037 142.906C503.626 144.317 501.714 145.109 499.719 145.109Z" fill="#4AD0CE"/>
<path d="M594.043 170.561H378.854C376.86 170.561 374.947 169.769 373.537 168.359C372.126 166.948 371.334 165.035 371.334 163.041C371.334 161.047 372.126 159.134 373.537 157.724C374.947 156.313 376.86 155.521 378.854 155.521H594.043C596.037 155.521 597.95 156.313 599.36 157.724C600.771 159.134 601.563 161.047 601.563 163.041C601.563 165.035 600.771 166.948 599.36 168.359C597.95 169.769 596.037 170.561 594.043 170.561Z" fill="#E6E6E6"/>
<path d="M163.256 563.077L173.345 563.076L178.144 524.161L163.254 524.162L163.256 563.077Z" fill="#FFB6B6"/>
<path d="M162.901 573.602L193.926 573.601V573.208C193.926 570.006 192.653 566.934 190.389 564.67C188.124 562.405 185.053 561.133 181.85 561.133L176.182 556.833L165.609 561.133L162.9 561.134L162.901 573.602Z" fill="#2F2E41"/>
<path d="M104.936 563.077L115.025 563.076L119.824 524.161L104.934 524.162L104.936 563.077Z" fill="#FFB6B6"/>
<path d="M104.58 573.602L135.605 573.601V573.208C135.604 570.006 134.332 566.934 132.067 564.67C129.803 562.405 126.731 561.133 123.529 561.133L117.861 556.833L107.287 561.133L104.579 561.134L104.58 573.602Z" fill="#2F2E41"/>
<path d="M231.215 304.697L196.841 272.461L206.151 256.865L240.052 295.633C242.064 295.431 244.089 295.852 245.853 296.84C247.617 297.829 249.034 299.336 249.912 301.157C250.79 302.978 251.087 305.026 250.761 307.021C250.435 309.017 249.504 310.864 248.092 312.312C246.681 313.759 244.858 314.738 242.871 315.114C240.885 315.49 238.83 315.246 236.987 314.414C235.144 313.583 233.602 312.204 232.569 310.466C231.536 308.728 231.064 306.714 231.215 304.697Z" fill="#FFB6B6"/>
<path d="M95.0647 351.63C95.0647 351.63 90.7974 390.036 100.043 426.309L96.5609 443.843L104.311 544.373H123.122L136.316 378.656L160.946 544.373H180.704L178.279 453.336L186.83 365.854L183.257 345.94L95.0647 351.63Z" fill="#2F2E41"/>
<path d="M147.047 202H105.047L97.9834 219.958L99.6878 361.942C99.6878 361.942 182.902 361.942 188.592 356.253L170.811 294.375L164.41 215.429L147.047 202Z" fill="#6A33EB"/>
<path d="M170.1 214.717L199.972 246.723L210.64 253.835L213.485 263.081L201.394 283.707L187.881 278.728L183.614 263.081L158.538 242.581L155.875 209.739L170.1 214.717Z" fill="#2F2E41"/>
<path d="M143.131 203.016L148.046 224L154.808 298.998L164.054 355.897H190.728L174.722 294.02L168.321 214.362L146.984 201.56L143.131 203.016Z" fill="#2F2E41"/>
<path d="M108.875 203.016L116.402 227.164L128.493 306.822L110.001 363.72L92.0466 364L87.3746 346.349L97.9096 301.132L83.6846 214.362L105.022 201.56L108.875 203.016Z" fill="#2F2E41"/>
<path d="M124.416 194.889C138.476 194.889 149.873 183.491 149.873 169.431C149.873 155.371 138.476 143.973 124.416 143.973C110.355 143.973 98.9575 155.371 98.9575 169.431C98.9575 183.491 110.355 194.889 124.416 194.889Z" fill="#FFB6B6"/>
<path d="M109.729 182.033C109.729 182.033 108.506 183.888 110.867 191.757L100.043 183.068L98.859 173.525C98.859 173.525 93.3504 153.851 112.237 144.408C112.237 144.408 128.763 135.751 144.502 148.343C144.502 148.343 150.797 149.129 150.01 149.916C149.223 150.703 145.289 153.064 149.223 152.277C153.158 151.49 155.519 147.556 155.519 149.916C155.519 152.277 148.436 157.786 148.436 157.786C148.436 157.786 151.191 165.262 132.304 155.032C130.284 160.082 126.392 164.157 121.44 166.408L122.046 167L117.352 177.066C117.352 177.066 112.483 170.623 109.729 182.033Z" fill="#2F2E41"/>
<path d="M111.727 380.688L197.259 187.832C198.149 185.831 199.797 184.264 201.84 183.477C203.884 182.689 206.156 182.744 208.159 183.629L270.792 211.407C272.793 212.297 274.359 213.945 275.147 215.988C275.935 218.032 275.88 220.304 274.995 222.307L189.462 415.164C188.572 417.165 186.925 418.731 184.881 419.519C182.838 420.307 180.565 420.252 178.562 419.366L115.929 391.588C113.928 390.698 112.362 389.051 111.574 387.007C110.786 384.964 110.841 382.691 111.727 380.688Z" fill="white"/>
<path d="M111.727 380.688L197.259 187.832C198.149 185.831 199.797 184.264 201.84 183.477C203.884 182.689 206.156 182.744 208.159 183.629L270.792 211.407C272.793 212.297 274.359 213.945 275.147 215.988C275.935 218.032 275.88 220.304 274.995 222.307L189.462 415.164C188.572 417.165 186.925 418.731 184.881 419.519C182.838 420.307 180.565 420.252 178.562 419.366L115.929 391.588C113.928 390.698 112.362 389.051 111.574 387.007C110.786 384.964 110.841 382.691 111.727 380.688ZM273.666 221.718C274.395 220.068 274.441 218.195 273.792 216.511C273.142 214.827 271.852 213.47 270.203 212.736L207.57 184.958C205.919 184.228 204.047 184.183 202.363 184.832C200.679 185.481 199.321 186.772 198.588 188.421L113.056 381.278C112.326 382.928 112.281 384.801 112.93 386.485C113.579 388.169 114.869 389.526 116.518 390.26L179.152 418.038C180.802 418.767 182.675 418.813 184.358 418.163C186.042 417.514 187.4 416.224 188.133 414.575L273.666 221.718Z" fill="#3F3D56"/>
<path d="M205.222 301.831C222.898 301.831 237.227 287.502 237.227 269.826C237.227 252.15 222.898 237.82 205.222 237.82C187.546 237.82 173.216 252.15 173.216 269.826C173.216 287.502 187.546 301.831 205.222 301.831Z" fill="#CCCCCC"/>
<path d="M189.651 336.94C207.327 336.94 221.656 322.61 221.656 304.934C221.656 287.258 207.327 272.929 189.651 272.929C171.975 272.929 157.646 287.258 157.646 304.934C157.646 322.61 171.975 336.94 189.651 336.94Z" fill="#3F3D56"/>
<path d="M161.105 369.3C157.262 367.596 153.794 365.152 150.896 362.107C147.998 359.063 145.729 355.477 144.217 351.556C142.705 347.634 141.981 343.453 142.084 339.251C142.188 335.049 143.119 330.909 144.823 327.067C146.527 323.225 148.971 319.756 152.016 316.859C155.06 313.961 158.646 311.692 162.567 310.18C166.489 308.668 170.67 307.943 174.872 308.047C179.074 308.151 183.214 309.082 187.056 310.786C203.214 317.952 220.933 354.707 203.337 353.018C183.188 351.084 177.263 376.466 161.105 369.3Z" fill="#6A33EB"/>
<path d="M118.056 350.313L93.0464 288L113.046 292L129.737 345.435C131.668 346.037 133.366 347.218 134.602 348.818C135.838 350.418 136.552 352.36 136.646 354.38C136.74 356.399 136.211 358.399 135.13 360.108C134.048 361.816 132.467 363.151 130.602 363.93C128.736 364.709 126.676 364.895 124.7 364.463C122.725 364.031 120.931 363.002 119.561 361.515C118.19 360.028 117.311 358.155 117.042 356.151C116.773 354.147 117.127 352.109 118.056 350.313Z" fill="#FFB6B6"/>
<path d="M77.5613 229.563C76.1055 245.626 79.1208 259.73 84.5286 272.785L85.2231 284.397L90.7828 292.314L114.49 295.409L118.843 281.681L109.099 268.716L108.279 236.338L83.9677 214.097L77.5613 229.563Z" fill="#2F2E41"/>
<path d="M55.2023 556.983C54.7375 557.004 54.2774 556.882 53.8842 556.633C53.4911 556.384 53.1839 556.02 53.0044 555.591C52.8249 555.162 52.7817 554.688 52.8807 554.233C52.9796 553.778 53.216 553.365 53.5576 553.049L53.7131 552.431C53.6927 552.382 53.6721 552.332 53.6513 552.283C53.1831 551.177 52.3984 550.234 51.3959 549.572C50.3935 548.911 49.2178 548.56 48.0168 548.565C46.8157 548.569 45.6427 548.928 44.6452 549.597C43.6476 550.266 42.87 551.215 42.41 552.324C40.5714 556.753 38.2305 561.188 37.6542 565.87C37.4003 567.94 37.5074 570.038 37.9707 572.071C33.6523 562.651 31.4099 552.413 31.3955 542.05C31.3946 539.45 31.5391 536.851 31.8282 534.267C32.0672 532.149 32.3988 530.045 32.823 527.957C35.1375 516.626 40.1069 506.005 47.3231 496.967C50.8157 495.062 53.6402 492.131 55.4161 488.571C56.0594 487.291 56.5141 485.925 56.766 484.515C56.372 484.566 55.2804 478.566 55.5776 478.198C55.0285 477.365 54.0458 476.95 53.4461 476.137C50.4638 472.094 46.3549 472.8 44.2099 478.295C39.6277 480.607 39.5833 484.443 42.3949 488.131C44.1837 490.478 44.4295 493.654 45.999 496.166C45.8375 496.373 45.6696 496.573 45.5081 496.78C42.5564 500.575 39.9838 504.651 37.8271 508.948C38.3516 504.134 37.7256 499.264 36.0007 494.739C34.2525 490.522 30.9758 486.97 28.0903 483.324C27.3271 482.345 26.2906 481.613 25.112 481.223C23.9334 480.832 22.6654 480.8 21.4684 481.13C20.2715 481.46 19.1992 482.138 18.3872 483.077C17.5751 484.016 17.0598 485.175 16.9063 486.407C16.9003 486.461 16.8946 486.515 16.889 486.568C17.3176 486.81 17.7371 487.067 18.1476 487.338C18.6633 487.683 19.0629 488.175 19.294 488.751C19.5251 489.326 19.577 489.958 19.4428 490.564C19.3086 491.169 18.9947 491.72 18.5421 492.144C18.0895 492.568 17.5194 492.846 16.9064 492.94L16.8437 492.95C16.9964 494.494 17.2662 496.025 17.651 497.529C13.9492 511.845 21.9411 517.059 33.3525 517.293C33.6044 517.422 33.8499 517.552 34.1018 517.674C31.935 523.815 30.5758 530.211 30.0585 536.702C29.7656 540.532 29.7829 544.379 30.1102 548.205L30.0908 548.07C29.264 543.814 26.994 539.975 23.6642 537.199C18.7186 533.137 11.7314 531.641 6.39594 528.375C5.82891 528.011 5.1696 527.817 4.49575 527.815C3.82191 527.813 3.16165 528.005 2.59284 528.366C2.02404 528.727 1.57042 529.244 1.28549 529.854C1.00056 530.465 0.8962 531.144 0.984723 531.812L1.00654 531.955C1.80191 532.279 2.57631 532.652 3.32526 533.072C3.75385 533.314 4.17339 533.571 4.58389 533.842C5.09958 534.187 5.49917 534.679 5.7303 535.255C5.96142 535.83 6.01331 536.462 5.87916 537.067C5.745 537.673 5.43107 538.224 4.97849 538.648C4.52591 539.072 3.95579 539.349 3.34282 539.444L3.28 539.454C3.23481 539.46 3.196 539.467 3.15089 539.473C4.50987 542.718 6.41723 545.705 8.78944 548.302C11.1041 560.799 21.0454 561.985 31.6797 558.346H31.6862C32.8529 563.416 34.5435 568.351 36.7306 573.072H54.7508C54.8154 572.872 54.8735 572.665 54.9317 572.465C53.2637 572.57 51.5891 572.47 49.9454 572.168C51.2824 570.527 52.6194 568.874 53.9564 567.233C53.9862 567.203 54.0142 567.17 54.0404 567.136C54.7185 566.297 55.4032 565.464 56.0814 564.624L56.0817 564.623C56.1179 562.049 55.8219 559.481 55.2023 556.983Z" fill="#4AD0CE"/>
<path d="M256.754 573.126C256.754 573.282 256.724 573.437 256.664 573.581C256.604 573.726 256.517 573.857 256.406 573.968C256.295 574.079 256.164 574.166 256.019 574.226C255.875 574.286 255.72 574.316 255.563 574.315H2.2735C1.95789 574.315 1.65521 574.19 1.43204 573.967C1.20887 573.744 1.0835 573.441 1.0835 573.126C1.0835 572.81 1.20887 572.507 1.43204 572.284C1.65521 572.061 1.95789 571.936 2.2735 571.936H255.563C255.72 571.935 255.875 571.966 256.019 572.025C256.164 572.085 256.295 572.172 256.406 572.283C256.517 572.394 256.604 572.525 256.664 572.67C256.724 572.814 256.754 572.969 256.754 573.126Z" fill="#CCCCCC"/>
</g>
<defs>
<clipPath id="clip0_120_334">
<rect width="740.092" height="574.315" fill="white" transform="translate(0.954102)"/>
</clipPath>
</defs>
</svg>
