<svg width="956" height="511" viewBox="0 0 956 511" fill="none" xmlns="http://www.w3.org/2000/svg">
<g clip-path="url(#clip0_120_320)">
<path d="M410.043 60.5782H382.353C377.41 60.5782 373.388 56.5528 373.388 51.6055V8.97268C373.388 4.02543 377.41 0 382.353 0H410.043C414.986 0 419.008 4.02543 419.008 8.97268V51.6055C419.008 56.5527 414.986 60.5782 410.043 60.5782Z" fill="#E6E6E6"/>
<path d="M470.653 60.5782H442.962C438.019 60.5782 433.998 56.5528 433.998 51.6055V8.97268C433.998 4.02543 438.019 0 442.962 0H470.653C475.596 0 479.618 4.02543 479.618 8.97268V51.6055C479.618 56.5527 475.596 60.5782 470.653 60.5782Z" fill="#4AD0CE"/>
<path d="M535.237 60.5782H507.547C502.604 60.5782 498.582 56.5528 498.582 51.6055V8.97268C498.582 4.02543 502.604 0 507.547 0H535.237C540.18 0 544.202 4.02543 544.202 8.97268V51.6055C544.202 56.5527 540.18 60.5782 535.237 60.5782Z" fill="#E6E6E6"/>
<path d="M232.316 198.937C237.114 194.049 243.523 192.566 246.63 195.623C249.737 198.68 248.366 205.119 243.565 210.007C241.674 211.986 239.337 213.484 236.75 214.373L216.158 234.825L206.775 224.948L228.071 205.835C228.915 203.23 230.371 200.864 232.316 198.937Z" fill="#A0616A"/>
<path d="M166.46 182.055L188.05 229.995L222.527 211.317L234.865 217.871C234.865 217.871 206.682 265.031 187.384 259.663C168.087 254.294 133.819 205.615 139.994 190.592C146.168 175.568 166.46 182.055 166.46 182.055Z" fill="#6A33EB"/>
<path d="M768.576 21.4586H819.541L839.507 35.9474L787.451 38.8451L768.576 21.4586Z" fill="#E6E6E6"/>
<path d="M0 502.758C0 503.714 0.767258 504.482 1.7227 504.482H862.001C862.957 504.482 863.724 503.714 863.724 502.758C863.724 501.802 862.957 501.034 862.001 501.034H1.7227C0.767258 501.034 0 501.802 0 502.758Z" fill="#3F3D56"/>
<path d="M871.583 135.958L891.639 145.468C883.413 133.977 876.324 116.031 872.529 101.751C866.104 115.053 855.746 131.329 845.493 141.052L866.691 135.593C853.629 199.667 804.5 245.666 748.24 245.666L747.443 247.98C806.208 247.98 858.246 202.619 871.583 135.958Z" fill="#3F3D56"/>
<path d="M457.576 102.635L477.633 112.144C469.406 100.653 462.318 82.7072 458.523 68.4269C452.097 81.7291 441.739 98.0054 431.487 107.728L452.684 102.27C439.622 166.343 390.493 212.342 334.233 212.342L333.437 214.656C392.202 214.656 444.239 169.295 457.576 102.635Z" fill="#3F3D56"/>
<path d="M765.205 295.453C762.359 292.059 758.95 289.753 755.888 288.865L719.883 248.127C719.883 248.127 716.876 210.204 714.47 196.962C712.065 183.719 695.827 187.331 695.827 187.331L697.631 225.253L707.855 266.185L749.987 301.987C750.722 303.328 751.624 304.67 752.705 305.957C757.831 312.068 764.784 314.67 768.236 311.769C771.688 308.868 770.331 301.563 765.205 295.453Z" fill="#FFB6B6"/>
<path d="M592.251 295.453C595.098 292.059 598.507 289.753 601.568 288.865L637.574 248.127C637.574 248.127 640.581 210.204 642.987 196.962C645.392 183.719 661.63 187.331 661.63 187.331L659.826 225.253L649.602 266.185L607.47 301.987C606.734 303.328 605.832 304.67 604.752 305.957C599.626 312.068 592.673 314.67 589.221 311.769C585.769 308.868 587.126 301.563 592.251 295.453Z" fill="#FFB6B6"/>
<path d="M671.47 182.214L675.646 166.143L691.917 165.36L696.786 187.513L671.47 182.214Z" fill="#FFB6B6"/>
<path opacity="0.1" d="M671.47 182.214L675.646 166.143L691.917 165.36L696.786 187.513L671.47 182.214Z" fill="black"/>
<path d="M629.921 445.502L614.681 444.63L616.68 491.443L627.007 492.034L629.921 445.502Z" fill="#FFB6B6"/>
<path d="M615.36 476.642L620.651 479.058L620.644 482.268C620.644 482.268 621.921 478.552 628.774 477.742L629.592 480.855C629.592 480.855 632.249 483.908 631.794 489.431L630.049 504.221L624.881 504.101L624.047 493.81C624.047 493.81 622.623 491.475 616.065 502.572C616.065 502.572 608.842 504.394 597.655 500.64C596.118 500.124 595.05 498.687 595.07 497.064C595.081 496.169 595.431 495.341 596.553 495.044C599.409 494.288 602.198 495.246 604.043 492.965C605.887 490.683 615.36 476.642 615.36 476.642Z" fill="#2F2E41"/>
<path d="M711.712 445.502L696.472 444.63L698.471 491.443L708.798 492.034L711.712 445.502Z" fill="#FFB6B6"/>
<path d="M697.151 476.642L702.442 479.058L702.435 482.268C702.435 482.268 703.712 478.552 710.565 477.742L711.383 480.855C711.383 480.855 714.041 483.908 713.585 489.431L711.84 504.221L706.672 504.101L705.838 493.81C705.838 493.81 704.414 491.475 697.856 502.572C697.856 502.572 690.633 504.394 679.447 500.64C677.909 500.124 676.841 498.687 676.861 497.064C676.872 496.169 677.222 495.341 678.344 495.044C681.2 494.288 683.989 495.246 685.834 492.965C687.678 490.683 697.151 476.642 697.151 476.642Z" fill="#2F2E41"/>
<path d="M683.98 175.607C693.945 175.607 702.022 167.522 702.022 157.549C702.022 147.576 693.945 139.491 683.98 139.491C674.016 139.491 665.938 147.576 665.938 157.549C665.938 167.522 674.016 175.607 683.98 175.607Z" fill="#FFB6B6"/>
<path d="M694.212 160.551C694.212 160.551 686.279 147.56 678.339 148.994C670.398 150.427 666.259 151.722 666.259 151.722C666.259 151.722 663.025 141.364 673.881 136.395C673.881 136.395 658.518 123.52 674.892 115.258C691.266 106.995 701.455 115.003 701.455 115.003C701.455 115.003 715.007 126.507 699.981 137.153C699.981 137.153 712.986 151.98 699.851 166.143C699.851 166.143 702.17 155.358 699.015 157.569C695.861 159.78 694.212 160.551 694.212 160.551Z" fill="#2F2E41"/>
<path d="M696.128 183.418L671.47 180.408L652.526 195.758C652.526 195.758 643.104 222.033 650.12 237.894C650.288 238.274 650.421 264.68 650.421 264.68H702.809C702.809 264.68 702.759 246.707 704.76 240.197C705.046 239.267 705.374 238.571 705.75 238.195C708.757 235.185 715.974 215.923 712.365 207.496C708.757 199.068 696.128 183.418 696.128 183.418Z" fill="#E6E6E6"/>
<path d="M650.12 263.477L617.043 368.817L609.826 451.885H629.973L647.113 374.836L670.717 330.235L694.023 457.904H714.359L713.869 285.146L702.767 263.477H650.12Z" fill="#2F2E41"/>
<path d="M678.191 393.005C722.861 393.005 759.074 356.76 759.074 312.05C759.074 267.34 722.861 231.095 678.191 231.095C633.521 231.095 597.309 267.34 597.309 312.05C597.309 356.76 633.521 393.005 678.191 393.005Z" fill="#4360F6"/>
<path d="M156.993 501.555L172.736 501.554L180.225 440.776L156.99 440.778L156.993 501.555Z" fill="#A0616A"/>
<path d="M210.93 501.198C211.42 502.024 211.679 504.691 211.679 505.652C211.679 508.606 209.287 511 206.336 511H157.582C155.569 511 153.937 509.367 153.937 507.352V505.32C153.937 505.32 151.525 499.214 156.49 491.688C156.49 491.688 162.662 497.581 171.883 488.351L174.603 483.42L194.287 497.83L205.198 499.174C207.585 499.468 209.702 499.128 210.93 501.198Z" fill="#2F2E41"/>
<path d="M168.905 185.132L169.224 163.879L156.13 155.709L141.892 173.142L168.905 185.132Z" fill="#A0616A"/>
<path opacity="0.1" d="M168.906 185.132L169.753 164.409L156.13 155.709L160.758 181.355L168.906 185.132Z" fill="black"/>
<path d="M168.946 170.493C181.808 170.493 192.234 160.057 192.234 147.185C192.234 134.312 181.808 123.877 168.946 123.877C156.085 123.877 145.659 134.312 145.659 147.185C145.659 160.057 156.085 170.493 168.946 170.493Z" fill="#A0616A"/>
<path d="M200.705 325.664L179.012 473.415H151.795L155.414 389.075L157.319 344.729L151.795 323.62C151.795 323.62 149.277 318.928 147.155 313.24C144.764 306.822 142.875 299.127 145.679 295.478C146.711 294.133 149.393 293.138 153.039 292.396C155.266 291.941 157.859 291.586 160.658 291.311C176.753 289.717 199.647 290.712 199.647 290.712L200.229 309.936L200.552 320.67L200.705 325.664Z" fill="#2F2E41"/>
<path d="M129.261 494.329L144.837 496.62L161.079 437.579L138.091 434.198L129.261 494.329Z" fill="#A0616A"/>
<path d="M182.677 501.828C183.042 502.717 182.91 505.394 182.77 506.344C182.341 509.266 179.626 511.287 176.707 510.857L128.471 503.759C126.48 503.466 125.102 501.613 125.395 499.619L125.69 497.609C125.69 497.609 124.192 491.217 130.198 484.494C130.198 484.494 135.447 491.223 145.912 483.434L149.319 478.951L166.701 496.073L177.3 498.991C179.619 499.63 181.763 499.602 182.677 501.828Z" fill="#2F2E41"/>
<path d="M201.046 301.023L198.071 326.67L181.845 380.716L155.133 469.693L128.209 465.733L152.373 339.22L149.981 317.527C149.981 317.527 149.201 315.37 148.308 312.213C146.535 305.968 144.312 295.797 146.758 290.609C147.088 289.904 147.503 289.292 148.016 288.797C148.978 287.863 150.934 287.296 153.554 286.995C164.505 285.756 187.059 289.299 197.095 291.039L201.046 301.023Z" fill="#2F2E41"/>
<path d="M144.885 168.645L171.34 181.355C171.34 181.355 199.382 264.498 199.382 268.735C199.382 272.971 207.319 275.619 202.557 280.385C197.795 285.152 211.42 289.188 204.079 292.995C196.737 296.802 150.939 317.626 145.846 315.749C131.801 310.569 146.441 291.538 146.441 291.538C146.441 291.538 135.891 283.033 137.478 278.797C139.065 274.56 127.954 193.535 127.954 193.535L144.885 168.645Z" fill="#6A33EB"/>
<path d="M167.524 152.767L170.519 158.763C170.519 158.763 173.514 147.971 178.307 145.572C183.099 143.174 183.698 139.576 183.698 139.576C183.698 139.576 189.688 147.371 193.882 145.572C198.075 143.773 199.872 142.574 195.08 135.379C190.288 128.184 191.486 131.782 191.486 131.782C191.486 131.782 187.292 125.786 187.891 127.585C188.49 129.384 184.297 122.788 184.297 124.587C184.297 126.386 181.302 120.989 181.302 122.788C181.302 124.587 168.722 118.591 170.519 120.989C172.316 123.388 159.736 116.193 153.746 125.786C147.755 135.379 139.449 133.605 142.404 139.589C145.359 145.572 144.161 161.761 144.161 161.761H152.423C152.423 161.761 160.934 145.572 167.524 152.767Z" fill="#2F2E41"/>
<path d="M839.507 35.9474H790.29V85.2091H839.507V35.9474Z" fill="#E6E6E6"/>
<path d="M955.313 35.9474L955.313 85.2091H906.096C906.096 58.0208 928.149 35.9474 955.313 35.9474Z" fill="#E6E6E6"/>
<path d="M872.801 85.2092C885.593 85.2092 895.963 74.8302 895.963 62.0272C895.963 49.2241 885.593 38.8452 872.801 38.8452C860.01 38.8452 849.64 49.2241 849.64 62.0272C849.64 74.8302 860.01 85.2092 872.801 85.2092Z" fill="#4AD0CE"/>
<path d="M790.289 35.9474L768.576 21.4586V60.5782L790.289 85.209" fill="#F2F2F2"/>
<path d="M443.081 19.9498L470.309 19.1259C472.2 19.0687 472.381 16.108 470.473 16.1658L443.245 16.9896C441.354 17.0468 441.173 20.0075 443.081 19.9498Z" fill="white"/>
<path d="M443.081 29.8947L470.309 29.0708C472.2 29.0136 472.381 26.053 470.473 26.1107L443.245 26.9346C441.354 26.9918 441.173 29.9525 443.081 29.8947Z" fill="white"/>
<path d="M443.081 39.8397L470.309 39.0158C472.2 38.9586 472.381 35.9979 470.473 36.0556L443.245 36.8795C441.354 36.9367 441.173 39.8974 443.081 39.8397Z" fill="white"/>
<path d="M381.921 22.471C386.433 16.9705 394.598 22.4903 399.908 23.4224C403.014 23.9676 406.22 23.6798 408.843 21.7952C411.165 20.1265 412.831 17.6146 413.272 14.7699C413.563 12.8915 410.691 12.0822 410.398 13.9767C409.983 16.6523 408.335 18.9954 405.828 20.1074C402.803 21.4496 399.333 20.3685 396.389 19.343C391.141 17.5148 384.052 15.194 379.814 20.3613C378.606 21.8338 380.703 23.9565 381.921 22.471Z" fill="white"/>
<path d="M381.921 34.4048C386.433 28.9043 394.598 34.4241 399.908 35.3562C403.014 35.9014 406.22 35.6136 408.843 33.729C411.165 32.0603 412.831 29.5484 413.272 26.7037C413.563 24.8254 410.691 24.016 410.398 25.9106C409.983 28.5862 408.335 30.9292 405.828 32.0413C402.803 33.3834 399.333 32.3023 396.389 31.2769C391.141 29.4486 384.052 27.1278 379.814 32.2951C378.606 33.7677 380.703 35.8903 381.921 34.4048Z" fill="white"/>
<path d="M302.777 280.082H234.102C229.558 280.082 225.861 276.382 225.861 271.833V173.87C225.861 169.321 229.558 165.621 234.102 165.621H302.777C307.321 165.621 311.018 169.321 311.018 173.87V271.833C311.018 276.382 307.321 280.082 302.777 280.082Z" fill="#4360F6"/>
<path d="M509.643 12.8096C511.077 24.9647 511.543 37.2258 510.984 49.4535C510.898 51.3486 513.838 51.8534 513.926 49.9359C514.497 37.4372 514.074 24.9184 512.607 12.492C512.383 10.5887 509.417 10.8961 509.643 12.8096Z" fill="white"/>
<path d="M519.579 12.8096C521.013 24.9647 521.479 37.2258 520.92 49.4535C520.834 51.3486 523.774 51.8534 523.862 49.9359C524.433 37.4372 524.01 24.9184 522.543 12.492C522.319 10.5887 519.353 10.8961 519.579 12.8096Z" fill="white"/>
<path d="M529.515 12.8096C530.949 24.9647 531.415 37.2258 530.856 49.4535C530.77 51.3486 533.71 51.8534 533.798 49.9359C534.369 37.4372 533.946 24.9184 532.479 12.492C532.255 10.5887 529.289 10.8961 529.515 12.8096Z" fill="white"/>
<path d="M225.496 241.907C232.061 239.966 238.384 241.783 239.618 245.965C240.852 250.148 236.529 255.11 229.961 257.052C227.348 257.863 224.579 258.037 221.885 257.557L193.963 265.432L190.55 252.238L218.439 245.876C220.441 244.008 222.861 242.647 225.496 241.907Z" fill="#A0616A"/>
<path d="M176.109 195.149L171.732 247.552L210.933 247.974L218.541 259.699C218.541 259.699 171.027 287.235 156.76 273.165C142.493 259.095 136.145 199.887 148.83 189.752C161.515 179.618 176.109 195.149 176.109 195.149Z" fill="#6A33EB"/>
<path d="M241.39 202.967L295.075 201.343C298.803 201.23 299.161 195.392 295.399 195.506L241.714 197.131C237.986 197.244 237.628 203.081 241.39 202.967Z" fill="white"/>
<path d="M241.39 222.452L295.075 220.828C298.803 220.715 299.161 214.877 295.399 214.991L241.714 216.616C237.986 216.729 237.628 222.566 241.39 222.452Z" fill="white"/>
<path d="M241.39 241.937L295.075 240.312C298.803 240.2 299.161 234.362 295.399 234.476L241.714 236.1C237.986 236.213 237.628 242.051 241.39 241.937Z" fill="white"/>
</g>
<defs>
<clipPath id="clip0_120_320">
<rect width="955.313" height="511" fill="white"/>
</clipPath>
</defs>
</svg>
