<svg width="868" height="444" viewBox="0 0 868 444" fill="none" xmlns="http://www.w3.org/2000/svg">
<g clip-path="url(#clip0_118_275)">
<path d="M828.93 244.952L826.215 266.574L819.476 320.278H684.093C685.15 308.241 686.595 290.916 688.139 272.213C688.291 270.345 688.451 268.465 688.603 266.574C692.475 219.56 696.711 166.358 696.711 166.358L714.51 169.673L749.042 176.095L763.114 178.71L800.795 185.726C819.582 189.217 832.505 216.419 828.93 244.952Z" fill="#F2F2F2"/>
<path d="M726.525 79.3577L743.174 108.492L711.175 131.169L697.525 95.3577L726.525 79.3577Z" fill="#FFB6B6"/>
<path d="M705.33 106.92C728.109 106.92 746.574 88.4539 746.574 65.6755C746.574 42.897 728.109 24.4314 705.33 24.4314C682.552 24.4314 664.086 42.897 664.086 65.6755C664.086 88.4539 682.552 106.92 705.33 106.92Z" fill="#FFB6B6"/>
<path d="M702.369 74.8959C699.094 69.9117 700.379 67.3048 697.637 65.4731C697.637 65.473 696.534 64.736 688.638 64.3158C686.87 51.5919 684.663 50.0489 684.663 50.0488C682.12 48.2705 678.345 48.8483 675.997 49.936C671.03 52.2364 671.606 57.2054 668.262 58.1563C663.643 59.4699 655.238 52.0648 654.41 43.5874C653.735 36.6722 658.19 29.9559 659.957 30.3112C661.709 30.6635 665.904 25.3082 668.169 25.3908C669.716 25.4473 676.036 22.7003 677.736 22.9151C679.592 23.1497 685.714 26.3443 685.969 25.6144C687.742 20.5424 687.221 19.1352 688.725 17.6842C691.391 15.113 695.751 16.9035 702.591 17.8647C716.666 19.8425 719.122 15.2018 726.335 18.3473C729.978 19.9362 733.027 24.2215 738.976 32.7271C747.295 44.6221 751.455 50.5696 751.482 57.5065C751.509 64.5809 748.083 64.1318 746.578 74.6049C744.903 86.2631 748.462 91.5939 744.574 95.3815C741.569 98.3088 735.461 99.0036 732.252 96.4345C726.758 92.0359 733.948 81.4222 727.868 73.6678C724.136 68.9078 716.63 66.7899 713.192 69.1428C709.304 71.8032 711.446 79.612 708.712 80.3526C706.371 80.9867 702.939 75.7645 702.369 74.8959Z" fill="#2F2E41"/>
<path d="M798.445 237.338C797.295 257.007 792.725 263.217 791.125 286.447C790.775 291.547 790.565 297.467 790.565 304.527C790.565 306.327 790.575 308.068 790.575 309.768C790.575 313.387 790.506 316.808 790.085 320.277C789.765 323.047 789.216 325.838 788.305 328.777H699.475C699.466 328.757 699.466 328.737 699.455 328.717C698.935 326.458 698.605 324.297 698.355 322.228C698.275 321.568 698.205 320.918 698.145 320.277C698.065 319.527 697.995 318.788 697.926 318.058C697.655 315.148 697.385 312.398 696.745 309.768C695.885 306.137 694.325 302.717 691.125 299.418C689.815 298.068 688.506 297.018 687.225 296.098C686.975 295.927 686.735 295.757 686.485 295.588C682.945 293.157 679.595 291.407 676.695 286.447C676.645 286.378 676.605 286.297 676.565 286.228C676.065 285.358 674.765 283.077 673.825 280.038C672.835 276.878 672.235 272.907 673.315 268.848C675.885 259.228 685.405 258.268 693.185 248.547C694.025 247.498 694.855 246.338 695.645 245.047C699.165 239.327 700.115 234.288 701.235 228.297C701.415 227.327 701.575 226.367 701.705 225.438C701.805 224.737 701.895 224.047 701.966 223.367C702.585 217.657 702.285 212.737 701.555 208.338C699.176 193.927 692.155 185.007 697.115 172.077C698.676 168.018 700.885 164.967 703.115 162.358C707.835 156.827 712.685 153.237 711.845 146.098C710.995 138.898 705.535 137.907 704.926 131.617C704.615 128.438 705.655 125.088 707.605 121.797V121.788C713.845 111.197 729.426 101.447 739.325 101.757C741.155 101.808 742.775 102.217 744.125 103.007C749.015 105.887 746.975 112.177 754.466 120.998C760.035 127.547 766.335 130.168 768.725 131.407C778.195 136.348 785.895 150.918 791.125 169.547C791.165 169.688 791.205 169.827 791.245 169.978C794.475 181.648 796.756 194.898 797.885 208.338C798.365 214.027 798.645 219.748 798.705 225.407C798.756 229.927 798.655 233.848 798.445 237.338Z" fill="#6A33EB"/>
<path d="M731.926 304.728L730.115 309.768L728.975 312.928L726.335 320.278L723.275 328.778H703.605L706.905 320.278L708.435 316.318L710.975 309.768L715.235 298.768L731.926 304.728Z" fill="#FFB6B6"/>
<path d="M791.435 167.827C791.386 168.478 791.315 169.198 791.245 169.978C790.466 177.918 788.625 192.128 785.935 208.338C784.515 216.888 782.855 225.998 780.985 235.048C776.966 254.577 771.966 273.808 766.315 286.448C765.305 288.728 764.265 290.788 763.205 292.608C762.395 293.998 761.545 295.368 760.655 296.718C757.775 301.148 754.545 305.348 751.195 309.268C751.065 309.438 750.915 309.598 750.765 309.768C750.225 310.408 749.665 311.038 749.105 311.668C746.365 314.758 743.565 317.638 740.855 320.278C737.555 323.498 734.375 326.348 731.525 328.778H699.585L699.455 328.718L694.855 326.678C694.855 326.678 696.165 325.138 698.355 322.228C698.805 321.638 699.285 320.988 699.805 320.278C700.445 319.408 701.135 318.448 701.875 317.408C703.415 315.228 705.165 312.668 707.045 309.768C710.685 304.158 714.835 297.258 719.025 289.268C719.506 288.338 719.995 287.398 720.485 286.448C720.495 286.418 720.515 286.387 720.525 286.358C721.355 284.738 722.176 283.068 722.995 281.368C729.945 266.908 731.935 254.908 732.506 251.018C733.305 245.518 734.415 237.827 734.115 229.367C733.915 223.788 733.105 217.888 731.176 212.028V212.018C730.775 210.788 730.325 209.558 729.815 208.338C728.905 206.148 727.825 203.988 726.545 201.858C720.895 192.478 716.305 192.088 712.655 181.867C711.575 178.838 709.125 171.998 709.875 164.778V164.768C709.966 163.878 710.115 162.978 710.315 162.077V162.068C710.365 161.818 710.435 161.558 710.506 161.308C711.075 159.098 712.015 156.908 713.445 154.827C716.235 150.788 720.045 148.388 723.455 146.958L723.466 146.948C727.405 145.308 730.805 144.958 731.466 144.898C746.075 143.598 757.405 155.878 763.595 162.588C765.985 165.178 768.176 167.348 770.176 169.117C785.745 183.018 790.015 174.138 791.125 169.548C791.295 168.838 791.385 168.228 791.435 167.827Z" fill="#6A33EB"/>
<path d="M791.485 167.308C791.485 167.358 791.475 167.528 791.435 167.808C791.455 167.658 791.466 167.508 791.475 167.368C791.475 167.338 791.475 167.318 791.485 167.308Z" fill="#6A33EB"/>
<path d="M712.065 378.318H176.015C171.035 378.318 166.975 382.367 166.975 387.348C166.975 392.338 171.035 396.387 176.015 396.387H712.065C717.045 396.387 721.095 392.338 721.095 387.348C721.095 382.367 717.045 378.318 712.065 378.318Z" fill="#E6E6E6"/>
<path d="M593.105 424.998H294.965C289.985 424.998 285.935 429.048 285.935 434.028C285.935 439.008 289.985 443.068 294.965 443.068H593.105C598.085 443.068 602.145 439.008 602.145 434.028C602.145 429.048 598.085 424.998 593.105 424.998Z" fill="#E6E6E6"/>
<path d="M235.664 81.2749L269.448 67.0571L283.938 96.7626L248.437 111.253L235.664 81.2749Z" fill="#FFB6B6"/>
<path opacity="0.1" d="M235.664 81.2749L269.448 67.0571L283.938 96.7626L248.437 111.253L235.664 81.2749Z" fill="black"/>
<path d="M240.467 69.9552L273.795 108.355C273.795 108.355 250.61 181.532 227.426 188.053C204.241 194.573 161.494 226.452 161.494 226.452L107.879 191.675L133.962 153.275C133.962 153.275 196.996 67.0571 213.66 67.0571C230.324 67.0571 240.467 69.9552 240.467 69.9552Z" fill="#6A33EB"/>
<path d="M195.438 320.278H117.856L112.951 313.721L92.9251 286.95L88.3171 280.791C88.3171 280.791 70.9286 248.912 74.5512 219.931C78.1738 190.95 115.849 184.43 115.849 184.43H117.4L163.523 224.959L160.769 262.678L175.376 286.95L195.438 320.278Z" fill="#2F2E41"/>
<path d="M133.745 320.278H112.951V289.486L133.745 320.278Z" fill="#2F2E41"/>
<path d="M582.239 273.532L579.653 286.95L573.234 320.278H444.276C445.283 312.808 446.659 302.056 448.13 290.449C448.275 289.29 448.427 288.124 448.572 286.95C452.26 257.773 456.295 224.757 456.295 224.757L473.249 226.815L506.143 230.799L519.546 232.422L555.439 236.777C573.335 238.943 585.645 255.824 582.239 273.532Z" fill="#F2F2F2"/>
<path d="M764.739 320.278H694.794C695.859 319.025 696.46 318.3 696.46 318.3L717.428 314.837L760.631 307.708C760.631 307.708 762.602 312.801 764.739 320.278Z" fill="#2F2E41"/>
<path d="M468.05 95.7664L498.468 138.784L445.409 140.369L439.714 99.9421L468.05 95.7664Z" fill="#A0616A"/>
<path opacity="0.1" d="M468.05 95.7664L498.468 138.784L445.409 140.369L439.714 99.9421L468.05 95.7664Z" fill="black"/>
<path d="M318.041 184.896C314.138 173.637 305.165 166.525 298 169.01C290.835 171.495 288.192 182.635 292.098 193.898C293.597 198.418 296.156 202.514 299.562 205.842L316.702 253.339L338.819 244.821L319.574 198.902C320.189 194.178 319.663 189.375 318.041 184.896Z" fill="#A0616A"/>
<path d="M523.942 162.977L523.901 206.817L519.822 223.011L511.432 256.317L505.324 286.95L500.774 309.772L499.151 317.923C497.926 318.742 496.709 319.524 495.492 320.278H389.516C383.495 316.663 380.126 313.851 380.126 313.851C380.126 313.851 381.793 312.286 383.698 309.772C386.915 305.527 390.806 298.571 388.422 291.927C387.922 290.536 387.792 288.841 387.944 286.95C388.915 274.474 402 253.375 402 253.375L399.29 222.061L398.102 208.339L406.479 141.429L433.787 125.555L438.501 125.099L485.037 122.584L504.272 123.693L505.148 123.932L523.942 162.977Z" fill="#CCCCCC"/>
<path d="M526.009 320.278H502.824L501.803 309.772L501.781 309.562L508.345 309.113L525.422 307.947L525.719 314.235L525.951 319.061L526.009 320.278Z" fill="#FFB6B6"/>
<path d="M531.716 173.577L541.456 230.72L533.508 286.95L532.269 295.702L530.081 311.156L529.407 315.909L529.429 316.424L529.595 320.278H502.064L501.049 309.772L500.962 308.831L498.89 287.312L498.854 286.95L494.456 241.319L503.078 208.339L503.715 205.912V205.905L507.467 149.435L504.561 123.773L504.532 123.534C504.59 123.57 504.641 123.606 504.699 123.642C504.851 123.737 505.003 123.831 505.148 123.932C522.073 134.67 532.159 153.507 531.716 173.577Z" fill="#CCCCCC"/>
<path d="M416.343 152.379L405.755 141.428C405.755 141.428 383.091 151.646 381.961 157.314C380.831 162.983 340.815 246.24 340.815 246.24L323.405 199.741L300.743 214.872C300.743 214.872 318.927 287.063 335.933 290.453C352.939 293.842 409.934 205.007 409.934 205.007L416.343 152.379Z" fill="#CCCCCC"/>
<path d="M846.235 286.448H21.7551C10.0852 286.448 0.594971 295.948 0.594971 307.617C0.594971 319.287 10.0852 328.778 21.7551 328.778H846.235C857.905 328.778 867.405 319.288 867.405 307.617C867.405 295.947 857.905 286.448 846.235 286.448Z" fill="#E6E6E6"/>
<path d="M519.117 221.94L517.514 296.742C517.359 303.983 511.445 309.772 504.202 309.772H366.599C359.528 309.772 353.69 304.245 353.304 297.184L349.214 222.381C348.797 214.753 354.87 208.339 362.51 208.339H505.805C513.27 208.339 519.277 214.476 519.117 221.94Z" fill="#3F3D56"/>
<path d="M296.98 99.3314C315.162 99.3314 329.901 84.5918 329.901 66.4096C329.901 48.2274 315.162 33.4878 296.98 33.4878C278.797 33.4878 264.058 48.2274 264.058 66.4096C264.058 84.5918 278.797 99.3314 296.98 99.3314Z" fill="#FFB6B6"/>
<path d="M241.916 152.551L245.539 191.675L270.172 290.935L248.891 298.394L212.935 190.226L207.969 146.755L241.916 152.551Z" fill="#FFB6B6"/>
<path d="M232.117 221.94L230.514 296.742C230.359 303.983 224.445 309.772 217.202 309.772H79.5992C72.5277 309.772 66.6897 304.245 66.3037 297.184L62.2144 222.381C61.7973 214.753 67.8704 208.339 75.5099 208.339H218.805C226.27 208.339 232.277 214.476 232.117 221.94Z" fill="#3F3D56"/>
<path d="M274.095 310.278C288.454 310.278 300.095 305.129 300.095 298.778C300.095 292.427 288.454 287.278 274.095 287.278C259.736 287.278 248.095 292.427 248.095 298.778C248.095 305.129 259.736 310.278 274.095 310.278Z" fill="#FFB6B6"/>
<path d="M190.837 158.532L205.69 79.3739C205.69 79.3739 246.988 73.5777 248.437 87.3436C249.886 101.11 247.401 168.386 247.401 168.386L190.837 158.532Z" fill="#6A33EB"/>
<path d="M283.69 71.5859C283.69 71.5859 304.055 64.3176 312.646 60.4068C321.237 56.4961 338.303 83.7732 338.683 69.3673C339.062 54.9613 333.165 48.9201 333.165 48.9201C333.165 48.9201 331.693 17.405 299.942 21.3451C299.942 21.3451 306.926 5.5778 284.001 3.13967C261.077 0.701545 225.412 56.0606 228.606 64.3338C231.8 72.6069 235.629 79.4466 226.567 88.2924C217.505 97.1382 200.537 147.062 213.447 160.496C226.357 173.93 227.204 179.759 218.359 188.117C209.513 196.474 188.605 214.647 211.212 217.802C233.819 220.957 209.143 218.6 225.997 203.776C242.851 188.951 267.445 189.556 258.262 165.771C249.079 141.986 265.033 107.902 263.037 102.731C261.04 97.5605 267.509 64.7262 267.509 64.7262C267.509 64.7262 282.564 62.5143 283.69 71.5859Z" fill="#2F2E41"/>
<path d="M451.786 111.337C471.579 111.337 487.624 95.2914 487.624 75.4988C487.624 55.7061 471.579 39.661 451.786 39.661C431.993 39.661 415.948 55.7061 415.948 75.4988C415.948 95.2914 431.993 111.337 451.786 111.337Z" fill="#A0616A"/>
<path d="M454.646 27.3174C453.609 27.9228 452.22 27.0069 451.888 25.8531C451.555 24.6993 451.942 23.4743 452.326 22.3366L454.26 16.6095C455.632 12.5476 457.087 8.34387 460.057 5.25229C464.54 0.586053 471.664 -0.601016 478.077 0.258974C486.313 1.36337 494.439 5.82302 498.269 13.1976C502.098 20.5723 500.468 30.8625 493.548 35.4635C503.41 46.7669 506.848 59.3641 506.305 74.355C505.762 89.346 489.426 103.143 478.772 113.703C476.393 112.261 474.23 105.502 475.539 103.047C476.847 100.592 474.972 97.747 476.593 95.4854C478.213 93.2238 479.569 96.8249 477.93 94.5762C476.897 93.1572 480.931 89.8926 479.395 89.0433C471.963 84.9354 469.491 75.6722 464.824 68.5787C459.194 60.0226 449.558 54.2283 439.361 53.267C433.744 52.7375 427.811 53.6966 423.207 56.9576C418.603 60.2187 415.622 66.0462 416.69 71.5863C413.925 68.7787 412.548 64.6643 413.067 60.7581C413.587 56.8518 415.99 53.2397 419.392 51.2518C417.323 44.4104 419.096 36.5407 423.898 31.2466C428.699 25.9525 448.178 26.8542 455.188 28.2475L454.646 27.3174Z" fill="#2F2E41"/>
<path d="M455.735 53.4747C465.02 54.477 471.724 62.5198 477.384 69.9473C480.647 74.2283 484.065 78.956 483.983 84.338C483.9 89.7794 480.262 94.4466 478.523 99.6034C475.681 108.032 478.451 118.061 485.217 123.836C478.532 125.105 471.305 120.093 470.151 113.387C468.808 105.581 474.725 98.047 474.024 90.1573C473.407 83.2063 467.929 77.8568 463.273 72.6596C458.616 67.4624 454.242 60.5658 456.385 53.9245L455.735 53.4747Z" fill="#2F2E41"/>
<path d="M594.542 290.977C585.346 296.208 580.59 305.194 583.92 311.046C587.25 316.898 597.403 317.401 606.602 312.167C610.306 310.126 613.467 307.229 615.821 303.716L654.508 281.061L643.489 263.132L606.52 287.37C602.297 287.599 598.19 288.836 594.542 290.977Z" fill="#FFB6B6"/>
<path d="M725.53 124.841C724.374 124.383 714.229 120.541 704.968 125.613C694.33 131.439 692.687 144.739 692.111 149.404C690.779 160.18 694.701 162.596 695.529 173.505C697.078 193.915 701.163 170.631 694.64 179.947C692.382 183.172 669.323 233.146 656.605 242.934C631.872 261.971 616.166 275.378 616.166 275.378L634.096 294.856C634.096 294.856 662.43 287.306 687.473 271.045C713.161 254.365 726.005 246.026 735.942 229.71C736.798 228.305 757.273 193.534 746.277 155.086C743.769 146.316 739.173 130.247 725.53 124.841Z" fill="#6A33EB"/>
<path d="M818.117 221.94L816.514 296.742C816.359 303.983 810.445 309.772 803.202 309.772H665.599C658.528 309.772 652.69 304.245 652.304 297.184L648.214 222.381C647.797 214.753 653.87 208.339 661.51 208.339H804.805C812.27 208.339 818.277 214.476 818.117 221.94Z" fill="#3F3D56"/>
</g>
<defs>
<clipPath id="clip0_118_275">
<rect width="866.81" height="443.068" fill="white" transform="translate(0.594971)"/>
</clipPath>
</defs>
</svg>
