<svg width="922" height="615" viewBox="0 0 922 615" fill="none" xmlns="http://www.w3.org/2000/svg">
<g clip-path="url(#clip0_120_315)">
<path d="M438.211 313.938H397.812L400.92 280.79H433.032L438.211 313.938Z" fill="#A0616A"/>
<path opacity="0.1" d="M438.211 313.938H397.812L400.92 280.79H433.032L438.211 313.938Z" fill="black"/>
<path d="M136.15 189.674C154.421 189.674 169.233 174.863 169.233 156.592C169.233 138.321 154.421 123.509 136.15 123.509C117.879 123.509 103.068 138.321 103.068 156.592C103.068 174.863 117.879 189.674 136.15 189.674Z" fill="#4AD0CE"/>
<path d="M285.303 588.585C285.491 590.167 285.544 591.641 285.437 593.088H205.869C205.146 591.641 204.529 590.14 203.993 588.585C194.265 560.633 210.264 514.109 189.977 445.128C174.916 393.94 146.803 353.902 133.698 335.249C117.591 312.309 99.341 291.137 78.1962 257.316C73.6135 250 68.8968 242.067 64.0193 233.411C62.3845 230.517 43.5444 196.937 45.2596 195.892C46.0635 195.41 51.0482 202.19 52.7366 204.468C67.6371 224.621 76.2935 233.438 88.7017 247.937C96.2324 256.727 105.13 267.581 117.618 284.33C149.644 327.236 165.643 348.676 171.217 364.729C172.691 369.017 180.544 392.225 195.337 421.008C202.894 435.694 206.673 443.037 208.737 442.448C214.579 440.759 206.7 379.951 181.937 319.17C177.703 308.825 174.541 302.206 168.537 289.69C158.782 269.269 104.46 155.773 64.5285 87.8362C59.517 79.2871 54.7199 71.4884 50.2979 64.6545C49.4403 63.3682 48.6095 62.1086 47.8056 60.9027C42.2312 52.5948 37.3002 46.0288 33.1998 41.7946C31.029 39.5434 25.5084 33.1651 14.4401 20.355C10.045 15.263 6.829 11.4844 4.65824 8.72395C4.33666 8.32206 4.0419 7.92 3.8008 7.5716C1.17434 4.14133 0.424032 2.47962 1.04037 1.59535C1.9248 0.33569 5.32823 1.05932 9.0534 2.37248C9.45546 2.50645 9.88419 2.66723 10.2862 2.82802C14.333 4.32879 18.4332 6.28526 19.8 6.95526C32.3422 12.9851 44.5896 23.7853 55.9257 36.6223C60.1333 41.3658 64.18 46.3772 68.0928 51.5229C80.6885 68.1385 91.6764 86.2281 99.9842 101.102C110.168 119.433 116.278 132.913 116.278 132.913C144.713 195.704 176.256 267.527 177.917 266.911C179.74 266.241 144.766 176.838 134.582 128.277C131.179 112.009 130.563 100.325 135.038 98.0737C135.199 97.9932 135.36 97.9129 135.547 97.8592C136.244 97.618 136.887 97.6448 137.236 97.6716C137.236 97.6716 141.389 97.1356 145.758 98.0737C151.198 99.2528 157.389 114.394 163.419 135.646C179.096 190.425 193.997 285.67 193.997 285.67C208.897 380.943 231.516 458.045 236.876 457.187C239.851 456.705 235.59 432.773 239.556 392.868C242.343 364.89 245.506 365.747 255.636 315.15C271.716 234.885 279.755 194.766 279.755 194.552C279.675 192.864 279.461 189.46 279.97 185.922C280.506 182.09 281.873 178.07 285.115 175.792C290.047 172.308 297.979 173.809 301.195 175.792C303.768 177.4 305.081 180.348 305.376 184.582C307.145 211.221 268.875 288.457 255.636 392.868C249.043 444.886 245.425 473.267 255.636 510.786C265.739 547.984 283.347 571.675 285.303 588.585Z" fill="#4360F6"/>
<path d="M636.697 588.585C636.509 590.167 636.455 591.641 636.563 593.088H716.13C716.854 591.641 717.47 590.14 718.006 588.585C727.735 560.633 711.735 514.109 732.023 445.128C747.084 393.94 775.197 353.902 788.302 335.249C804.408 312.309 822.659 291.137 843.803 257.316C848.386 250 853.103 242.067 857.98 233.411C859.615 230.517 878.455 196.937 876.74 195.892C875.936 195.41 870.951 202.19 869.263 204.468C854.362 224.621 845.706 233.438 833.298 247.937C825.767 256.727 816.87 267.581 804.381 284.33C772.356 327.236 756.357 348.676 750.782 364.729C749.308 369.017 741.456 392.225 726.663 421.008C719.105 435.694 715.326 443.037 713.263 442.448C707.421 440.759 715.3 379.951 740.062 319.17C744.297 308.825 747.459 302.206 753.462 289.69C763.217 269.269 817.54 155.773 857.471 87.8362C862.483 79.2872 867.28 71.4884 871.702 64.6546C872.559 63.3682 873.39 62.1086 874.194 60.9027C879.768 52.5948 884.699 46.0289 888.8 41.7946C890.97 39.5434 896.491 33.1651 907.559 20.355C911.955 15.263 915.171 11.4844 917.341 8.72395C917.663 8.32206 917.958 7.92 918.199 7.57159C920.825 4.14134 921.576 2.47962 920.959 1.59535C920.075 0.335688 916.671 1.05933 912.946 2.37248C912.544 2.50644 912.115 2.66723 911.713 2.82802C907.667 4.32879 903.566 6.28526 902.2 6.95525C889.657 12.9851 877.41 23.7853 866.074 36.6223C861.866 41.3658 857.82 46.3772 853.907 51.5229C841.311 68.1385 830.323 86.2281 822.015 101.102C811.832 119.433 805.721 132.913 805.721 132.913C777.287 195.704 745.744 267.527 744.082 266.911C742.26 266.241 777.233 176.838 787.417 128.277C790.821 112.009 791.437 100.325 786.962 98.0737C786.801 97.9932 786.64 97.9129 786.452 97.8592C785.756 97.618 785.112 97.6448 784.764 97.6716C784.764 97.6716 780.61 97.1356 776.242 98.0737C770.801 99.2528 764.611 114.394 758.581 135.646C742.903 190.425 728.003 285.67 728.003 285.67C713.102 380.943 690.483 458.045 685.123 457.187C682.149 456.705 686.41 432.773 682.443 392.868C679.656 364.89 676.494 365.747 666.364 315.15C650.284 234.885 642.244 194.766 642.244 194.552C642.325 192.864 642.539 189.46 642.03 185.922C641.494 182.09 640.127 178.07 636.884 175.792C631.953 172.308 624.02 173.809 620.804 175.792C618.232 177.4 616.919 180.348 616.624 184.582C614.855 211.221 653.125 288.457 666.364 392.868C672.956 444.886 676.574 473.267 666.364 510.786C656.26 547.984 638.653 571.675 636.697 588.585Z" fill="#6A33EB"/>
<path d="M380.242 554.795L387.032 585.262L408.288 582.31L402.384 551.016L380.242 554.795Z" fill="#A0616A"/>
<path d="M494.2 554.795L487.41 585.262L466.153 582.31L472.058 551.016L494.2 554.795Z" fill="#A0616A"/>
<path d="M534.401 484.804L496.144 368.27C487.585 342.2 463.25 324.576 435.811 324.576C405.291 324.576 379.087 346.288 373.416 376.277L352.258 488.16C349.229 504.181 361.171 519.026 377.289 519.689V596.185H383.193V519.721H507.189V596.185H513.094V519.418C529.046 517.054 539.627 500.724 534.401 484.804Z" fill="#CCCCCC"/>
<path d="M455.229 405.468L383.194 407.83C383.194 407.83 356.033 456.247 403.86 462.742C451.687 469.237 493.609 462.152 495.38 441.486C497.152 420.82 482.39 404.878 455.229 405.468Z" fill="#2F2E41"/>
<path d="M396.774 410.782C396.774 410.782 369.613 413.735 367.252 421.411C364.89 429.086 363.709 462.742 363.709 462.742L374.337 560.168L404.45 556.625L397.955 463.333L432.792 455.657L396.774 410.782Z" fill="#2F2E41"/>
<path d="M390.87 571.386C390.87 571.386 381.934 565.482 379.612 568.139C377.289 570.796 364.89 583.786 364.89 583.786L343.043 597.366C343.043 597.366 324.148 615.08 350.719 614.49C377.289 613.899 390.87 605.9 390.87 605.9C390.87 605.9 416.259 605.633 415.669 598.547C415.078 591.462 406.511 572.891 406.511 572.891L390.87 571.386Z" fill="#2F2E41"/>
<path d="M477.667 410.782C477.667 410.782 504.828 413.735 507.19 421.411C509.552 429.086 510.733 462.742 510.733 462.742L500.104 560.168L469.991 556.625L476.486 463.333L441.649 455.657L477.667 410.782Z" fill="#2F2E41"/>
<path d="M483.571 571.386C483.571 571.386 492.507 565.482 494.829 568.139C497.151 570.796 509.551 583.786 509.551 583.786L531.398 597.366C531.398 597.366 550.293 615.08 523.722 614.49C497.152 613.899 483.571 605.9 483.571 605.9C483.571 605.9 458.181 605.633 458.772 598.547C459.362 591.462 467.93 572.891 467.93 572.891L483.571 571.386Z" fill="#2F2E41"/>
<path d="M433.973 296.824H399.696L373.747 308.633L379.651 386.574C379.651 386.574 372.291 410.269 381.285 411.707C390.279 413.144 439.878 422.001 453.458 414.325C467.039 406.649 478.848 409.011 478.848 409.011L462.905 305.681L433.973 296.824Z" fill="#3F3D56"/>
<path d="M417.735 293.577C435.345 293.577 449.62 279.301 449.62 261.692C449.62 244.083 435.345 229.807 417.735 229.807C400.126 229.807 385.851 244.083 385.851 261.692C385.851 279.301 400.126 293.577 417.735 293.577Z" fill="#A0616A"/>
<path d="M384.933 266.911L390.441 274.092L398.021 263.463C398.021 263.463 398.652 272.911 419.496 269.368C440.341 265.825 445.394 264.644 445.394 264.644L447.92 275.273C447.92 275.273 450.447 268.187 450.447 263.463C450.447 258.74 465.606 247.521 449.815 238.074C434.024 228.627 442.235 219.77 422.655 220.36C403.074 220.951 391.073 220.36 389.178 227.446C387.283 234.531 382.861 243.388 383.493 251.064C384.125 258.74 384.933 266.911 384.933 266.911Z" fill="#2F2E41"/>
<path d="M445.254 406.698C437.578 409.248 430.04 407.354 428.418 402.468C426.796 397.583 431.704 391.557 439.383 389.007C442.437 387.947 445.7 387.633 448.9 388.092L481.56 377.699L486.111 393.129L453.43 401.737C451.14 404.02 448.336 405.721 445.254 406.698Z" fill="#A0616A"/>
<path d="M295.604 372.187C288.254 368.81 284.039 362.28 286.19 357.603C288.34 352.926 296.04 351.873 303.392 355.253C306.347 356.563 308.946 358.561 310.97 361.081L341.931 375.785L334.721 390.166L304.965 374.144C301.733 374.249 298.523 373.578 295.604 372.187Z" fill="#A0616A"/>
<path d="M373.64 308.467C373.64 308.467 385.925 313.481 385.544 326.862C385.163 340.243 375.771 358.943 375.771 358.943C375.771 358.943 375.116 401.159 363.574 405.728C352.032 410.298 316.364 381.013 316.364 381.013L324.603 365.276L339.999 363.5L373.64 308.467Z" fill="#3F3D56"/>
<path d="M454.049 308.043C454.049 308.043 466.448 303.319 475.305 313.357C484.162 323.395 490.067 343.47 490.067 343.47C490.067 343.47 518.409 374.765 513.094 385.983C507.78 397.202 461.725 400.154 461.725 400.154L457.001 383.031L467.039 371.222L454.049 308.043Z" fill="#3F3D56"/>
<path d="M486.137 424.658H385.352C379.714 424.658 375.127 420.072 375.127 414.434V355.761C375.127 350.124 379.714 345.537 385.352 345.537H486.137C491.775 345.537 496.361 350.124 496.361 355.761V414.434C496.361 420.072 491.775 424.658 486.137 424.658Z" fill="#6A33EB"/>
<path d="M220.356 402.978C217.859 401.669 213.925 407.144 211.796 405.87C209.675 404.601 212.843 398.724 211.65 390.492C211.435 389.008 210.079 379.654 206.309 378.833C199.163 377.277 189.631 407.747 178.856 406.339C176.491 406.03 173.815 404.153 166.489 402.944C163.575 402.462 161.968 402.424 161.029 403.386C159.696 404.75 160.87 406.936 161.736 412.123C163.035 419.902 161.305 420.45 162.886 426.32C164.06 430.678 165.629 432.665 164.597 433.876C163.136 435.591 159.049 432.721 156.952 434.496C154.812 436.307 156.189 441.734 157.837 445.417C160.929 452.328 165.874 455.098 169.908 458.73C174.291 462.677 179.645 469.487 182.774 481.872L206.568 592.808C202.189 569.734 191.284 505.805 188.235 481.43C187.355 474.393 186.687 467.117 191.011 461.418C195.175 455.931 203.463 452.566 211.615 444.359C212.568 443.401 215.184 440.699 214.45 438.634C213.843 436.926 211.498 437.208 210.908 435.623C210.116 433.495 213.69 431.26 216.753 426.355C218.913 422.896 219.72 419.868 220.414 417.264C220.623 416.479 223.68 404.722 220.356 402.978Z" fill="#4AD0CE"/>
<path d="M122.785 529.235C121.422 530.083 122.974 533.594 121.735 534.271C120.5 534.946 118.529 531.695 114.145 529.906C113.354 529.583 108.372 527.55 106.881 529.163C104.056 532.221 116.261 545.691 112.461 550.574C111.627 551.645 109.933 552.417 107.226 555.664C106.149 556.955 105.666 557.733 105.867 558.471C106.152 559.519 107.564 559.573 110.36 560.645C114.552 562.252 114.322 563.259 117.66 564.177C120.137 564.858 121.565 564.661 121.862 565.517C122.282 566.729 119.694 567.907 119.96 569.448C120.232 571.021 123.292 571.911 125.575 572.165C129.86 572.641 132.646 571.014 135.592 570.082C138.794 569.07 143.682 568.406 150.663 570.444L211.976 590.775C199.388 586.266 164.865 573.173 152.022 567.636C148.314 566.038 144.55 564.266 143.001 560.5C141.509 556.873 142.249 551.834 140.573 545.465C140.378 544.721 139.806 542.658 138.581 542.422C137.567 542.227 137.03 543.459 136.081 543.291C134.808 543.066 134.743 540.667 133.219 537.749C132.144 535.691 130.891 534.421 129.814 533.329C129.489 533 124.6 528.107 122.785 529.235Z" fill="#4AD0CE"/>
<path d="M153.821 518.552L148.468 511.71L148.5 510.921C148.653 507.271 147.99 504.208 146.528 501.813C146.296 501.432 146.044 501.064 145.788 500.688C144.772 499.198 143.509 497.347 143.133 494.513C142.927 492.931 142.725 489.099 145.296 488.004C145.985 487.702 146.643 487.698 147.217 487.814C147.218 487.696 147.22 487.577 147.222 487.449C147.266 485.879 147.551 485.042 147.825 484.236C148.036 483.617 148.254 482.978 148.416 481.683C148.487 481.115 148.519 480.635 148.547 480.231C148.633 479.008 148.805 477.507 150.217 476.66C151.759 475.808 153.306 476.563 154.332 477.063C156.161 477.953 157.231 478.748 157.941 479.275C158.199 479.468 158.492 479.685 158.605 479.737C159.525 480.15 163.04 477.068 164.369 475.916C167.348 473.316 169.925 471.066 172.4 472.43C174.171 473.405 174.761 475.774 174.196 479.663C174.019 480.874 173.681 481.919 173.343 482.784C174.059 482.774 174.822 482.964 175.476 483.6C177.021 485.106 176.59 487.835 174.201 491.717C173.609 492.684 172.809 493.98 171.358 495.261C170.674 495.864 170.005 496.32 169.427 496.701C169.625 497.049 169.772 497.468 169.799 497.975C169.879 499.468 168.94 500.781 166.952 501.83C164.783 503.015 162.806 503.681 161.064 504.27C159.543 504.786 158.235 505.235 157.371 505.85C155.782 507.016 155.319 509.147 154.876 511.815L153.821 518.552Z" fill="#4AD0CE"/>
<path d="M130.669 472.436L125.408 479.35L124.637 479.519C121.068 480.297 118.273 481.715 116.327 483.737C116.018 484.058 115.725 484.395 115.426 484.738C114.243 486.099 112.773 487.79 110.127 488.872C108.649 489.473 104.993 490.641 103.282 488.431C102.815 487.842 102.644 487.206 102.611 486.621C102.497 486.651 102.381 486.678 102.257 486.709C100.727 487.065 99.8455 487.002 98.9963 486.94C98.3435 486.894 97.6701 486.845 96.3767 487.016C95.8094 487.092 95.3368 487.182 94.939 487.258C93.7339 487.485 92.238 487.7 91.0611 486.548C89.846 485.273 90.1839 483.584 90.4069 482.466C90.804 480.471 91.3014 479.234 91.6316 478.414C91.7529 478.115 91.888 477.777 91.9102 477.654C92.0756 476.659 88.2032 474.042 86.7514 473.048C83.4809 470.826 80.6509 468.903 81.3432 466.164C81.8369 464.204 83.9783 463.031 87.8838 462.592C89.0999 462.456 90.1968 462.517 91.1193 462.626C90.9278 461.936 90.9182 461.149 91.367 460.355C92.4318 458.479 95.1809 458.203 99.542 459.53C100.627 459.857 102.084 460.302 103.691 461.38C104.448 461.889 105.059 462.42 105.574 462.883C105.861 462.604 106.228 462.355 106.712 462.2C108.136 461.744 109.645 462.319 111.163 463.976C112.86 465.773 114.005 467.517 115.017 469.053C115.902 470.393 116.667 471.545 117.482 472.224C119.012 473.465 121.192 473.373 123.884 473.124L130.669 472.436Z" fill="#4AD0CE"/>
<path d="M113.504 453.137L108.151 446.295L108.184 445.506C108.336 441.856 107.673 438.793 106.211 436.398C105.979 436.017 105.727 435.649 105.471 435.273C104.455 433.783 103.192 431.932 102.816 429.098C102.61 427.516 102.408 423.684 104.98 422.589C105.668 422.287 106.326 422.283 106.9 422.399C106.901 422.281 106.903 422.162 106.905 422.034C106.949 420.464 107.234 419.627 107.509 418.821C107.719 418.202 107.938 417.563 108.099 416.268C108.171 415.7 108.203 415.22 108.23 414.816C108.316 413.593 108.488 412.091 109.901 411.245C111.442 410.393 112.99 411.148 114.015 411.648C115.844 412.538 116.914 413.333 117.624 413.86C117.883 414.053 118.175 414.27 118.288 414.322C119.208 414.735 122.723 411.653 124.052 410.501C127.031 407.901 129.609 405.651 132.083 407.015C133.854 407.99 134.445 410.359 133.879 414.248C133.702 415.459 133.365 416.504 133.026 417.369C133.742 417.359 134.506 417.549 135.159 418.185C136.705 419.691 136.273 422.42 133.884 426.302C133.292 427.269 132.492 428.565 131.042 429.846C130.358 430.449 129.689 430.905 129.111 431.286C129.308 431.634 129.456 432.052 129.482 432.56C129.563 434.053 128.624 435.366 126.636 436.415C124.467 437.6 122.49 438.266 120.747 438.855C119.226 439.371 117.918 439.819 117.054 440.435C115.466 441.6 115.002 443.732 114.56 446.4L113.504 453.137Z" fill="#4AD0CE"/>
<path d="M208.955 591.172L206.82 591.156L205.151 592.468C205.019 592.319 204.686 591.996 204.169 591.487C201.339 588.696 192.725 580.205 180.973 565.715C172.77 555.599 164.996 544.793 157.863 533.593C150.718 522.374 145.972 513.473 142.156 506.32C139.278 500.924 136.623 495.734 134.04 490.676C127.133 477.166 120.608 464.405 111.587 451.386C109.575 448.478 105.383 442.428 97.624 438.023C93.1237 435.468 88.0899 433.84 82.6638 433.189L83.1738 428.947C89.166 429.671 94.7378 431.477 99.7349 434.313C108.337 439.197 112.905 445.789 115.099 448.956C124.279 462.206 130.866 475.09 137.839 488.731C140.415 493.769 143.057 498.938 145.923 504.311C149.703 511.399 154.409 520.222 161.462 531.296C168.509 542.364 176.189 553.037 184.287 563.026C195.891 577.333 204.378 585.697 207.166 588.444C208.654 589.912 208.966 590.22 208.955 591.172Z" fill="#4AD0CE"/>
<path d="M79.5579 443.071C79.4089 443.162 79.2558 443.252 79.0967 443.335C75.8991 445.076 71.8916 444.99 67.1848 443.081C64.9747 442.181 63.208 440.689 59.6847 437.714C59.1405 437.256 56.4198 434.907 53.3852 431.239C51.4014 428.843 50.7717 427.718 50.6945 426.428C50.6062 424.994 51.0759 423.666 51.8136 422.511C51.5531 422.192 51.3694 421.811 51.295 421.352C50.9803 419.455 52.7495 418.639 53.6994 418.186C54.1851 417.965 54.7935 417.693 55.3807 417.287C56.307 416.652 56.6448 416.052 57.1595 415.147C57.6515 414.281 58.2632 413.203 59.4621 412.078C61.8187 409.847 64.5571 409.217 65.4595 409.008C70.1971 407.895 74.0181 409.757 78.4418 411.913C79.3265 412.347 82.4538 413.984 85.65 416.902C87.9559 419.007 88.553 420.206 88.8535 421.186C89.4759 423.197 89.0326 424.841 87.7031 428.687C86.3181 432.709 85.6214 434.725 84.8457 436.168C83.0363 439.521 81.9002 441.627 79.5579 443.071Z" fill="#4AD0CE"/>
<path d="M244.707 365.402L272.606 358.916L274.606 364.712L288.102 361.066L297.004 358.661L305.649 341.865L299.515 324.086L281.249 323.915L275.663 325.013L260.083 328.078C258.764 330.259 259.484 333.099 261.684 334.388L262.406 334.81L240.485 338.606C240.485 338.606 233.483 351.067 244.707 365.402Z" fill="#3F3D56"/>
<path d="M275.663 325.013L288.102 361.066L297.003 358.661L305.649 341.865L299.515 324.086L281.249 323.915L275.663 325.013Z" fill="#2F2E41"/>
<path d="M270.945 326.516C272.865 326.091 274.249 324.968 274.037 324.008C273.824 323.048 272.095 322.614 270.175 323.039C268.255 323.464 266.87 324.587 267.083 325.547C267.295 326.507 269.024 326.941 270.945 326.516Z" fill="#3F3D56"/>
<path d="M708.79 595.059L695.403 566.765L695.323 566.823V530.049H683.281V566.823L683.202 566.765L669.814 595.861C669.417 596.558 669.66 597.445 670.356 597.842C670.947 598.179 671.692 598.061 672.15 597.558L685.843 581.535L688.059 596.124C688.148 596.922 688.866 597.496 689.663 597.408C690.338 597.333 690.872 596.8 690.946 596.124L693.138 581.696L706.454 596.755C706.994 597.348 707.913 597.392 708.506 596.852C709.009 596.395 709.127 595.649 708.79 595.059Z" fill="#2F2E41"/>
<path d="M613.158 488.795C611.026 502.9 641.877 527.696 687.358 534.57C732.84 541.445 777.212 531.515 779.344 517.41C781.476 503.304 746.119 488.899 700.637 482.024C655.155 475.149 615.29 474.69 613.158 488.795Z" fill="#6C63FF"/>
<path opacity="0.3" d="M613.158 488.795C611.026 502.9 641.877 527.696 687.358 534.57C732.84 541.445 777.212 531.515 779.344 517.41C781.476 503.304 746.119 488.899 700.637 482.024C655.155 475.149 615.29 474.69 613.158 488.795Z" fill="#111014"/>
<path d="M614.95 486.731C613.194 498.348 643.299 518.287 688.78 525.162C734.262 532.036 778.053 527.124 779.809 515.507C781.565 503.89 746.119 488.899 700.637 482.024C655.155 475.15 616.706 475.114 614.95 486.731Z" fill="#4360F6"/>
<path d="M717.943 314.033H548.012C541.172 314.033 535.606 308.467 535.606 301.627V173.131C535.606 166.291 541.172 160.725 548.012 160.725H717.943C724.784 160.725 730.349 166.291 730.349 173.131V301.627C730.349 308.467 724.784 314.033 717.943 314.033Z" fill="white"/>
<path d="M717.943 314.033H548.012C541.172 314.033 535.606 308.467 535.606 301.627V173.131C535.606 166.291 541.172 160.725 548.012 160.725H717.943C724.784 160.725 730.349 166.291 730.349 173.131V301.627C730.349 308.467 724.784 314.033 717.943 314.033ZM548.012 162.797C542.314 162.797 537.678 167.433 537.678 173.131V301.627C537.678 307.325 542.314 311.961 548.012 311.961H717.943C723.641 311.961 728.277 307.325 728.277 301.627V173.131C728.277 167.433 723.641 162.797 717.943 162.797H548.012Z" fill="#3F3D56"/>
<path d="M699.273 176.263C700.989 176.263 702.381 174.872 702.381 173.155C702.381 171.439 700.989 170.048 699.273 170.048C697.557 170.048 696.166 171.439 696.166 173.155C696.166 174.872 697.557 176.263 699.273 176.263Z" fill="#3F3D56"/>
<path d="M707.56 176.263C709.276 176.263 710.668 174.872 710.668 173.155C710.668 171.439 709.276 170.048 707.56 170.048C705.844 170.048 704.452 171.439 704.452 173.155C704.452 174.872 705.844 176.263 707.56 176.263Z" fill="#3F3D56"/>
<path d="M715.847 176.263C717.563 176.263 718.954 174.872 718.954 173.155C718.954 171.439 717.563 170.048 715.847 170.048C714.131 170.048 712.739 171.439 712.739 173.155C712.739 174.872 714.131 176.263 715.847 176.263Z" fill="#3F3D56"/>
<path d="M553.216 223.395C552.359 223.395 551.662 224.092 551.662 224.949C551.662 225.367 551.823 225.753 552.116 226.038C552.412 226.341 552.799 226.503 553.216 226.503H713.775C714.632 226.503 715.329 225.806 715.329 224.949C715.329 224.531 715.167 224.145 714.874 223.859C714.579 223.557 714.192 223.395 713.775 223.395H553.216Z" fill="#E6E6E6"/>
<path d="M684.771 222.877V227.021H553.216C552.647 227.021 552.129 226.793 551.756 226.409C551.372 226.036 551.145 225.519 551.145 224.949C551.145 223.809 552.077 222.877 553.216 222.877H684.771Z" fill="#4360F6"/>
<path d="M711.186 215.108H690.468C688.184 215.108 686.325 213.25 686.325 210.965C686.325 208.679 688.184 206.821 690.468 206.821H711.186C713.47 206.821 715.329 208.679 715.329 210.965C715.329 213.25 713.47 215.108 711.186 215.108Z" fill="#E6E6E6"/>
<path d="M575.487 193.355H554.77C552.485 193.355 550.627 191.497 550.627 189.211C550.627 186.926 552.485 185.068 554.77 185.068H575.487C577.772 185.068 579.631 186.926 579.631 189.211C579.631 191.497 577.772 193.355 575.487 193.355Z" fill="#E6E6E6"/>
<path d="M553.216 270.009C552.359 270.009 551.662 270.706 551.662 271.563C551.662 271.98 551.823 272.367 552.116 272.652C552.412 272.955 552.799 273.116 553.216 273.116H713.775C714.632 273.116 715.329 272.419 715.329 271.563C715.329 271.145 715.167 270.758 714.874 270.473C714.579 270.171 714.192 270.009 713.775 270.009H553.216Z" fill="#E6E6E6"/>
<path d="M605.009 269.491V273.634H553.216C552.647 273.634 552.129 273.406 551.756 273.023C551.372 272.65 551.145 272.132 551.145 271.563C551.145 270.423 552.077 269.491 553.216 269.491H605.009Z" fill="#4360F6"/>
<path d="M711.186 261.722H690.468C688.184 261.722 686.325 259.864 686.325 257.578C686.325 255.293 688.184 253.435 690.468 253.435H711.186C713.47 253.435 715.329 255.293 715.329 257.578C715.329 259.864 713.47 261.722 711.186 261.722Z" fill="#E6E6E6"/>
</g>
<defs>
<clipPath id="clip0_120_315">
<rect width="920.325" height="613.563" fill="white" transform="translate(0.837402 0.940918)"/>
</clipPath>
</defs>
</svg>
