<svg width="56" height="62" viewBox="0 0 56 62" fill="none" xmlns="http://www.w3.org/2000/svg">
<g clip-path="url(#clip0_118_277)">
<path fill-rule="evenodd" clip-rule="evenodd" d="M7.14198 21.6916C7.14198 16.1596 9.33953 10.8543 13.2512 6.94264C17.1628 3.03098 22.4682 0.833435 28.0001 0.833435C33.532 0.833435 38.8374 3.03098 42.749 6.94264C46.6607 10.8543 48.8582 16.1596 48.8582 21.6916V24.0091C48.8582 30.5694 51.3303 36.5456 55.4031 41.0664C55.6568 41.3476 55.8377 41.6867 55.93 42.0539C56.0224 42.4212 56.0233 42.8055 55.9328 43.1732C55.8422 43.5409 55.6629 43.8809 55.4106 44.1633C55.1582 44.4457 54.8406 44.6619 54.4853 44.7931C49.7142 46.5545 44.7206 47.8523 39.5571 48.6341C39.6733 50.2228 39.4608 51.8185 38.9326 53.3214C38.4045 54.8243 37.5722 56.2022 36.4877 57.369C35.4032 58.5358 34.0897 59.4664 32.6293 60.1028C31.169 60.7392 29.5931 61.0676 28.0001 61.0676C26.4071 61.0676 24.8312 60.7392 23.3709 60.1028C21.9105 59.4664 20.5971 58.5358 19.5125 57.369C18.428 56.2022 17.5957 54.8243 17.0676 53.3214C16.5395 51.8185 16.3269 50.2228 16.4432 48.6341C11.3496 47.8622 6.3478 46.5742 1.51492 44.79C1.15998 44.659 0.84251 44.443 0.59025 44.161C0.33799 43.879 0.15861 43.5395 0.0677764 43.1722C-0.0230576 42.805 -0.0225829 42.421 0.0691593 42.0539C0.160902 41.6869 0.341121 41.3478 0.594078 41.0664C4.81764 36.3901 7.1515 30.3104 7.14198 24.0091V21.6916ZM21.0536 49.1934C21.0141 50.1303 21.1645 51.0655 21.4957 51.9427C21.827 52.82 22.3323 53.6212 22.9813 54.298C23.6302 54.9749 24.4094 55.5136 25.2719 55.8815C26.1344 56.2495 27.0624 56.4392 28.0001 56.4392C28.9378 56.4392 29.8659 56.2495 30.7284 55.8815C31.5909 55.5136 32.37 54.9749 33.019 54.298C33.6679 53.6212 34.1732 52.82 34.5045 51.9427C34.8358 51.0655 34.9862 50.1303 34.9466 49.1934C30.325 49.6097 25.6752 49.6097 21.0536 49.1934Z" fill="#4AD0CE"/>
</g>
<defs>
<clipPath id="clip0_118_277">
<rect width="56" height="60.2342" fill="white" transform="translate(0 0.833435)"/>
</clipPath>
</defs>
</svg>
