<svg width="57" height="55" viewBox="0 0 57 55" fill="none" xmlns="http://www.w3.org/2000/svg">
<g clip-path="url(#clip0_118_279)">
<path fill-rule="evenodd" clip-rule="evenodd" d="M51.4273 0.067627C50.4605 0.067627 49.5168 0.353044 48.7145 0.890451L35.6522 9.59439C32.3745 11.7802 29.3771 14.3597 26.7271 17.2749C32.1704 19.8337 36.5493 24.2126 39.1081 29.6559C42.0235 27.0051 44.6029 24.0068 46.7886 20.7282L55.4951 7.66846C55.9854 6.93206 56.2667 6.07647 56.3091 5.19283C56.3515 4.30918 56.1535 3.43058 55.736 2.65059C55.3186 1.87061 54.6974 1.21846 53.9386 0.763598C53.1799 0.308739 52.3119 0.0682093 51.4273 0.067627ZM30.0853 36.1305C31.7709 35.1943 33.3989 34.1579 34.9605 33.0269C33.9227 30.4018 32.3574 28.0176 30.3614 26.0216C28.3654 24.0256 25.9812 22.4603 23.3561 21.4225C22.2251 22.9832 21.1887 24.6103 20.2525 26.2951L19.5377 27.5808C21.7391 28.2142 23.7436 29.3963 25.3632 31.0163C26.9827 32.6363 28.1643 34.6411 28.797 36.8427L30.0879 36.1279L30.0853 36.1305ZM15.817 30.9235C13.2597 30.9235 10.8071 31.9394 8.99874 33.7477C7.19043 35.5561 6.17453 38.0087 6.17453 40.566C6.17467 41.0945 6.06621 41.6173 5.85587 42.1021C5.64554 42.587 5.33782 43.0234 4.9518 43.3843C4.56579 43.7453 4.10972 44.023 3.61189 44.2004C3.11407 44.3777 2.58511 44.4509 2.05784 44.4153C1.7092 44.3918 1.36075 44.4636 1.04971 44.6228C0.738676 44.782 0.476745 45.0228 0.291908 45.3193C0.10707 45.6158 0.00627181 45.957 0.000283316 46.3064C-0.00570518 46.6557 0.0833411 47.0002 0.257907 47.3029C1.74128 49.8798 4.03393 51.8949 6.77991 53.0353C9.52589 54.1757 12.5715 54.3775 15.444 53.6096C18.3165 52.8416 20.8551 51.1468 22.6656 48.7883C24.4762 46.4297 25.4574 43.5394 25.4569 40.566C25.4569 39.2997 25.2075 38.0459 24.7229 36.876C24.2383 35.7061 23.5281 34.6431 22.6327 33.7477C21.7373 32.8524 20.6743 32.1421 19.5044 31.6575C18.3346 31.1729 17.0833 30.9235 15.817 30.9235Z" fill="#4AD0CE"/>
</g>
<defs>
<clipPath id="clip0_118_279">
<rect width="56.3147" height="54" fill="white" transform="translate(0 0.067627)"/>
</clipPath>
</defs>
</svg>
