<svg width="372" height="391" viewBox="0 0 372 391" fill="none" xmlns="http://www.w3.org/2000/svg">
<g clip-path="url(#clip0_120_303)">
<path d="M193.479 310.183L181.39 309.518L183.055 346.611L191.247 347.062L193.479 310.183Z" fill="#A0616A"/>
<path d="M181.983 334.885L186.184 336.79V339.334C186.184 339.334 187.19 336.388 192.624 335.734L193.278 338.199C193.278 338.199 195.392 340.614 195.039 344.991L193.681 356.715L189.582 356.629L188.902 348.475C188.902 348.475 187.769 346.627 182.587 355.432C182.587 355.432 180.676 358.342 171.797 355.386C170.577 354.98 169.728 353.843 169.741 352.557C169.748 351.847 170.024 351.191 170.914 350.954C173.178 350.35 175.392 351.105 176.851 349.293C178.31 347.482 181.983 334.885 181.983 334.885Z" fill="#2F2E41"/>
<path d="M163.215 344.219L151.126 343.554L152.791 380.647L160.983 381.098L163.215 344.219Z" fill="#A0616A"/>
<path d="M151.719 368.92L155.92 370.826V373.37C155.92 373.37 156.926 370.423 162.36 369.769L163.014 372.234C163.014 372.234 165.128 374.649 164.775 379.027L163.417 390.75L159.318 390.665L158.638 382.51C158.638 382.51 157.505 380.662 152.323 389.467C152.323 389.467 150.412 392.378 141.533 389.422C140.313 389.015 139.464 387.879 139.477 386.593C139.484 385.883 139.76 385.226 140.65 384.989C142.914 384.385 145.128 385.14 146.587 383.329C148.046 381.517 151.719 368.92 151.719 368.92Z" fill="#2F2E41"/>
<path d="M314.92 233.377C314.384 232.472 312.064 233.441 311.637 232.62C311.212 231.802 313.368 230.556 314.6 227.709C314.822 227.196 316.221 223.961 315.185 222.963C313.221 221.07 304.233 228.879 301.088 226.324C300.397 225.763 299.915 224.643 297.826 222.826C296.995 222.103 296.492 221.776 296.006 221.898C295.316 222.07 295.261 222.994 294.521 224.81C293.411 227.533 292.755 227.369 292.108 229.542C291.628 231.155 291.738 232.093 291.173 232.276C290.374 232.534 289.638 230.823 288.625 230.976C287.591 231.133 286.966 233.125 286.769 234.617C286.398 237.416 287.426 239.263 287.996 241.205C288.615 243.316 288.983 246.525 287.553 251.069L273.4 290.944C276.525 282.762 285.571 260.332 289.373 251.997C290.47 249.591 291.682 247.151 294.17 246.188C296.565 245.26 299.855 245.814 304.049 244.804C304.538 244.686 305.898 244.34 306.069 243.54C306.21 242.879 305.411 242.51 305.534 241.891C305.698 241.061 307.27 241.051 309.203 240.093C310.565 239.417 311.414 238.614 312.143 237.923C312.363 237.715 315.634 234.581 314.92 233.377Z" fill="#4AD0CE"/>
<path d="M259.241 254.368C258.642 254.371 258.448 255.789 257.922 255.761C257.398 255.734 257.408 254.316 256.366 252.891C256.179 252.633 254.995 251.013 254.206 251.234C252.71 251.652 253.949 258.316 251.788 259.122C251.313 259.299 250.625 259.213 249.13 259.714C248.535 259.913 248.23 260.066 248.149 260.34C248.035 260.728 248.472 261.021 249.15 261.909C250.167 263.239 249.897 263.514 250.777 264.458C251.43 265.159 251.922 265.376 251.848 265.706C251.745 266.173 250.693 266.04 250.476 266.582C250.254 267.134 251.051 268.016 251.727 268.543C252.994 269.533 254.197 269.561 255.314 269.842C256.529 270.147 258.21 270.893 260.028 272.905L275.515 291.357C272.401 287.462 264.003 276.551 261.009 272.28C260.144 271.047 259.296 269.748 259.541 268.249C259.777 266.806 260.998 265.351 261.712 263.001C261.796 262.727 262.018 261.96 261.675 261.645C261.392 261.385 260.98 261.671 260.711 261.432C260.351 261.112 260.8 260.337 260.887 259.112C260.949 258.249 260.799 257.601 260.671 257.043C260.632 256.875 260.038 254.365 259.241 254.368Z" fill="#4AD0CE"/>
<path d="M271.184 257.049L270.823 253.829L270.988 253.585C271.75 252.457 272.139 251.354 272.144 250.308C272.145 250.142 272.137 249.975 272.129 249.806C272.098 249.134 272.059 248.299 272.494 247.326C272.738 246.784 273.424 245.527 274.455 245.683C274.732 245.722 274.942 245.849 275.102 245.998C275.125 245.961 275.149 245.924 275.175 245.883C275.496 245.394 275.75 245.184 275.995 244.982C276.183 244.826 276.377 244.666 276.682 244.287C276.816 244.12 276.92 243.974 277.008 243.851C277.274 243.48 277.622 243.037 278.237 243.045C278.893 243.076 279.236 243.618 279.464 243.977C279.871 244.618 280.055 245.08 280.177 245.386C280.221 245.498 280.272 245.624 280.297 245.663C280.509 245.974 282.227 245.683 282.875 245.577C284.329 245.335 285.588 245.125 286.106 246.042C286.478 246.698 286.202 247.566 285.261 248.69C284.968 249.039 284.657 249.305 284.38 249.514C284.609 249.65 284.814 249.86 284.898 250.19C285.093 250.97 284.423 251.752 282.905 252.517C282.528 252.708 282.02 252.963 281.309 253.086C280.974 253.144 280.672 253.158 280.414 253.166C280.408 253.315 280.374 253.476 280.283 253.643C280.016 254.133 279.461 254.366 278.624 254.31C277.704 254.262 276.946 254.086 276.278 253.932C275.694 253.798 275.191 253.685 274.796 253.711C274.064 253.77 273.499 254.356 272.837 255.117L271.184 257.049Z" fill="#4AD0CE"/>
<path d="M272.857 237.879L269.834 239.045L269.556 238.947C268.271 238.496 267.106 238.399 266.093 238.66C265.932 238.702 265.773 238.751 265.611 238.802C264.969 239.002 264.171 239.252 263.12 239.077C262.533 238.979 261.144 238.634 261.033 237.598C261 237.32 261.07 237.084 261.174 236.892C261.132 236.879 261.09 236.865 261.044 236.851C260.489 236.664 260.222 236.472 259.964 236.286C259.766 236.144 259.562 235.996 259.117 235.798C258.923 235.711 258.755 235.647 258.614 235.593C258.187 235.43 257.67 235.205 257.522 234.609C257.385 233.967 257.823 233.497 258.113 233.185C258.629 232.629 259.029 232.334 259.294 232.138C259.391 232.067 259.5 231.986 259.531 231.952C259.778 231.668 259.061 230.079 258.795 229.48C258.191 228.135 257.669 226.971 258.425 226.236C258.965 225.711 259.874 225.757 261.2 226.382C261.613 226.577 261.949 226.811 262.221 227.026C262.295 226.769 262.446 226.518 262.744 226.353C263.449 225.966 264.375 226.417 265.5 227.691C265.781 228.007 266.156 228.434 266.456 229.09C266.596 229.4 266.686 229.688 266.759 229.936C266.905 229.903 267.07 229.896 267.254 229.942C267.796 230.075 268.162 230.553 268.32 231.376C268.507 232.279 268.529 233.057 268.55 233.742C268.569 234.341 268.586 234.856 268.712 235.231C268.955 235.925 269.665 236.322 270.568 236.77L272.857 237.879Z" fill="#4AD0CE"/>
<path d="M271.184 228.393L270.823 225.174L270.988 224.929C271.75 223.801 272.139 222.699 272.144 221.652C272.145 221.486 272.137 221.32 272.129 221.15C272.098 220.478 272.059 219.644 272.494 218.67C272.738 218.128 273.424 216.872 274.455 217.027C274.732 217.066 274.942 217.193 275.102 217.343C275.125 217.305 275.149 217.268 275.175 217.228C275.496 216.738 275.75 216.528 275.995 216.326C276.183 216.17 276.377 216.01 276.682 215.631C276.816 215.465 276.92 215.318 277.008 215.196C277.274 214.824 277.622 214.381 278.237 214.389C278.893 214.42 279.236 214.962 279.464 215.322C279.871 215.962 280.055 216.424 280.177 216.73C280.221 216.842 280.272 216.968 280.297 217.007C280.509 217.318 282.227 217.027 282.875 216.921C284.329 216.679 285.588 216.469 286.106 217.386C286.478 218.042 286.202 218.91 285.261 220.034C284.968 220.384 284.657 220.649 284.38 220.858C284.609 220.995 284.814 221.204 284.898 221.534C285.093 222.315 284.423 223.097 282.905 223.861C282.528 224.053 282.02 224.308 281.309 224.43C280.974 224.488 280.672 224.502 280.414 224.51C280.408 224.659 280.374 224.821 280.283 224.987C280.016 225.477 279.461 225.71 278.624 225.654C277.704 225.606 276.946 225.43 276.278 225.276C275.694 225.142 275.191 225.029 274.796 225.055C274.064 225.114 273.499 225.701 272.837 226.461L271.184 228.393Z" fill="#4AD0CE"/>
<path d="M274.478 290.891L273.803 290.468L273.017 290.559C273.004 290.486 272.962 290.318 272.897 290.055C272.545 288.615 271.471 284.234 270.576 277.335C269.951 272.518 269.597 267.567 269.524 262.615C269.451 257.655 269.686 253.901 269.874 250.883C270.016 248.607 270.189 246.44 270.358 244.329C270.809 238.688 271.234 233.361 270.918 227.462C270.848 226.145 270.701 223.404 269.1 220.488C268.171 218.796 266.891 217.295 265.296 216.026L266.288 214.779C268.049 216.181 269.464 217.845 270.496 219.723C272.271 222.957 272.431 225.943 272.508 227.378C272.83 233.381 272.4 238.76 271.945 244.455C271.777 246.558 271.604 248.716 271.463 250.983C271.276 253.972 271.044 257.694 271.116 262.59C271.188 267.483 271.537 272.374 272.154 277.129C273.038 283.942 274.096 288.258 274.444 289.676C274.629 290.433 274.668 290.591 274.478 290.891Z" fill="#4AD0CE"/>
<path d="M262.377 218.555C262.311 218.555 262.245 218.554 262.178 218.549C260.823 218.476 259.567 217.665 258.446 216.138C257.921 215.42 257.652 214.6 257.116 212.966C257.032 212.715 256.628 211.437 256.382 209.678C256.222 208.529 256.242 208.049 256.47 207.625C256.722 207.152 257.131 206.822 257.591 206.6C257.571 206.448 257.587 206.291 257.653 206.13C257.925 205.467 258.646 205.554 259.036 205.596C259.234 205.621 259.48 205.653 259.746 205.639C260.164 205.619 260.389 205.495 260.729 205.308C261.055 205.129 261.46 204.907 262.061 204.784C263.246 204.537 264.238 204.873 264.566 204.983C266.287 205.557 267.136 206.895 268.119 208.445C268.315 208.756 268.987 209.888 269.431 211.44C269.751 212.559 269.706 213.057 269.61 213.427C269.414 214.187 268.951 214.622 267.777 215.583C266.55 216.589 265.934 217.092 265.406 217.399C264.175 218.109 263.403 218.555 262.377 218.555Z" fill="#4AD0CE"/>
<path d="M93.5618 287.127L101.096 287.126L104.68 258.066L93.5603 258.067L93.5618 287.127Z" fill="#FFB6B6"/>
<path d="M119.374 286.956C119.609 287.351 119.732 288.626 119.732 289.085C119.732 290.498 118.588 291.642 117.175 291.642H93.8437C92.8803 291.642 92.0993 290.861 92.0993 289.898V288.927C92.0993 288.927 90.9451 286.007 93.3214 282.409C93.3214 282.409 96.2748 285.226 100.688 280.813L101.989 278.456L111.41 285.345L116.631 285.988C117.774 286.129 118.786 285.966 119.374 286.956Z" fill="#2F2E41"/>
<path d="M64.974 287.127L72.508 287.126L76.0919 258.066L64.9725 258.067L64.974 287.127Z" fill="#FFB6B6"/>
<path d="M90.7862 286.956C91.0208 287.351 91.1446 288.626 91.1446 289.085C91.1446 290.498 89.9998 291.642 88.5875 291.642H65.2558C64.2924 291.642 63.5114 290.861 63.5114 289.898V288.927C63.5114 288.927 62.3572 286.007 64.7335 282.409C64.7335 282.409 67.6869 285.226 72.1001 280.813L73.4015 278.456L82.8218 285.345L88.0433 285.988C89.1857 286.129 90.1986 285.966 90.7862 286.956Z" fill="#2F2E41"/>
<path d="M59.4256 131.027L49.8963 152.627L61.9667 270.79L76.8959 271.743L82.9311 167.238L88.6487 272.06L106.437 270.155L110.656 137.087L59.4256 131.027Z" fill="#2F2E41"/>
<path d="M96.97 44.9459L77.8489 41.4518L73.9872 45.3135L54.3433 53.5222L57.5197 115.145C57.5197 115.145 51.1669 119.377 54.3433 125.202C57.5197 131.027 56.8845 138.015 56.8845 138.015H110.656L108.343 103.074L114.695 58.6045L99.8513 51.5767L96.97 44.9459Z" fill="#CCCCCC"/>
<path d="M83.1109 116.738C88.5432 118.035 93.6156 116.283 94.4403 112.826C95.2651 109.369 91.53 105.516 86.0956 104.219C83.9319 103.672 81.6685 103.65 79.4947 104.157L56.4084 98.9526L54.1973 109.838L77.191 113.813C78.9023 115.247 80.9323 116.25 83.1109 116.738Z" fill="#FFB6B6"/>
<path d="M58.155 56.6986L54.3433 53.5222C54.3433 53.5222 46.7199 57.3339 45.4493 60.5104C44.1787 63.6868 36.5553 94.1805 36.5553 94.1805C36.5553 94.1805 35.0596 110.892 38.9839 113.019C42.9081 115.145 67.6843 113.874 67.6843 113.874L69.5901 101.169L59.4256 97.3569L58.155 56.6986Z" fill="#CCCCCC"/>
<path d="M88.6099 39.6489C97.8842 39.6489 105.403 32.1306 105.403 22.8563C105.403 13.5819 97.8842 6.0636 88.6099 6.0636C79.3355 6.0636 71.8172 13.5819 71.8172 22.8563C71.8172 32.1306 79.3355 39.6489 88.6099 39.6489Z" fill="#FFB6B6"/>
<path d="M76.5659 37.7634C74.5542 37.9431 71.2701 32.7968 71.4165 27.8128C71.5107 24.6065 68.727 23.976 68.5202 19.8411C68.3996 17.4317 72.1006 16.6805 72.3548 14.748C72.8155 11.2465 75.0745 8.89039 75.3565 8.60396C77.791 6.13147 79.5092 6.93525 82.3721 4.0697C84.0958 2.34449 83.6541 1.87185 84.8149 1.10663C88.1651 -1.10184 94.185 1.29172 97.7849 4.51594C99.0306 5.63165 103.674 4.41224 105.702 7.56289C108.092 11.2749 107.537 18.8452 106.512 19.8442C105.89 20.4512 104.468 18.9683 100.614 18.0166C97.0467 17.1354 100.412 21.493 96.2877 20.7617C91.4103 19.897 90.4554 18.4131 88.6287 19.3031C86.6978 20.2439 85.189 23.1571 85.6271 25.4472C85.8445 26.5836 86.4745 27.2172 86.1192 27.7951C85.4706 28.8501 84.7263 27.8154 83.8943 28.8742C82.9266 30.1057 85.3313 33.265 84.8785 33.5701C84.7873 33.6315 84.5111 33.6235 81.9154 31.1272C80.879 30.1305 80.5752 29.5184 80.3724 29.6123C80.0441 29.7644 77.8926 31.7688 78.7141 33.3516C79.9926 35.8148 78.3564 35.8916 78.7141 37.5498C79.0832 39.2605 77.8444 37.6491 76.5659 37.7634Z" fill="#2F2E41"/>
<path d="M73.0842 88.7805L70.5431 90.6864L83.8841 109.11L86.4252 108.474L73.0842 88.7805Z" fill="#3F3D56"/>
<path d="M107.39 105.645V137.8C107.39 140.643 105.076 142.957 102.233 142.957H70.0781C67.2346 142.957 64.9213 140.643 64.9213 137.8V105.645C64.9213 102.802 67.2346 100.488 70.0781 100.488H102.233C105.076 100.488 107.39 102.802 107.39 105.645Z" fill="white"/>
<path d="M90.4358 113.62H80.0551C79.7934 113.62 79.5805 113.407 79.5805 113.146C79.5805 112.884 79.7934 112.671 80.0551 112.671H90.4358C90.6975 112.671 90.9103 112.884 90.9103 113.146C90.9103 113.407 90.6975 113.62 90.4358 113.62Z" fill="#3F3D56"/>
<path d="M90.4358 123.741H80.0551C79.7934 123.741 79.5805 123.528 79.5805 123.266C79.5805 123.005 79.7934 122.792 80.0551 122.792H90.4358C90.6975 122.792 90.9103 123.005 90.9103 123.266C90.9103 123.528 90.6975 123.741 90.4358 123.741Z" fill="#3F3D56"/>
<path d="M85.2789 137.695H74.8983C74.6366 137.695 74.4236 137.482 74.4236 137.22C74.4236 136.959 74.6366 136.746 74.8983 136.746H85.2789C85.5406 136.746 85.7535 136.959 85.7535 137.22C85.7535 137.482 85.5406 137.695 85.2789 137.695Z" fill="#3F3D56"/>
<path d="M96.0062 118.684H74.4847C74.223 118.684 74.0101 118.471 74.0101 118.21C74.0101 117.948 74.223 117.735 74.4847 117.735H96.0062C96.2679 117.735 96.4807 117.948 96.4807 118.21C96.4807 118.471 96.2679 118.684 96.0062 118.684Z" fill="#3F3D56"/>
<path d="M94.4167 119.352C89.4656 121.937 86.7857 126.586 88.4308 129.737C90.0759 132.887 95.4224 133.346 100.375 130.76C102.367 129.754 104.09 128.286 105.399 126.478L126.239 115.264L120.768 105.596L100.804 117.678C98.5718 117.718 96.3816 118.292 94.4167 119.352Z" fill="#FFB6B6"/>
<path d="M110.884 59.2397C110.884 59.2397 116.601 55.4279 120.413 65.5925C123.42 73.6115 128.997 97.2486 131.218 106.87C131.807 109.424 130.954 112.092 128.995 113.834L126.448 116.098L114.06 125.309L105.614 113.019L115.872 106.834L104.173 81.4548L110.884 59.2397Z" fill="#CCCCCC"/>
<path d="M371.198 291.438C371.198 291.733 370.96 291.972 370.665 291.972H0.801514V290.904H370.665C370.96 290.904 371.198 291.143 371.198 291.438Z" fill="#E6E6E6"/>
<path d="M170.788 288.543C170.922 287.202 170.733 285.849 170.237 284.597L172.33 270.675L165.676 269.873L164.27 284.082C163.567 285.23 163.149 286.53 163.052 287.873C162.762 291.232 164.259 294.102 166.395 294.287C168.532 294.471 170.498 291.9 170.788 288.543Z" fill="#A0616A"/>
<path d="M190.045 206.293L184.553 235.144L177.743 250.278L173.687 279.461L163.265 282.615L166.533 245.61C166.533 245.61 177.059 211.228 179.881 207.727C182.704 204.225 190.045 206.293 190.045 206.293Z" fill="#6A33EB"/>
<path d="M195.333 178.747L188.721 200.318L211.468 207.291L218.081 185.72L195.333 178.747Z" fill="#2F2E41"/>
<path d="M206.979 193.806C213.385 193.806 218.579 188.613 218.579 182.206C218.579 175.799 213.385 170.605 206.979 170.605C200.572 170.605 195.378 175.799 195.378 182.206C195.378 188.613 200.572 193.806 206.979 193.806Z" fill="#A0616A"/>
<path d="M217.728 165.876C214.156 164.146 207.401 164.957 204.985 165.223C202.828 165.461 201.332 166.713 199.861 167.943C196.523 170.736 195.058 174.139 194.591 175.338C192.383 181.005 194.558 183.389 192.25 185.775C189.777 188.332 186.31 186.601 184.804 189.07C183.435 191.314 185.973 193.274 184.993 196.851C183.862 200.979 179.52 201.887 179.963 203.461C180.455 205.209 186.323 205.944 191.002 203.842C191.633 203.558 197.18 200.983 197.448 196.808C197.621 194.13 195.425 193.854 194.817 189.995C194.395 187.312 195.077 185.033 196.166 181.398C196.924 178.865 197.303 177.598 198.121 176.42C198.515 175.851 202.229 170.679 207.737 171.644C212.591 172.495 215.855 177.592 215.226 180.805C214.854 182.702 213.088 184.132 213.783 185.511C214.295 186.528 215.611 186.457 215.775 187.409C215.93 188.303 214.918 189.219 214.149 189.914C213.178 190.793 212.307 191.212 211.979 191.394C209.643 192.696 208.778 196.581 208.791 198.998C208.81 202.606 210.81 207.043 214.863 208.582C219.414 210.31 224.964 207.778 225.174 205.736C225.296 204.551 223.55 204.18 223.27 202.149C222.955 199.859 224.957 198.743 224.321 197.323C223.744 196.036 224.585 197.872 222.992 196.057C222.798 195.836 221.771 194.626 221.753 193.103C221.729 191.119 223.432 189.811 224.372 188.757C227.891 184.814 228.446 177.374 225.186 173.739C223.335 171.676 224.48 169.146 217.728 165.876Z" fill="#2F2E41"/>
<path d="M219.429 177.123C220.478 174.745 217.704 171.72 217.342 171.335C214.636 168.454 210.749 168.349 208.834 168.298C207.157 168.253 203.563 168.156 200.844 170.568C199.373 171.872 198.001 174.051 198.617 175.034C198.993 175.635 200.085 175.665 202.267 175.724C204.229 175.777 204.939 175.518 206.037 176.021C206.848 176.393 207.048 176.803 207.757 177.407C209.677 179.039 212.037 179.288 212.736 179.362C214.385 179.536 218.397 179.464 219.429 177.123Z" fill="#2F2E41"/>
<path d="M191.742 203.74L181.905 206.767L182.662 215.847L179.635 271.844L230.335 273.358L230.982 268.146L225.794 249.378L228.065 212.064L213.687 204.497L209.903 196.929L196.283 196.173L191.742 203.74Z" fill="#6A33EB"/>
<path d="M214.065 262.385L179.256 272.98C179.256 272.98 158.233 278.995 146.882 285.049C135.531 291.103 136.88 296.596 136.88 296.596L151.258 360.917L164.879 361.674L163.032 302.507L177.743 300.501L180.013 322.166L192.121 325.193L204.228 283.574C205.098 288.791 209.928 292.393 215.175 291.728C219.558 291.173 224.907 290.323 229.956 289.061C241.307 286.225 229.956 266.169 229.956 266.169L214.065 262.385Z" fill="#2F2E41"/>
<path d="M178.121 294.546C178.121 294.546 180.392 276.385 184.175 255.953C187.959 235.522 201.58 240.819 201.58 240.819L225.794 266.547L206.12 279.412L178.121 294.546Z" fill="#2F2E41"/>
<path d="M198.658 274.924C199.652 274.015 200.414 272.881 200.879 271.617L211.722 262.637L207.298 257.603L196.776 267.254C195.486 267.641 194.308 268.331 193.34 269.267C190.884 271.577 190.086 274.714 191.555 276.276C193.024 277.838 196.204 277.233 198.658 274.924Z" fill="#A0616A"/>
<path d="M207.663 224.922L216.323 241.792L201.455 260.965L208.939 268.799L227.542 253.114L236.269 244.896C239.434 241.915 237.787 237.985 236.218 233.93C229.956 217.739 231.47 211.686 225.416 210.172C220.492 208.941 207.663 224.922 207.663 224.922Z" fill="#6A33EB"/>
<path d="M167.992 256.675L169.408 252.711L195.739 257.241L218.107 245.916L219.24 249.03L194.89 263.47L167.992 256.675Z" fill="#E6E6E6"/>
<path d="M220.372 247.048L195.173 259.789L166.371 255.627L169.125 267.717L193.474 271.964L216.494 260.934L220.372 247.048Z" fill="#3F3D56"/>
<path d="M67.2595 109.712L68.6752 105.748L95.0067 110.278L117.374 98.9526L118.507 102.067L94.1572 116.507L67.2595 109.712Z" fill="#E6E6E6"/>
<path d="M119.639 100.085L94.4403 112.826L65.6385 108.664L68.392 120.754L92.7415 125.001L115.761 113.97L119.639 100.085Z" fill="#3F3D56"/>
</g>
<defs>
<clipPath id="clip0_120_303">
<rect width="370.397" height="390.5" fill="white" transform="translate(0.801514 0.25)"/>
</clipPath>
</defs>
</svg>
