<svg width="422" height="384" viewBox="0 0 422 384" fill="none" xmlns="http://www.w3.org/2000/svg">
<g clip-path="url(#clip0_120_330)">
<path d="M398.715 374.903L398.73 381.123V382.437H386.722V380.465L386.714 356.144L386.699 332.582V328.256L386.691 310.717L386.683 310.435L384.594 251.38V251.333L382.467 191.136V191.128L382.412 189.493L372.046 194.993L359.264 201.775L353.193 204.998L344.526 209.59L329.912 217.35H329.905L254.116 257.552L253.96 381.123V382.437H242.367L242.32 381.123L238.471 262.246L126.697 217.679L114.869 212.962L109.816 143.205C108.548 125.721 117.92 109.692 132.752 101.885C136.413 99.9603 140.403 98.5365 144.643 97.7151L161.713 94.406L204.316 86.1372L218.1 83.4696L236.116 79.9728L243.219 78.596L254.899 76.3273L255.955 76.1239L259.248 75.4825L260.422 75.2556L262.33 74.8879L263.676 77.2661C263.684 77.2661 263.684 77.2739 263.684 77.2817L271.601 91.3316L273.024 93.8663L273.032 93.874L279.893 106.039C279.893 106.039 279.901 106.046 279.901 106.054L286.581 117.914L299.693 120.519L306.154 121.802L346.207 129.758L351.488 130.814H351.496L364.857 133.466L368.393 134.17L384.907 137.448L385.032 137.471L392.362 138.926L404.707 141.382L398.535 310.717L398.652 351.998V352.006L398.715 374.903Z" fill="#3F3D56"/>
<path d="M193.786 48.5797C192.034 45.2784 186.996 38.2143 181.192 30.2819C180.112 28.8034 179.009 27.3014 177.898 25.7838C175.919 23.1005 173.908 20.3704 171.961 17.7106C170.717 15.9582 168.284 15.5436 166.531 16.7796L154.86 25.0406C153.107 26.2766 152.685 28.7095 153.929 30.4618L157.441 35.4294L158.364 36.7358L159.726 38.6603L161.361 40.968V40.9758L161.822 41.6173L163.449 43.925L164.349 45.1923L172.227 56.3321L175.762 61.331C176.998 63.0833 179.431 63.4979 181.184 62.2619L191.338 55.0727L192.769 54.0635L192.855 54.0009C194.608 52.7649 195.03 50.332 193.786 48.5797Z" fill="#3F3D56"/>
<path d="M181.176 30.1097L178.133 25.8149C178.078 25.7367 177.976 25.7211 177.906 25.7758L177.898 25.7837C177.828 25.8306 177.812 25.9245 177.867 26.0027L180.91 30.3053C180.957 30.3757 181.059 30.3914 181.137 30.3444C181.16 30.3288 181.176 30.3053 181.192 30.2818C181.215 30.227 181.215 30.1645 181.176 30.1097Z" fill="#3F3D56"/>
<path d="M171.656 17.9233L193.487 48.7932C194.565 50.3178 194.26 52.404 192.828 53.5618C192.807 53.5788 192.785 53.5963 192.763 53.6131C192.724 53.6432 192.685 53.6719 192.645 53.7004C192.645 53.7004 192.49 53.7942 192.205 53.965C191.918 54.1378 191.5 54.3884 190.976 54.6989C190.82 54.7925 190.654 54.8904 190.479 54.9939C190.131 55.1999 189.749 55.4259 189.337 55.6665C189.174 55.763 189.004 55.862 188.831 55.9634C187.945 56.4816 186.951 57.0586 185.898 57.6602C185.721 57.7626 185.541 57.8653 185.36 57.9682C185.312 57.9949 176.315 61.4768 176.061 61.1166L154.23 30.2467C153.107 28.659 153.484 26.4623 155.071 25.3395L156.788 24.126C157.062 23.9321 157.433 23.9899 157.65 24.2468C157.665 24.2635 157.68 24.2802 157.696 24.296C157.94 24.5356 158.327 24.5489 158.607 24.3512L164.639 20.0856C164.918 19.888 165.035 19.5183 164.89 19.2083C164.881 19.1878 164.87 19.1682 164.859 19.1487C164.689 18.8586 164.758 18.4891 165.033 18.2952L166.749 17.0816C168.336 15.9588 170.533 16.3356 171.656 17.9233Z" fill="#4360F6"/>
<path d="M158.357 36.5794L157.59 35.4998C157.559 35.4529 157.504 35.4216 157.441 35.4294C157.418 35.4294 157.387 35.445 157.363 35.4607C157.293 35.5155 157.269 35.6172 157.324 35.6876L158.083 36.7671C158.138 36.8375 158.239 36.861 158.317 36.8062C158.341 36.7906 158.357 36.7671 158.364 36.7358C158.388 36.6889 158.388 36.6263 158.357 36.5794Z" fill="#3F3D56"/>
<path d="M161.345 40.8115L159.874 38.7227C159.835 38.6758 159.78 38.6523 159.725 38.6602C159.694 38.6602 159.663 38.668 159.647 38.6836C159.569 38.7384 159.553 38.8401 159.608 38.9183L161.079 40.9992C161.134 41.0696 161.235 41.0931 161.306 41.0383C161.329 41.0226 161.345 40.9992 161.36 40.9757V40.9679C161.384 40.9209 161.384 40.8584 161.345 40.8115Z" fill="#3F3D56"/>
<path d="M163.434 43.7685L161.963 41.6798C161.924 41.6329 161.869 41.6094 161.822 41.6172C161.791 41.6172 161.76 41.625 161.736 41.6407C161.658 41.6955 161.642 41.7972 161.697 41.8754L163.168 43.9562C163.222 44.0267 163.324 44.0501 163.395 43.9954C163.418 43.9797 163.442 43.9562 163.449 43.925C163.473 43.878 163.473 43.8154 163.434 43.7685Z" fill="#3F3D56"/>
<path d="M156.931 24.7307L154.646 26.3463C154.553 26.4119 154.531 26.5403 154.597 26.6331C154.663 26.7258 154.791 26.7478 154.884 26.6822L157.168 25.0667C157.261 25.0011 157.283 24.8727 157.217 24.7799C157.152 24.6872 157.023 24.6651 156.931 24.7307Z" fill="#E6E6E6"/>
<path d="M165.837 18.862C166.019 18.862 166.167 18.7146 166.167 18.5328C166.167 18.351 166.019 18.2036 165.837 18.2036C165.656 18.2036 165.508 18.351 165.508 18.5328C165.508 18.7146 165.656 18.862 165.837 18.862Z" fill="#E6E6E6"/>
<path d="M166.577 18.3393C166.758 18.3393 166.906 18.1919 166.906 18.0101C166.906 17.8283 166.758 17.6809 166.577 17.6809C166.395 17.6809 166.247 17.8283 166.247 18.0101C166.247 18.1919 166.395 18.3393 166.577 18.3393Z" fill="#E6E6E6"/>
<path d="M167.315 17.8166C167.497 17.8166 167.645 17.6692 167.645 17.4874C167.645 17.3056 167.497 17.1582 167.315 17.1582C167.134 17.1582 166.986 17.3056 166.986 17.4874C166.986 17.6692 167.134 17.8166 167.315 17.8166Z" fill="#E6E6E6"/>
<path d="M254.899 36.947H209.526V79.9729H254.899V36.947Z" fill="#2F2E41"/>
<path d="M177.462 50.9115C176.041 53.2206 174.215 55.017 172.33 56.1341L160.176 78.9864L149.471 72.8845L162.953 50.3601C163.102 48.1743 163.884 45.7355 165.306 43.4265C168.554 38.1515 173.909 35.5508 177.265 37.6178C180.622 39.6847 180.71 45.6365 177.462 50.9115Z" fill="#A0616A"/>
<path d="M383.744 356.738L393.503 354.782L389.1 309.951L374.698 312.836L383.744 356.738Z" fill="#A0616A"/>
<path d="M421.607 369.496C421.976 371.136 421.112 372.727 419.676 373.05L400.407 377.386C400.407 377.386 396.795 370.191 388.326 368.65L390.246 379.673L380.306 381.91L377.565 364.108C377.565 364.108 372.795 355.327 377.239 349.29C381.682 343.253 377.36 344.927 377.36 344.927L377.09 333.588L392.509 331.974L396.452 348.982L407.546 364.248L419.426 367.123C420.484 367.379 421.341 368.312 421.607 369.496Z" fill="#2F2E41"/>
<path d="M215.393 127.301L216.175 132.777C216.175 132.777 232.603 150.77 236.515 158.593L283.966 135.124L275.629 115.567L215.393 127.301Z" fill="#A0616A"/>
<path d="M274.847 133.56C274.847 133.56 230.509 146.076 234.294 158.593C238.08 171.11 240.417 176.25 240.417 176.25C240.417 176.25 231.821 195.36 258.419 203.966C285.017 212.571 342.124 218.829 342.124 218.829L376.154 331.088L392.19 326.785L379.172 197.512L315.526 175.021L319.438 151.552L306.139 157.028L283.967 132.491L274.847 133.56Z" fill="#E6E6E6"/>
<path d="M341.103 243.001L350.572 246.069L368.662 204.814L354.689 200.285L341.103 243.001Z" fill="#A0616A"/>
<path d="M367.886 272.65C367.406 274.261 365.873 275.226 364.463 274.806L345.536 269.162C345.536 269.162 345.906 261.119 339.273 255.632L335.555 266.185L325.791 263.274L332.109 246.406C332.109 246.406 332.244 236.415 339.073 233.323C345.902 230.231 341.313 229.577 341.313 229.577L346.625 219.555L360.862 225.69L355.981 242.452L358.189 261.194L367.145 269.514C367.942 270.254 368.233 271.487 367.886 272.65Z" fill="#2F2E41"/>
<path d="M302.298 158.593L319.438 151.552L359.334 125.737C359.334 125.737 389.844 101.332 392.19 134.265C394.537 167.198 372.633 218.047 372.633 218.047L344.471 210.224L347.332 175.363L310.441 186.364L302.298 158.593Z" fill="#E6E6E6"/>
<path d="M259.078 71.6357L280.714 130.039L310.05 162.504L338.995 143.729L305.55 135.124L306.437 115.567L259.078 71.6357Z" fill="#2F2E41"/>
<path d="M132.017 380.757V382.437H120.367L120.337 380.757L116.307 165.797H131.397L131.427 171.827L132.017 380.757Z" fill="#3F3D56"/>
<path d="M374.451 147.285C372.017 146.089 370.055 144.442 368.764 142.672L344.861 132.743L349.918 121.507L373.622 132.789C375.812 132.73 378.314 133.277 380.747 134.473C386.307 137.205 389.404 142.288 387.666 145.826C385.927 149.364 380.01 150.017 374.451 147.285Z" fill="#A0616A"/>
<path d="M248.249 68.6297L253.778 66.2305C253.778 66.2305 275.629 72.4549 277.585 76.0183C279.541 79.5817 290.493 94.4452 290.493 94.4452L367.939 127.301L360.899 141.383L306.139 127.301L276.412 96.0098L248.249 68.6297Z" fill="#2F2E41"/>
<path d="M239.644 63.9359L213.829 62.3713L200.53 69.4119L215.393 135.124C215.393 135.124 259.164 116.349 278.349 122.216C278.349 122.216 285.288 104.238 273.027 93.8655L252.943 67.0651L239.644 63.9359Z" fill="#6A33EB"/>
<path d="M212.264 66.2828L212.015 63.7455L186.449 73.3234C186.449 73.3234 177.061 80.364 173.932 83.4931C170.803 86.6223 161.415 92.8806 161.415 92.8806L169.238 64.7182L156.722 59.2422C156.722 59.2422 119.172 108.526 137.164 112.438C155.157 116.349 186.449 109.309 186.449 109.309L188.013 196.143L253.334 198.098L226.345 107.744L212.264 66.2828Z" fill="#2F2E41"/>
<path d="M231.732 58.8676C243.95 58.8676 253.855 48.9629 253.855 36.7448C253.855 24.5268 243.95 14.6221 231.732 14.6221C219.514 14.6221 209.61 24.5268 209.61 36.7448C209.61 48.9629 219.514 58.8676 231.732 58.8676Z" fill="#A0616A"/>
<path d="M221.26 0.961708C207.121 3.15015 207.795 8.40405 203.268 11.1315C195.291 15.9365 192.144 29.8122 196.357 38.9686C197.482 41.415 199.855 44.7525 198.704 48.356C197.82 51.1223 195.271 52.7542 194.792 53.0498C190.875 55.4686 193.434 52.591 191.663 54.6143C189.709 56.8477 192.736 60.0023 190.881 64.0018C189.236 67.5475 185.845 67.2482 185.405 69.4778C184.646 73.3172 193.351 81.0369 202.615 80.4299C210.864 79.8894 216.991 72.916 219.043 66.3487C220.418 61.9494 221.01 54.3824 217.479 50.7029C216.983 50.1869 215.629 48.9371 214.349 46.7915C213.337 45.0935 212.004 42.8583 212.785 41.3154C213.617 39.6717 215.976 40.5369 217.479 38.9686C219.516 36.8417 217.095 33.2484 217.479 29.5811C218.128 23.3713 226.926 15.9026 236.254 17.0645C246.835 18.3825 250.716 29.8883 251.117 31.1457C251.949 33.7517 251.933 36.273 251.899 41.3154C251.852 48.5518 251.822 53.0873 249.552 57.7435C246.288 64.4405 242.13 63.7169 240.947 68.6955C239.103 76.4579 247.778 84.2537 248.77 85.1236C256.126 91.5721 267.237 93.511 269.11 90.5996C270.797 87.976 263.388 83.8949 263.634 75.7361C263.847 68.6658 269.568 66.5105 268.327 61.6549C266.961 56.31 259.672 57.5293 256.593 51.4852C253.719 45.8436 259.016 42.7135 258.158 31.1457C257.976 28.6987 257.208 21.6756 252.682 14.7176C250.688 11.6523 248.66 8.53468 244.859 6.89475C240.604 5.05887 228.74 -0.195872 221.26 0.961708Z" fill="#2F2E41"/>
<path d="M211.873 20.5189C212.447 25.3631 219.721 27.7371 222.825 28.3418C224.14 28.5979 228.582 29.4632 232.995 27.5595C234.626 26.8558 235.22 26.2194 236.906 25.9949C239.189 25.691 240.339 26.5593 243.947 27.5595C247.959 28.6717 249.965 29.2279 250.987 28.3418C252.66 26.8933 251.375 22.1548 249.423 18.9543C245.813 13.0364 239.206 11.2039 236.124 10.3491C232.603 9.37262 225.458 7.39092 218.914 11.1314C218.039 11.6315 211.29 15.5971 211.873 20.5189Z" fill="#2F2E41"/>
<path d="M382.962 147.437C372.523 152.305 368.373 145.947 368.373 145.947L368.377 144.052L368.408 119.676C375.68 114.931 387.951 121.824 387.951 121.824L383.229 146.065L382.962 147.437Z" fill="#3F3D56"/>
<path d="M386.34 117.367C386.34 117.367 375.546 112.745 369.717 116.226C369.717 116.226 363.637 122.387 368.398 124.178L387.139 125.994C387.139 125.994 391.401 123.136 389.543 120.785C387.684 118.433 386.34 117.367 386.34 117.367Z" fill="#4360F6"/>
<path d="M0.307373 310.797L9.30737 383.797L78.3074 382.797L79.1578 310.797H0.307373Z" fill="#F2F2F2"/>
<path d="M57.6159 298.659C55.5499 298.788 54.4081 296.222 55.9711 294.726L56.1266 294.107C56.1063 294.058 56.0858 294.009 56.0652 293.96C53.9709 288.967 50.2212 293.68 44.8175 294.015C36.8703 294.508 36.989 300.519 40.0677 307.547C40.9034 309.455 33.809 294.061 33.809 283.726C33.809 281.13 33.9511 278.533 34.2417 275.943C34.4807 273.825 34.8101 271.719 35.2365 269.633C37.5422 258.356 42.535 247.615 49.7366 238.643C53.1986 236.751 56.0856 233.793 57.8295 230.247C58.456 228.968 63.8387 227.888 64.0713 226.486C63.6773 226.538 57.6939 220.242 57.991 219.874C57.442 219.041 56.4592 218.627 55.8596 217.814C52.8773 213.77 48.7684 214.476 46.6234 219.971C42.0411 222.284 41.9968 226.119 44.8084 229.808C46.5972 232.155 46.843 235.33 48.4125 237.842C48.251 238.049 48.0831 238.249 47.9216 238.456C47.8596 238.536 47.7977 238.615 47.7359 238.695C45.2026 241.973 40.144 241.134 38.7332 237.238C38.6303 236.954 37.7571 252.344 38.4142 236.415C39.0713 220.486 33.3422 228.595 30.4417 224.922C26.9773 220.534 19.93 222.528 19.3195 228.085C19.3137 228.138 19.308 228.191 19.3024 228.245C19.7313 228.487 20.1515 228.744 20.562 229.015C22.9013 230.562 22.092 234.189 19.32 234.616L19.2572 234.626C19.4122 236.17 19.677 237.7 20.0645 239.205C16.3636 253.518 24.3507 258.733 35.7577 258.969L36.3521 259.815C35.2719 262.923 34.403 266.106 33.7509 269.329C33.1373 272.32 32.711 275.343 32.472 278.378L32.4621 278.508C32.2642 281.091 28.9967 282.189 27.3545 280.186C26.9365 279.676 26.5088 279.23 26.0777 278.876C21.1321 274.813 14.1449 273.317 8.80946 270.051C6.24113 268.479 2.95001 270.511 3.39825 273.489L3.42007 273.631C4.2145 273.954 4.98954 274.329 5.73878 274.748C6.16806 274.991 6.5886 275.248 6.99937 275.52C9.33907 277.067 8.52911 280.694 5.75634 281.12L5.69352 281.13C5.64832 281.136 5.60955 281.143 5.56441 281.149L5.60546 281.246C7.38928 285.443 11.6528 288.16 16.2057 287.912C21.5649 287.618 28.2218 292.099 34.0932 300.022L34.0997 300.022C35.2622 305.086 36.9609 310.033 39.1441 314.748H57.1642C57.2289 314.548 57.287 314.341 57.3451 314.141C55.6787 314.244 53.9994 314.148 52.3589 313.844C53.6959 312.203 55.0328 310.55 56.3698 308.909C56.4021 308.877 56.428 308.845 56.4538 308.813C57.132 307.973 57.8166 307.14 58.4948 306.3L58.4951 306.299C58.5376 303.722 58.2281 301.152 57.6159 298.659Z" fill="#4AD0CE"/>
</g>
<defs>
<clipPath id="clip0_120_330">
<rect width="421.385" height="383" fill="white" transform="translate(0.307373 0.796875)"/>
</clipPath>
</defs>
</svg>
