<svg width="392" height="331" viewBox="0 0 392 331" fill="none" xmlns="http://www.w3.org/2000/svg">
<g clip-path="url(#clip0_120_316)">
<path d="M377.49 271.526H14.5106C6.74786 271.526 0.432129 265.21 0.432129 257.447V213.76H391.568V257.447C391.568 265.21 385.253 271.526 377.49 271.526Z" fill="#E6E6E6"/>
<path d="M242.978 264.218H150.414V330.335H242.978V264.218Z" fill="#E6E6E6"/>
<path d="M248.546 321.983H144.846V330.335H248.546V321.983Z" fill="#E6E6E6"/>
<path d="M391.22 232.203H0.432129V10.1064C0.432129 4.77926 4.76632 0.445068 10.0935 0.445068H381.559C386.886 0.445068 391.22 4.77926 391.22 10.1064V232.203Z" fill="#3F3D56"/>
<path d="M381.824 10.5366H9.47974V220.024H381.824V10.5366Z" fill="white"/>
<path d="M81.5887 135.397C84.4385 133.042 87.9636 132.603 89.4619 134.417C90.9602 136.231 89.8644 139.61 87.0132 141.965C85.8872 142.922 84.5485 143.595 83.1091 143.928L70.9082 153.752L66.4197 147.929L78.9242 138.861C79.5229 137.51 80.4366 136.322 81.5887 135.397Z" fill="#FFB6B6"/>
<path d="M11.0689 157.564C11.0627 157.13 11.0668 153.34 13.8727 150.944C17.0959 148.192 21.644 149.306 23.2392 149.697C26.9241 150.599 27.2264 152.18 30.6869 153.804C37.1613 156.843 29.0492 155.288 32.9016 154.313C34.2351 153.976 53.4194 152.645 58.1947 149.706C67.4821 143.99 73.8102 140.524 73.8102 140.524L77.9471 148.797C77.9471 148.797 71.9652 157.115 63.5463 163.277C54.9103 169.597 50.5924 172.758 44.0302 173.979C43.4651 174.084 29.567 176.457 18.3732 168.094C15.8199 166.186 11.1418 162.691 11.0689 157.564Z" fill="#6A33EB"/>
<path d="M23.9015 136.522C31.8605 136.522 38.3125 130.07 38.3125 122.111C38.3125 114.152 31.8605 107.7 23.9015 107.7C15.9425 107.7 9.49048 114.152 9.49048 122.111C9.49048 130.07 15.9425 136.522 23.9015 136.522Z" fill="#FFB6B6"/>
<path d="M136.763 218.93L121.922 203.738L114.26 211.73L125.318 226.296L136.286 227.551L136.763 218.93Z" fill="#FFB6B6"/>
<path d="M52.0183 190.442C52.8864 190.514 55.645 191.067 58.2817 189.616C60.0811 188.626 61.004 187.154 61.3157 186.686C65.1827 180.878 80.025 171.822 93.3456 171.264C96.3622 171.138 98.3478 171.488 100.152 172.428C102.712 173.762 103.733 175.673 106.981 180.149C108.757 182.598 110.722 184.904 112.52 187.337C123.045 201.58 127.035 202.698 126.627 207.265C126.175 212.331 120.711 217.137 117.079 216.583C115.592 216.355 115.016 215.321 113.029 213.228C107.203 207.089 104.793 208.223 100.645 203.522C95.8018 198.033 96.4358 193.481 93.9092 193.305C91.5662 193.142 90.5705 197.025 85.5683 202.183C83.2794 204.543 81.6495 205.626 76.6839 209.071C57.3466 222.486 57.0379 223.429 53.1355 224.499C51.428 224.967 39.3097 228.289 34.9927 223.002C28.2373 214.728 44.1965 189.792 52.0183 190.442Z" fill="#2F2E41"/>
<path d="M132.226 222.363C133.317 221.873 134.594 221.3 135.004 219.982C135.282 219.09 135.122 217.991 134.548 217.231C133.885 216.354 132.904 216.239 132.944 216.084C133.004 215.848 135.324 215.94 137.87 216.84C138.35 217.01 140.527 217.805 143.295 219.966C145.514 221.698 145.215 222.045 146.606 223.044C150.876 226.109 154.881 223.693 157.191 226.568C158.083 227.677 158.463 229.253 158.088 230.526C157.335 233.084 153.67 233.964 151.667 234.418C146.843 235.513 143.192 234.619 139.38 233.977C126.414 231.792 119.129 233.782 118.154 230.778C117.97 230.21 118.27 230.258 119.269 226.086C120.256 221.969 120.224 220.838 121.064 220.508C122.329 220.012 123.178 222.27 126.365 223.042C129.188 223.727 131.518 222.681 132.226 222.363Z" fill="#2F2E41"/>
<path d="M110.378 268.629L106.628 247.724L95.8013 250.035L96.7712 268.297L105.142 275.494L110.378 268.629Z" fill="#FFB6B6"/>
<path d="M56.2527 197.469C56.9305 198.016 58.9027 200.022 61.899 200.302C63.9439 200.494 65.5342 199.794 66.055 199.582C72.516 196.947 89.8829 197.788 101.218 204.807C103.785 206.396 105.232 207.801 106.197 209.592C107.565 212.133 107.338 214.288 107.511 219.815C107.606 222.839 107.937 225.851 108.058 228.874C108.769 246.569 111.443 249.735 108.541 253.284C105.322 257.222 98.1018 258.131 95.4084 255.633C94.3054 254.61 94.4096 253.431 93.941 250.582C92.5671 242.232 89.9358 241.817 89.1437 235.597C88.219 228.336 91.2994 224.926 89.3074 223.361C87.4602 221.911 84.456 224.564 77.4206 226.023C74.2013 226.691 72.2446 226.672 66.2014 226.734C42.6676 226.976 41.8828 227.582 38.0529 226.276C36.3773 225.705 24.4842 221.649 23.8811 214.85C22.9374 204.21 50.1454 192.539 56.2527 197.469Z" fill="#2F2E41"/>
<path d="M104.695 268.921C105.874 269.129 107.252 269.371 108.332 268.511C109.062 267.93 109.547 266.93 109.499 265.979C109.443 264.881 108.696 264.235 108.816 264.129C108.999 263.967 110.866 265.346 112.467 267.52C112.769 267.931 114.124 269.811 115.201 273.154C116.064 275.833 115.622 275.953 116.212 277.56C118.024 282.494 122.695 282.744 122.992 286.42C123.107 287.839 122.537 289.356 121.512 290.199C119.452 291.892 115.925 290.562 114.013 289.814C109.407 288.01 106.887 285.221 104.093 282.548C94.592 273.46 87.4468 271.016 88.3267 267.983C88.4933 267.409 88.7142 267.617 91.884 264.727C95.0126 261.874 95.6208 260.92 96.5013 261.119C97.8266 261.418 97.2617 263.764 99.4644 266.192C101.416 268.344 103.932 268.787 104.695 268.921Z" fill="#2F2E41"/>
<path d="M25.8662 124.866C26.4272 122.859 25.7225 122.128 26.4407 121.227C26.4408 121.227 26.7298 120.865 29.3137 119.887C28.5513 115.463 29.1221 114.715 29.1222 114.715C29.78 113.853 31.0979 113.645 31.9951 113.758C33.8926 113.996 34.2285 115.711 35.4426 115.673C37.1198 115.62 39.1315 112.262 38.5071 109.352C37.9978 106.979 35.8016 105.216 35.2511 105.522C34.7053 105.825 32.7403 104.488 31.9951 104.756C31.4862 104.939 29.0907 104.695 28.5476 104.947C27.9544 105.223 26.2557 106.936 26.0933 106.72C24.9647 105.22 24.9887 104.696 24.3339 104.373C23.1737 103.8 21.9123 104.859 19.7372 105.905C15.262 108.058 13.9516 106.773 11.8845 108.586C10.8403 109.502 10.2804 111.252 9.20312 114.715C7.69656 119.558 6.9433 121.98 7.67088 124.292C8.41289 126.65 9.50559 126.136 11.1184 129.463C12.9137 133.166 12.295 135.319 13.9914 136.167C15.3024 136.822 17.4095 136.405 18.205 135.209C19.567 133.161 16.0466 130.392 17.2474 127.165C17.9844 125.184 20.2582 123.682 21.6525 124.1C23.2291 124.573 23.3452 127.4 24.3339 127.356C25.1806 127.319 25.7684 125.216 25.8662 124.866Z" fill="#2F2E41"/>
<path d="M14.9491 138.656C17.8981 135.35 29.9101 138.772 31.0375 144.019C31.5012 146.177 29.7893 147.089 30.2714 149.574C30.9765 153.208 34.9691 152.96 37.9326 156.66C42.1399 161.913 37.8055 167.047 42.5293 175.813C43.5387 177.686 44.3894 179.265 46.1683 180.793C50.2504 184.299 54.0493 183.097 56.1278 186.347C57.6822 188.778 57.0436 191.774 56.894 192.476C56.2805 195.354 54.6179 196.055 53.4464 198.414C51.4973 202.337 53.7042 205.218 53.8295 209.905C53.9863 215.771 50.8694 223.901 44.6361 226.568C37.6332 229.565 29.1872 224.602 25.1001 219.673C22.6613 216.732 21.9534 214.02 20.8865 210.671C16.1181 195.707 13.4243 197.06 9.77777 185.198C5.60917 171.637 4.78967 155.75 9.77777 150.723C10.4389 150.056 12.2584 148.516 13.4168 145.743C14.9756 142.011 13.629 140.137 14.9491 138.656Z" fill="#6A33EB"/>
<path d="M58.5234 215.628C60.8098 218.533 61.1642 222.068 59.3152 223.523C57.4662 224.977 54.1145 223.802 51.8276 220.895C50.8982 219.747 50.2573 218.392 49.9586 216.946L40.4265 204.515L45.3519 200.758L55.1229 212.882C56.4595 213.513 57.6255 214.455 58.5234 215.628Z" fill="#FFB6B6"/>
<path d="M23.6138 151.258C24.0379 151.163 27.7491 150.394 30.6667 152.652C34.0183 155.246 33.856 159.926 33.799 161.567C33.6675 165.358 32.1817 165.977 31.2977 169.696C29.644 176.654 32.7934 183.121 34.5334 186.693C35.1357 187.93 37.0706 191.714 40.9223 195.789C48.4133 203.715 55.0972 207.885 55.0972 207.885L47.9168 214.268C47.9168 214.268 36.4792 210.781 28.7292 203.797C20.7794 196.632 8.55396 171.283 6.0196 165.108C5.80135 164.577 8.89293 173.222 14.7959 160.557C16.1423 157.668 18.6093 152.375 23.6138 151.258Z" fill="#6A33EB"/>
<path d="M207.389 145.312L198.816 141.251C202.333 146.158 205.363 153.822 206.985 159.921C209.731 154.24 214.159 147.289 218.541 143.137L209.48 145.468C215.064 118.104 236.064 98.4596 260.112 98.4596L260.453 97.4712C235.334 97.4712 213.09 116.843 207.389 145.312Z" fill="#3F3D56"/>
<path d="M246.849 187.006H192.68C190.382 187.006 188.513 185.136 188.513 182.839C188.513 180.541 190.382 178.672 192.68 178.672H246.849C249.147 178.672 251.016 180.541 251.016 182.839C251.016 185.136 249.147 187.006 246.849 187.006Z" fill="#6A33EB"/>
<path d="M318.928 187.006H264.759C262.461 187.006 260.592 185.136 260.592 182.839C260.592 180.541 262.461 178.672 264.759 178.672H318.928C321.226 178.672 323.095 180.541 323.095 182.839C323.095 185.136 321.226 187.006 318.928 187.006Z" fill="#E6E6E6"/>
<path d="M286.86 73.6496H234.205C232.878 73.6496 231.798 72.5695 231.798 71.242C231.798 69.9145 232.878 68.8349 234.205 68.8349H286.86C288.188 68.8349 289.268 69.9145 289.268 71.242C289.268 72.5695 288.188 73.6496 286.86 73.6496Z" fill="#3F3D56"/>
<path d="M315.116 99.3347H205.95C204.622 99.3347 203.542 98.2546 203.542 96.9271C203.542 95.5996 204.622 94.52 205.95 94.52H315.116C316.443 94.52 317.523 95.5996 317.523 96.9271C317.523 98.2546 316.443 99.3347 315.116 99.3347Z" fill="#3F3D56"/>
<path d="M108.137 146.108C108.045 146.108 107.952 146.105 107.859 146.099C102.375 145.747 83.6107 143.092 72.4086 123.723C71.4855 122.128 71.6674 120.101 72.8609 118.679L93.6067 93.9608C94.455 92.95 95.7656 92.3676 97.0929 92.3836C98.0102 92.4055 100.182 92.6372 100.604 94.3115C103.096 104.204 113.62 115.835 126.276 117.377C127.558 117.533 128.588 118.677 129.03 120.438C129.375 121.809 129.056 123.222 128.156 124.315L111.537 144.496C110.692 145.52 109.453 146.108 108.137 146.108ZM97.0132 93.3779C95.9994 93.3779 95.0134 93.8321 94.3688 94.6001L73.6232 119.318C72.6974 120.421 72.5556 121.991 73.2696 123.225C84.2247 142.166 102.563 144.762 107.923 145.106C109.017 145.18 110.068 144.713 110.769 143.863L127.388 123.682C128.086 122.836 128.332 121.742 128.066 120.68C127.805 119.641 127.166 118.487 126.155 118.364C113.081 116.772 102.212 104.765 99.6394 94.5544C99.431 93.7277 98.1765 93.4047 97.0722 93.3784C97.0525 93.378 97.0329 93.3779 97.0132 93.3779Z" fill="#3F3D56"/>
<path d="M84.9807 124.537L99.9374 109.286C100.96 108.244 99.3581 106.64 98.3344 107.683L83.3776 122.933C82.3552 123.976 83.957 125.58 84.9807 124.537Z" fill="#E6E6E6"/>
<path d="M94.0079 128.833C98.1358 125.133 101.723 120.849 104.66 116.149C105.436 114.908 103.475 113.769 102.703 115.004C99.8629 119.549 96.3951 123.654 92.4049 127.23C91.3161 128.206 92.9238 129.805 94.0079 128.833Z" fill="#E6E6E6"/>
<path d="M102.144 133.978C105.902 129.814 109.102 125.168 111.62 120.156C112.274 118.856 110.319 117.707 109.663 119.012C107.229 123.854 104.173 128.351 100.541 132.375C99.5657 133.455 101.164 135.063 102.144 133.978Z" fill="#E6E6E6"/>
<path d="M95.7362 106.523C104.064 106.523 110.816 99.9136 110.816 91.761C110.816 83.6083 104.064 76.9993 95.7362 76.9993C87.408 76.9993 80.6567 83.6083 80.6567 91.761C80.6567 99.9136 87.408 106.523 95.7362 106.523Z" fill="#4360F6"/>
<path d="M103.582 98.7633C101.263 93.0613 98.9439 87.3594 96.6248 81.6575C96.3045 80.87 95.3011 80.842 94.9885 81.6575C92.697 87.6355 91.1996 93.8733 90.4797 100.233C90.3571 101.317 92.055 101.308 92.1766 100.233C92.4583 97.7445 92.8765 95.2743 93.4134 92.8305C95.3244 92.9307 97.2512 92.7163 99.0953 92.2058C100.046 94.542 100.996 96.8782 101.946 99.2143C102.352 100.213 103.994 99.776 103.582 98.7633ZM93.7982 91.1529C94.3698 88.8134 95.055 86.5016 95.8501 84.227L98.4508 90.6212C96.9275 91.021 95.3696 91.1989 93.7982 91.1529Z" fill="white"/>
</g>
<defs>
<clipPath id="clip0_120_316">
<rect width="391.136" height="329.89" fill="white" transform="translate(0.432129 0.445068)"/>
</clipPath>
</defs>
</svg>
