<svg width="324" height="390" viewBox="0 0 324 390" fill="none" xmlns="http://www.w3.org/2000/svg">
<g clip-path="url(#clip0_118_296)">
<path d="M294.552 345.266C294.46 345.266 294.368 345.265 294.276 345.264L50.9224 342.425C37.0907 342.247 25.95 330.883 26.0473 317.074C8.86697 260.129 1.29713 215.287 1.50413 171.689C1.72024 126.185 10.718 79.8965 29.8191 26.0267C30.041 12.3103 41.297 1.26587 55.0098 1.26587C55.0985 1.26587 55.1872 1.26642 55.2759 1.26725L298.63 4.11203C312.493 4.2907 323.649 15.7021 323.499 29.55L323.006 71.7272L322.64 71.7313L319.735 320.416C319.557 334.175 308.286 345.266 294.552 345.266ZM55.0095 2.39693C41.8823 2.39693 31.1141 12.9927 30.9497 26.1352L30.9486 26.2288L30.9171 26.3169C-5.55942 129.146 -6.54382 205.168 27.1561 316.83L27.1809 316.912L27.1801 316.999C27.0422 330.225 37.699 341.123 50.9362 341.294L294.289 344.133C294.377 344.134 294.465 344.135 294.553 344.135C307.669 344.135 318.433 333.543 318.603 320.402L321.285 90.8863L321.297 89.756L321.608 63.5126L321.969 63.5095L322.367 29.5373C322.51 16.3124 311.856 5.41374 298.616 5.24309L55.2635 2.39831C55.1795 2.39749 55.0933 2.39693 55.0095 2.39693Z" fill="#F2F2F2"/>
<path d="M272.5 243.266L272.483 244.266H133.5V243.266H272.5Z" fill="#F2F2F2"/>
<path d="M273.5 219.266L273.489 220.266H133.5V219.266H273.5Z" fill="#F2F2F2"/>
<path d="M273.5 195.266L273.489 196.266H133.5V195.266H273.5Z" fill="#F2F2F2"/>
<path d="M272.5 270.132L272.489 271.266H130.5V152.266L131.633 152.277V223.49C131.633 230.781 133.305 237.681 136.286 243.826C136.473 244.206 136.66 244.586 136.859 244.96C144.623 259.916 160.253 270.132 178.264 270.132H272.5Z" fill="#F2F2F2"/>
<path d="M75.6347 329.261C62.0384 329.086 51.149 317.926 51.2925 304.312C18.911 196.803 16.8831 120.349 55.0633 12.4872C55.1397 8.19462 56.3472 3.99862 58.5634 0.323596L53.7687 0.267271C40.1721 0.123718 29.025 11.0264 28.8502 24.6394C-9.33019 132.501 -7.3022 208.955 25.0793 316.464C24.9356 330.078 35.8252 341.238 49.4216 341.413L293.082 344.265C301.892 344.338 310.066 339.679 314.5 332.056L75.6347 329.261Z" fill="#F2F2F2"/>
<path d="M111.451 200.646C111.84 203.033 109.849 205.259 107.377 205.19L99.1726 223.266L93.5 222.277L103.405 200.877C103.567 199.095 104.952 197.585 106.842 197.31C109.057 196.987 111.121 198.48 111.451 200.646Z" fill="#FFB6B6"/>
<path d="M67.3639 257.252C69.7252 259.685 73.5505 259.946 76.2235 257.858L95.8004 242.561L105.5 212.515L98.4479 209.266L85.1989 235.587L68.3505 247.235C64.9916 249.557 64.5221 254.324 67.3639 257.252Z" fill="#6A33EB"/>
<path d="M72.1266 247.266C71.6127 246.919 71.0642 246.612 70.4983 246.35C70.5099 246.202 70.5156 246.049 70.5156 245.901C70.5445 244.405 70.2442 242.909 69.6322 241.539C69.713 242.744 69.3377 243.973 68.5986 244.934C68.4715 245.105 68.3329 245.264 68.1828 245.417C68.1424 245.457 68.102 245.497 68.0615 245.531C67.2474 245.349 66.4043 245.264 65.5671 245.275C64.6374 245.292 63.7135 245.417 62.7954 245.594C61.6463 245.81 60.503 246.111 59.3597 246.362C59.2904 246.379 59.2269 246.39 59.1576 246.407C58.6322 245.002 57.8064 243.717 56.7324 242.659C57.2463 243.751 57.3503 245.031 57.0154 246.191C56.9576 246.396 56.8883 246.595 56.8017 246.788C55.5545 246.913 54.3072 246.879 53.112 246.538C52.6038 246.396 52.1246 246.202 51.6568 245.975C50.0054 245.179 48.5156 243.996 46.8122 243.285C45.8941 242.898 44.924 242.659 43.9309 242.562C43.0994 237.87 43.3303 233.707 45.8826 230.698C45.8826 223.834 51.5356 218.266 58.5051 218.266L64.291 220.245L70.1345 222.247C72.8831 229.47 77.2542 235.829 72.1266 247.266Z" fill="#2F2E41"/>
<path d="M80.9012 376.427L84.7858 378.269L93.8985 363.829L88.1653 361.11L80.9012 376.427Z" fill="#FFB6B6"/>
<path d="M90.2405 386.801L86.0925 379.616L87.4108 376.836L86.0389 376.281L81.7826 374.569L80.7402 374.147L75.2655 383.576L78.1806 384.957L80.0047 382.453L80.0285 385.835L87.7517 389.498C88.7116 389.953 89.8591 389.541 90.3122 388.585C90.5826 388.014 90.5558 387.348 90.2405 386.801Z" fill="#2F2E41"/>
<path d="M138.268 321.429L141.367 318.448L131.089 304.812L126.516 309.211L138.268 321.429Z" fill="#FFB6B6"/>
<path d="M151.277 316.369L143.088 317.703L140.956 315.486L139.951 316.572L136.842 319.946L136.078 320.772L142.958 329.231L145.281 326.994L143.586 324.401L146.757 325.577L152.918 319.651C153.683 318.914 153.704 317.696 152.97 316.933C152.533 316.478 151.901 316.267 151.277 316.369Z" fill="#2F2E41"/>
<path d="M72.4141 296.663L56.9532 293.266L57.0569 297.917C57.0569 297.917 40.9198 310.251 55.808 322.141C70.6962 334.031 95.8916 335.163 95.8916 335.163L84.4391 368.001L90.1654 370.266L112.711 339.824C115.747 334.366 114.889 327.489 110.366 323.153C109.491 322.314 108.489 321.575 107.344 321.009C100.473 317.611 82.1487 310.817 82.1487 310.817L72.9867 301.759L72.4141 296.663Z" fill="#2F2E41"/>
<path d="M72.5 305.489L103.783 285.698C107.293 283.477 111.865 283.871 114.939 286.659L138.5 312.219L132.295 317.266L108.038 300.442C108.038 300.442 93.9359 316.144 89.9872 316.144C86.0385 316.144 72.5 305.489 72.5 305.489Z" fill="#2F2E41"/>
<path d="M54.9472 306.763C54.9472 306.763 45.1903 301.32 49.7823 296.712C54.3743 292.104 54.9472 277.534 54.9472 277.534L47.5 255.457L53.2286 251.511L54.9472 244.83L65.2587 244.266V249.256L75.5881 260.511C79.0983 264.336 80.1586 269.763 78.3397 274.596L75.5702 281.956C75.5702 281.956 83.5902 302.816 76.7159 305.635C69.8416 308.454 54.9472 306.763 54.9472 306.763Z" fill="#6A33EB"/>
<path d="M106.342 225.771L79.769 201.585C75.7552 197.955 75.3867 191.694 78.9458 187.6C82.505 183.506 88.6443 183.13 92.6581 186.76L92.7038 186.802L119.277 210.988C123.268 214.644 123.598 220.908 120.013 224.978C116.445 229.031 110.338 229.385 106.342 225.771Z" fill="#4AD0CE"/>
<path d="M62.5 242.266C68.0228 242.266 72.5 237.565 72.5 231.766C72.5 225.967 68.0228 221.266 62.5 221.266C56.9772 221.266 52.5 225.967 52.5 231.766C52.5 237.565 56.9772 242.266 62.5 242.266Z" fill="#FFB6B6"/>
<path d="M67.7252 229.766C67.6497 228.615 67.3535 227.474 66.8658 226.417C66.9471 227.585 66.5697 228.775 65.8265 229.706C65.809 229.728 65.7916 229.744 65.78 229.766C63.8609 230.651 60.6254 230.151 57.5 229.766V218.748H63.8871C70.1581 216.743 75.32 221.106 75.5 229.766C72.4914 230.283 69.6714 230.567 67.7252 229.766Z" fill="#2F2E41"/>
<path d="M62.5228 245.014C61.3857 245.228 60.2543 245.528 59.1229 245.776C59.0543 245.793 58.9914 245.804 58.9229 245.821C58.4029 244.426 57.5857 243.15 56.5228 242.1C57.0314 243.184 57.1343 244.455 56.8029 245.607C56.7457 245.81 56.6771 246.008 56.5914 246.2C55.3571 246.324 54.1229 246.29 52.94 245.951C52.4372 245.81 51.9629 245.618 51.5 245.392V221.266H63.5C58.8428 229.105 58.18 237.011 62.5228 245.014Z" fill="#2F2E41"/>
<path d="M60.4465 216.662C60.233 216.001 59.4189 215.685 58.7255 215.792C58.032 215.898 57.4346 216.317 56.8659 216.724C57.4198 216.127 57.1379 215.075 56.46 214.621C55.782 214.167 54.8756 214.198 54.093 214.436C53.3104 214.674 52.5976 215.094 51.8332 215.384C51.0687 215.675 50.1972 215.829 49.4402 215.52C49.7348 216.437 50.3047 217.266 51.0588 217.874C50.1668 217.72 49.2002 218.177 48.7619 218.961C48.3236 219.745 48.4456 220.798 49.0518 221.463C49.7476 222.227 50.9246 222.406 51.9353 222.167C52.946 221.927 53.8307 221.337 54.6828 220.749C55.5349 220.16 56.4002 219.55 57.3974 219.261L54.1197 221.3C55.7937 220.61 57.4178 219.802 58.9756 218.883C59.3921 218.638 59.8124 218.377 60.1168 218.004C60.4212 217.63 60.594 217.119 60.4465 216.662Z" fill="#2F2E41"/>
<path d="M44.2065 318.332C44.1294 315.815 46.3867 314.029 48.6944 313.568C51.6266 312.981 54.6199 314.49 57.1044 315.861C61.5442 318.311 66.6952 315.882 71.4391 318.856C78.4417 323.247 79.8882 316.67 79.4472 308.905C79.1219 303.178 80.5119 297.554 80.8079 291.92C81.0929 286.495 82.5734 280.983 87.1825 277.613C89.1175 276.198 91.5278 275.361 93.9303 275.857C96.4964 276.387 98.5463 278.228 101.019 279.029C105.62 280.52 110.46 278.508 113.91 275.44C117.924 271.872 119.884 266.853 121.263 261.792C122.693 256.544 123.566 251.049 126.188 246.214C128.426 242.089 131.94 238.281 136.784 237.494C141.53 236.723 146.077 239.045 150.174 241.124C154.39 243.264 158.748 245.583 163.578 245.782C173.929 246.21 181.924 237.422 186.41 229.066C191.53 219.529 194.499 207.956 203.595 201.214C207.505 198.316 212.466 196.292 217.405 197.105C222.397 197.925 226.045 201.539 229.36 205.07C232.756 208.688 236.128 212.252 240.729 214.335C245.244 216.38 250.289 217.146 255.208 216.498C257.583 216.185 259.856 215.536 262.054 214.589C263.058 214.156 262.191 212.691 261.194 213.12C256.374 215.198 250.887 215.558 245.802 214.308C240.693 213.052 236.622 210.2 233.014 206.466C229.711 203.048 226.605 199.157 222.285 196.96C217.914 194.738 212.903 194.795 208.392 196.587C203.818 198.405 199.855 201.62 196.851 205.486C193.361 209.976 191.04 215.24 188.706 220.384C184.489 229.682 179.083 240.662 168.294 243.552C158.079 246.288 150.521 237.268 140.992 235.836C136.308 235.132 131.874 236.751 128.557 240.09C125.123 243.546 123.138 248.118 121.826 252.737C120.219 258.396 119.392 264.457 116.441 269.639C114.108 273.735 109.788 277.533 104.878 277.817C102.066 277.98 99.9121 276.685 97.5083 275.434C95.3412 274.306 93.0785 273.725 90.6428 274.2C86.0808 275.088 82.5364 279.111 80.7943 283.212C76.4972 293.327 82.4146 306.326 74.0025 314.976C72.465 316.557 70.493 317.746 68.2664 317.988C65.2833 318.312 62.4941 316.926 59.9655 315.52C55.5976 313.092 50.0674 309.845 45.2801 313.216C43.5813 314.411 42.4378 316.216 42.5026 318.332C42.5361 319.423 44.24 319.428 44.2065 318.332Z" fill="#4360F6"/>
<path d="M214.5 201.266C217.261 201.266 219.5 198.803 219.5 195.766C219.5 192.728 217.261 190.266 214.5 190.266C211.739 190.266 209.5 192.728 209.5 195.766C209.5 198.803 211.739 201.266 214.5 201.266Z" fill="#6A33EB"/>
<path d="M166.5 249.266C169.261 249.266 171.5 247.027 171.5 244.266C171.5 241.504 169.261 239.266 166.5 239.266C163.739 239.266 161.5 241.504 161.5 244.266C161.5 247.027 163.739 249.266 166.5 249.266Z" fill="#6A33EB"/>
<path d="M137.633 89.8048C140.761 83.3131 148.877 79.6978 155.795 81.7138C159.692 82.8495 162.961 85.4589 166.544 87.3659C170.128 89.2728 174.574 90.4571 178.178 88.5906C184.374 85.3822 183.996 75.8032 189.386 71.3714C192.973 68.4216 198.236 68.5595 202.669 69.9424C207.103 71.3254 211.157 73.7669 215.62 75.0539C223.923 77.4489 233.366 75.4348 239.97 69.8599C240.036 69.8042 240.101 69.748 240.165 69.6915C243.434 66.8112 248.558 69.1848 248.438 73.5404L247.602 103.915H138.218L137.633 89.8048Z" fill="#F2F2F2"/>
<path d="M233.631 84.3312C233.991 84.1849 233.991 83.6799 233.631 83.5337C231.116 82.5137 228.3 81.0615 226.148 79.4819C225.803 79.229 225.343 79.5776 225.488 79.9795L226.713 83.3656H205.753V84.4991H226.713L225.488 87.8863C225.343 88.2883 225.803 88.6369 226.148 88.384C228.3 86.8043 231.116 85.3519 233.631 84.3312Z" fill="#4360F6"/>
<path d="M186.474 78.8719C186.672 78.5373 186.366 78.1354 185.991 78.2373C183.372 78.948 180.251 79.4973 177.582 79.5432C177.155 79.5505 176.999 80.1068 177.358 80.3386L180.383 82.2918L163.701 94.9827L164.388 95.8849L181.07 83.1939L182.146 86.6315C182.273 87.0394 182.851 87.0381 182.972 86.6282C183.728 84.0679 185.09 81.2069 186.474 78.8719Z" fill="#4360F6"/>
<path d="M243.833 77.2646C249.199 77.2646 253.549 72.9148 253.549 67.5489C253.549 62.183 249.199 57.8331 243.833 57.8331C238.467 57.8331 234.117 62.183 234.117 67.5489C234.117 72.9148 238.467 77.2646 243.833 77.2646Z" fill="#6A33EB"/>
<path opacity="0.7" d="M196.226 77.2646C201.592 77.2646 205.942 72.9148 205.942 67.5489C205.942 62.183 201.592 57.8331 196.226 57.8331C190.86 57.8331 186.51 62.183 186.51 67.5489C186.51 72.9148 190.86 77.2646 196.226 77.2646Z" fill="#6A33EB"/>
<path opacity="0.25" d="M153.153 86.3326C158.519 86.3326 162.868 81.9827 162.868 76.6169C162.868 71.251 158.519 66.9011 153.153 66.9011C147.787 66.9011 143.437 71.251 143.437 76.6169C143.437 81.9827 147.787 86.3326 153.153 86.3326Z" fill="#6A33EB"/>
<path d="M271.015 123.294L120.263 122.213C115.417 122.179 111.45 126.089 111.415 130.935C111.381 135.78 115.291 139.748 120.137 139.782L270.889 140.863C275.735 140.897 279.702 136.987 279.737 132.141C279.771 127.296 275.861 123.329 271.015 123.294Z" fill="#F2F2F2"/>
<path d="M97.7419 133.131C99.933 133.131 101.709 131.355 101.709 129.164C101.709 126.973 99.933 125.197 97.7419 125.197C95.5509 125.197 93.7747 126.973 93.7747 129.164C93.7747 131.355 95.5509 133.131 97.7419 133.131Z" fill="#4AD0CE"/>
<path d="M271.015 25.8124L120.263 24.7319C115.417 24.6972 111.45 28.6078 111.415 33.4534C111.381 38.299 115.291 42.2661 120.137 42.3008L270.889 43.3813C275.735 43.416 279.702 39.5054 279.737 34.6598C279.771 29.8142 275.861 25.8471 271.015 25.8124Z" fill="#F2F2F2"/>
<path d="M97.7419 35.6497C99.933 35.6497 101.709 33.8735 101.709 31.6825C101.709 29.4914 99.933 27.7152 97.7419 27.7152C95.5509 27.7152 93.7747 29.4914 93.7747 31.6825C93.7747 33.8735 95.5509 35.6497 97.7419 35.6497Z" fill="#4AD0CE"/>
<path d="M82.1772 349.188H57.4869C55.4115 349.188 53.7231 347.5 53.7231 345.424V320.734C53.7231 318.659 55.4115 316.97 57.4869 316.97H82.1772C84.2526 316.97 85.941 318.659 85.941 320.734V345.424C85.941 347.5 84.2526 349.188 82.1772 349.188Z" fill="white"/>
<path d="M82.1772 349.188H57.4869C55.4115 349.188 53.7231 347.5 53.7231 345.424V320.734C53.7231 318.659 55.4115 316.97 57.4869 316.97H82.1772C84.2526 316.97 85.941 318.659 85.941 320.734V345.424C85.941 347.5 84.2526 349.188 82.1772 349.188ZM57.4869 317.573C55.7408 317.573 54.3253 318.988 54.3253 320.734V345.424C54.3253 347.171 55.7408 348.586 57.4869 348.586H75.083C80.7471 348.586 85.3388 343.994 85.3388 338.33V320.734C85.3388 318.988 83.9233 317.573 82.1772 317.573H57.4869Z" fill="#E6E6E6"/>
<path d="M263.396 324.212C264.581 324.285 265.235 322.84 264.339 321.998L264.25 321.65C264.262 321.623 264.274 321.595 264.285 321.567C265.483 318.763 269.542 318.783 270.729 321.59C271.783 324.082 273.125 326.578 273.456 329.213C273.604 330.376 273.537 331.561 273.274 332.703C275.744 327.407 277.043 321.624 277.043 315.809C277.043 314.348 276.962 312.886 276.795 311.429C276.658 310.237 276.47 309.052 276.225 307.878C274.903 301.532 272.041 295.487 267.913 290.439C265.929 289.374 264.273 287.709 263.274 285.714C262.915 284.994 262.633 284.22 262.5 283.431C262.726 283.46 263.352 280.084 263.181 279.876C263.496 279.408 264.059 279.175 264.403 278.717C266.113 276.442 268.468 276.839 269.698 279.931C272.324 281.232 272.35 283.391 270.738 285.467C269.713 286.787 269.572 288.574 268.672 289.988C268.765 290.104 268.861 290.217 268.953 290.333C270.651 292.471 272.119 294.768 273.357 297.181C273.007 294.499 273.523 291.268 274.404 289.185C275.406 286.812 277.284 284.813 278.938 282.761C280.925 280.297 284.999 281.372 285.349 284.496C285.353 284.527 285.356 284.557 285.359 284.587C285.114 284.723 284.873 284.868 284.638 285.02C283.297 285.891 283.76 287.932 285.349 288.173L285.385 288.178C285.296 289.047 285.145 289.908 284.922 290.755C287.044 298.811 282.463 301.745 275.922 301.877C275.777 301.95 275.637 302.022 275.492 302.091C276.155 303.923 276.684 305.802 277.077 307.707C277.429 309.39 277.673 311.091 277.81 312.799C277.98 314.954 277.965 317.121 277.78 319.272L277.791 319.196C278.262 316.826 279.572 314.613 281.475 313.079C284.31 310.793 288.316 309.951 291.374 308.113C292.847 307.229 294.733 308.372 294.476 310.047L294.464 310.128C294.008 310.309 293.564 310.52 293.135 310.756C292.889 310.893 292.648 311.037 292.413 311.19C291.072 312.06 291.535 314.101 293.125 314.342L293.161 314.347C293.186 314.351 293.209 314.355 293.235 314.358C292.453 316.179 291.365 317.87 290.002 319.327C288.675 326.36 282.977 327.027 276.881 324.979H276.877C276.21 327.828 275.237 330.613 273.985 333.266H263.655C263.618 333.153 263.585 333.037 263.551 332.924C264.507 332.982 265.469 332.928 266.41 332.757C265.643 331.834 264.877 330.903 264.111 329.98C264.092 329.962 264.077 329.944 264.062 329.926C263.674 329.453 263.281 328.984 262.892 328.512L262.892 328.511C262.868 327.061 263.045 325.615 263.396 324.212Z" fill="#4AD0CE"/>
<path d="M59.0566 320.542C56.9853 319.15 56.6862 316.136 58.4521 314.38L50.5 295.711L55.1794 292.266L64.4604 314.508C65.6928 315.876 65.8719 317.946 64.7694 319.519C63.4775 321.362 60.9198 321.82 59.0566 320.542Z" fill="#FFB6B6"/>
<path d="M53.318 253.289C49.8924 253.011 46.8052 255.293 46.1679 258.573L41.5 282.596L55.9737 311.266L63.5 307.893L54.2368 280.909L59.2698 261.361C60.2731 257.464 57.4406 253.622 53.318 253.289Z" fill="#6A33EB"/>
<path d="M59.3684 326.266C58.8895 326.266 58.5 326.602 58.5 327.016V327.516C58.5 327.929 58.8895 328.266 59.3684 328.266H79.6316C80.1105 328.266 80.5 327.929 80.5 327.516V327.016C80.5 326.602 80.1105 326.266 79.6316 326.266H59.3684Z" fill="#E6E6E6"/>
<path d="M59.3684 332.266C58.8895 332.266 58.5 332.602 58.5 333.016V333.516C58.5 333.929 58.8895 334.266 59.3684 334.266H79.6316C80.1105 334.266 80.5 333.929 80.5 333.516V333.016C80.5 332.602 80.1105 332.266 79.6316 332.266H59.3684Z" fill="#E6E6E6"/>
<path d="M59.3684 338.266C58.8895 338.266 58.5 338.771 58.5 339.391V340.141C58.5 340.761 58.8895 341.266 59.3684 341.266H79.6316C80.1105 341.266 80.5 340.761 80.5 340.141V339.391C80.5 338.771 80.1105 338.266 79.6316 338.266H59.3684Z" fill="#E6E6E6"/>
</g>
<defs>
<clipPath id="clip0_118_296">
<rect width="323" height="389.418" fill="white" transform="translate(0.5 0.265869)"/>
</clipPath>
</defs>
</svg>
