<svg width="436" height="408" viewBox="0 0 436 408" fill="none" xmlns="http://www.w3.org/2000/svg">
<g clip-path="url(#clip0_120_339)">
<path d="M337.811 86.762L344.618 89.9864C341.826 86.0901 339.421 80.005 338.133 75.1628C335.952 79.6733 332.437 85.1923 328.957 88.4889L336.151 86.6382C331.718 108.364 315.045 123.961 295.951 123.961L295.681 124.746C315.625 124.746 333.285 109.365 337.811 86.762Z" fill="#3F3D56"/>
<path d="M317.234 53.6584H360.243C362.067 53.6584 363.551 55.1426 363.551 56.9668C363.551 58.791 362.067 60.2752 360.243 60.2752H317.234C315.409 60.2752 313.925 58.791 313.925 56.9668C313.925 55.1426 315.409 53.6584 317.234 53.6584Z" fill="#3F3D56"/>
<path d="M220.035 127.969C225.163 123.732 231.506 122.943 234.202 126.207C236.898 129.471 234.926 135.551 229.795 139.789C227.769 141.51 225.36 142.721 222.77 143.32L200.816 160.999L192.739 150.52L215.24 134.204C216.317 131.773 217.961 129.635 220.035 127.969Z" fill="#FFB6B6"/>
<path d="M93.1406 167.858C93.1295 167.076 93.1368 160.256 98.1857 155.946C103.986 150.994 112.17 152.998 115.04 153.701C121.671 155.325 122.215 158.169 128.442 161.092C140.092 166.56 125.494 163.761 132.427 162.008C134.826 161.401 169.346 159.007 177.939 153.718C194.651 143.432 206.038 137.195 206.038 137.195L213.482 152.083C213.482 152.083 202.718 167.05 187.569 178.137C172.029 189.511 164.26 195.198 152.452 197.395C151.435 197.584 126.426 201.854 106.284 186.805C101.69 183.373 93.2718 177.084 93.1406 167.858Z" fill="#E6E6E6"/>
<path opacity="0.2" d="M235.978 151.744C247.459 151.744 256.765 142.437 256.765 130.957C256.765 119.476 247.459 110.17 235.978 110.17C224.498 110.17 215.191 119.476 215.191 130.957C215.191 142.437 224.498 151.744 235.978 151.744Z" fill="#6C63FF"/>
<path d="M255.949 160.996C267.43 160.996 276.737 151.69 276.737 140.209C276.737 128.729 267.43 119.422 255.949 119.422C244.469 119.422 235.162 128.729 235.162 140.209C235.162 151.69 244.469 160.996 255.949 160.996Z" fill="white"/>
<path opacity="0.5" d="M255.949 160.996C267.43 160.996 276.737 151.69 276.737 140.209C276.737 128.729 267.43 119.422 255.949 119.422C244.469 119.422 235.162 128.729 235.162 140.209C235.162 151.69 244.469 160.996 255.949 160.996Z" fill="#6C63FF"/>
<path d="M277.03 170.763C288.51 170.763 297.817 161.456 297.817 149.976C297.817 138.495 288.51 129.188 277.03 129.188C265.549 129.188 256.243 138.495 256.243 149.976C256.243 161.456 265.549 170.763 277.03 170.763Z" fill="white"/>
<path opacity="0.8" d="M277.03 170.763C288.51 170.763 297.817 161.456 297.817 149.976C297.817 138.495 288.51 129.188 277.03 129.188C265.549 129.188 256.243 138.495 256.243 149.976C256.243 161.456 265.549 170.763 277.03 170.763Z" fill="#6C63FF"/>
<path d="M295.891 179.501C307.372 179.501 316.679 170.194 316.679 158.713C316.679 147.233 307.372 137.926 295.891 137.926C284.411 137.926 275.104 147.233 275.104 158.713C275.104 170.194 284.411 179.501 295.891 179.501Z" fill="#6A33EB"/>
<path d="M138.388 174.929C137.284 173.067 132.508 175.06 131.63 173.371C130.755 171.687 135.193 169.123 137.728 163.263C138.185 162.207 141.066 155.548 138.933 153.494C134.891 149.599 116.391 165.671 109.917 160.411C108.496 159.257 107.504 156.953 103.204 153.212C101.493 151.724 100.459 151.052 99.4574 151.302C98.0369 151.657 97.9244 153.558 96.4012 157.296C94.1168 162.902 92.7657 162.563 91.4348 167.036C90.4467 170.356 90.6724 172.287 89.5098 172.663C87.8645 173.195 86.3502 169.673 84.2651 169.988C82.1374 170.31 80.851 174.411 80.4447 177.481C79.6822 183.242 81.798 187.044 82.9708 191.041C84.2451 195.386 85.0015 201.992 82.0585 211.345L52.9292 293.417C59.3601 276.576 77.9804 230.41 85.8047 213.255C88.0634 208.303 90.5574 203.279 95.6782 201.297C100.608 199.388 107.379 200.528 116.011 198.448C117.02 198.205 119.817 197.494 120.169 195.848C120.46 194.488 118.815 193.728 119.068 192.454C119.407 190.745 122.643 190.724 126.619 188.753C129.424 187.362 131.17 185.709 132.673 184.287C133.126 183.858 139.858 177.407 138.388 174.929Z" fill="#4AD0CE"/>
<path d="M23.7848 218.134C22.5526 218.139 22.1529 221.058 21.0704 221.002C19.9917 220.946 20.0132 218.028 17.869 215.093C17.4823 214.563 15.0456 211.228 13.4217 211.682C10.3439 212.543 12.8941 226.26 8.44484 227.92C7.46842 228.284 6.0511 228.106 2.97432 229.137C1.7503 229.548 1.12205 229.861 0.95589 230.425C0.720135 231.224 1.62073 231.828 3.01591 233.654C5.10825 236.393 4.55226 236.958 6.36344 238.902C7.70797 240.345 8.72054 240.791 8.56962 241.47C8.35613 242.432 6.19069 242.159 5.74384 243.273C5.2879 244.41 6.92928 246.225 8.31886 247.31C10.9266 249.346 13.4029 249.405 15.7033 249.983C18.2031 250.611 21.664 252.146 25.4052 256.289L57.2819 294.266C50.8718 286.25 33.586 263.791 27.4236 255.001C25.6446 252.464 23.8988 249.79 24.4033 246.705C24.889 243.734 27.402 240.74 28.8719 235.903C29.0436 235.338 29.5015 233.76 28.7955 233.112C28.2118 232.577 27.3643 233.165 26.8119 232.674C26.071 232.014 26.9944 230.42 27.174 227.899C27.3006 226.122 26.9931 224.787 26.7287 223.64C26.649 223.294 25.4251 218.128 23.7848 218.134Z" fill="#4AD0CE"/>
<path d="M48.3674 223.653L47.625 217.025L47.9642 216.523C49.5337 214.2 50.3337 211.931 50.3433 209.778C50.3449 209.435 50.3289 209.093 50.3129 208.744C50.2489 207.362 50.1689 205.643 51.0649 203.64C51.5673 202.523 52.9785 199.938 55.1 200.258C55.6712 200.338 56.1032 200.6 56.4312 200.907C56.4792 200.831 56.5288 200.754 56.5816 200.671C57.2424 199.663 57.7655 199.231 58.2695 198.815C58.6567 198.495 59.0567 198.165 59.6839 197.384C59.9591 197.042 60.1735 196.741 60.3543 196.488C60.9031 195.724 61.6199 194.812 62.8838 194.828C64.2342 194.892 64.9414 196.008 65.4102 196.748C66.2469 198.066 66.6261 199.016 66.8773 199.647C66.9685 199.877 67.0725 200.136 67.1253 200.216C67.5605 200.856 71.0981 200.258 72.4308 200.04C75.4243 199.541 78.0147 199.109 79.0819 200.997C79.8467 202.347 79.2787 204.133 77.3427 206.447C76.7395 207.167 76.0979 207.714 75.5283 208.143C76.0003 208.424 76.4227 208.856 76.5939 209.534C76.9971 211.141 75.6163 212.75 72.4916 214.325C71.7156 214.718 70.6709 215.243 69.2069 215.496C68.5173 215.614 67.8965 215.643 67.3653 215.659C67.3541 215.966 67.2822 216.299 67.095 216.642C66.5462 217.65 65.4038 218.13 63.6822 218.014C61.7878 217.915 60.2279 217.554 58.8519 217.237C57.6504 216.962 56.6152 216.728 55.8024 216.782C54.2953 216.904 53.1336 218.11 51.7705 219.675L48.3674 223.653Z" fill="#4AD0CE"/>
<path d="M51.811 184.195L45.5889 186.594L45.0169 186.394C42.3717 185.465 39.9742 185.266 37.8886 185.803C37.557 185.889 37.2299 185.991 36.8966 186.095C35.5757 186.507 33.9338 187.021 31.7689 186.662C30.5612 186.459 27.7023 185.75 27.4737 183.617C27.4062 183.044 27.5504 182.56 27.7644 182.164C27.6779 182.138 27.591 182.109 27.4972 182.079C26.3546 181.696 25.804 181.299 25.2737 180.917C24.866 180.624 24.4457 180.32 23.5314 179.912C23.1304 179.732 22.7851 179.601 22.4947 179.491C21.6157 179.154 20.5518 178.692 20.2467 177.465C19.966 176.143 20.8669 175.175 21.463 174.534C22.526 173.39 23.3491 172.783 23.8952 172.38C24.0949 172.233 24.3192 172.067 24.3832 171.995C24.8919 171.412 23.4158 168.142 22.8673 166.908C21.6251 164.139 20.5502 161.743 22.1057 160.232C23.218 159.15 25.0892 159.246 27.8182 160.532C28.6676 160.933 29.3596 161.414 29.9189 161.857C30.0716 161.329 30.3823 160.811 30.9951 160.473C32.4466 159.675 34.3538 160.603 36.6692 163.226C37.2468 163.877 38.0194 164.754 38.6353 166.106C38.9247 166.743 39.11 167.336 39.2603 167.846C39.5603 167.779 39.9004 167.764 40.2791 167.858C41.3933 168.134 42.1474 169.117 42.4726 170.811C42.8571 172.669 42.9031 174.27 42.9457 175.681C42.9842 176.913 43.0208 177.974 43.2797 178.746C43.7796 180.173 45.2411 180.991 47.1005 181.912L51.811 184.195Z" fill="#4AD0CE"/>
<path d="M48.3674 164.672L47.625 158.045L47.9642 157.542C49.5337 155.219 50.3337 152.95 50.3433 150.797C50.3449 150.454 50.3289 150.112 50.3129 149.763C50.2489 148.381 50.1689 146.662 51.0649 144.659C51.5673 143.542 52.9785 140.957 55.1 141.277C55.6712 141.357 56.1032 141.619 56.4312 141.926C56.4792 141.85 56.5288 141.773 56.5816 141.69C57.2424 140.682 57.7655 140.25 58.2695 139.834C58.6567 139.514 59.0567 139.184 59.6839 138.403C59.9591 138.061 60.1735 137.76 60.3543 137.507C60.9031 136.743 61.6199 135.831 62.8838 135.847C64.2342 135.911 64.9414 137.027 65.4102 137.767C66.2469 139.085 66.6261 140.035 66.8773 140.666C66.9685 140.896 67.0725 141.155 67.1253 141.235C67.5605 141.875 71.0981 141.277 72.4308 141.059C75.4243 140.56 78.0147 140.128 79.0819 142.016C79.8467 143.366 79.2787 145.152 77.3427 147.466C76.7395 148.186 76.0979 148.733 75.5283 149.162C76.0003 149.443 76.4227 149.875 76.5939 150.554C76.9971 152.16 75.6163 153.769 72.4916 155.344C71.7156 155.737 70.6709 156.262 69.2069 156.515C68.5173 156.633 67.8965 156.662 67.3653 156.678C67.3541 156.985 67.2822 157.318 67.095 157.661C66.5462 158.669 65.4038 159.149 63.6822 159.033C61.7878 158.934 60.2279 158.573 58.8519 158.256C57.6504 157.981 56.6152 157.747 55.8024 157.801C54.2953 157.923 53.1336 159.129 51.7705 160.694L48.3674 164.672Z" fill="#4AD0CE"/>
<path d="M55.1478 293.309L53.759 292.438L52.1399 292.624C52.1142 292.473 52.0262 292.128 51.8935 291.587C51.1687 288.624 48.9592 279.607 47.116 265.405C45.8296 255.492 45.1016 245.3 44.9512 235.108C44.8008 224.901 45.284 217.173 45.6712 210.962C45.964 206.277 46.3192 201.816 46.668 197.471C47.596 185.862 48.4711 174.895 47.8199 162.755C47.676 160.045 47.3735 154.403 44.0776 148.4C42.1657 144.918 39.5322 141.827 36.249 139.216L38.2906 136.65C41.9145 139.536 44.828 142.96 46.9512 146.826C50.6055 153.482 50.9351 159.629 51.0935 162.582C51.7559 174.937 50.8711 186.009 49.9335 197.73C49.5879 202.06 49.2327 206.501 48.9415 211.167C48.5575 217.32 48.0792 224.981 48.228 235.057C48.3752 245.127 49.0951 255.194 50.3639 264.983C52.1847 279.005 54.3622 287.888 55.0774 290.806C55.4582 292.365 55.5382 292.691 55.1478 293.309Z" fill="#4AD0CE"/>
<path d="M30.2395 144.423C30.1051 144.423 29.9691 144.419 29.8315 144.41C27.0412 144.259 24.4572 142.589 22.1501 139.447C21.0685 137.968 20.5149 136.282 19.4109 132.919C19.2397 132.4 18.4077 129.77 17.9022 126.151C17.571 123.786 17.6126 122.797 18.0814 121.924C18.6014 120.951 19.4429 120.273 20.3901 119.815C20.3485 119.501 20.3821 119.178 20.5181 118.849C21.0765 117.482 22.5613 117.662 23.3645 117.748C23.7708 117.799 24.278 117.866 24.8252 117.837C25.686 117.796 26.1484 117.54 26.8492 117.156C27.5196 116.788 28.3531 116.33 29.5899 116.078C32.0283 115.569 34.0714 116.26 34.745 116.487C38.2889 117.668 40.036 120.423 42.0584 123.613C42.4616 124.253 43.8455 126.583 44.7591 129.776C45.4183 132.08 45.3255 133.104 45.1271 133.866C44.7239 135.431 43.772 136.327 41.3544 138.304C38.8297 140.375 37.5625 141.411 36.4745 142.042C33.9418 143.504 32.3514 144.423 30.2395 144.423Z" fill="#4AD0CE"/>
<path d="M1.12988 291.87C1.12988 292.416 1.56827 292.854 2.11418 292.854H434.098C434.643 292.854 435.082 292.416 435.082 291.87C435.082 291.324 434.643 290.886 434.098 290.886H2.11418C1.56827 290.886 1.12988 291.324 1.12988 291.87Z" fill="#CCCCCC"/>
<path d="M116.232 129.995C130.553 129.995 142.163 118.385 142.163 104.064C142.163 89.7422 130.553 78.1323 116.232 78.1323C101.91 78.1323 90.3003 89.7422 90.3003 104.064C90.3003 118.385 101.91 129.995 116.232 129.995Z" fill="#FFB6B6"/>
<path d="M319.316 278.281L292.61 250.944L278.825 265.324L298.721 291.535L318.457 293.792L319.316 278.281Z" fill="#FFB6B6"/>
<path d="M166.826 227.019C168.388 227.148 173.352 228.143 178.096 225.532C181.334 223.751 182.995 221.102 183.556 220.26C190.514 209.809 217.221 193.513 241.191 192.51C246.619 192.283 250.191 192.912 253.439 194.604C258.044 197.005 259.882 200.443 265.725 208.498C268.922 212.903 272.458 217.054 275.693 221.432C294.632 247.061 301.811 249.073 301.078 257.289C300.263 266.406 290.432 275.055 283.897 274.056C281.221 273.647 280.184 271.786 276.609 268.019C266.126 256.974 261.788 259.015 254.324 250.554C245.61 240.677 246.751 232.487 242.205 232.171C237.989 231.878 236.197 238.864 227.196 248.145C223.077 252.392 220.144 254.341 211.209 260.539C176.413 284.679 175.858 286.375 168.836 288.3C165.764 289.143 143.958 295.121 136.19 285.607C124.034 270.719 152.751 225.849 166.826 227.019Z" fill="#2F2E41"/>
<path d="M311.152 284.458C313.116 283.576 315.412 282.545 316.151 280.173C316.651 278.569 316.363 276.59 315.33 275.223C314.138 273.645 312.373 273.437 312.444 273.158C312.553 272.733 316.726 272.9 321.307 274.519C322.172 274.825 326.089 276.256 331.071 280.145C335.062 283.261 334.525 283.886 337.028 285.683C344.711 291.198 351.918 286.851 356.075 292.024C357.68 294.02 358.364 296.855 357.689 299.146C356.333 303.749 349.739 305.332 346.134 306.15C337.455 308.119 330.885 306.512 324.025 305.356C300.694 301.424 287.586 305.005 285.832 299.6C285.5 298.577 286.039 298.664 287.838 291.157C289.613 283.748 289.555 281.713 291.067 281.12C293.343 280.227 294.872 284.29 300.605 285.68C305.686 286.912 309.879 285.029 311.152 284.458Z" fill="#2F2E41"/>
<path d="M271.837 367.708L265.09 330.093L245.608 334.25L247.353 367.111L262.416 380.061L271.837 367.708Z" fill="#FFB6B6"/>
<path d="M174.445 239.662C175.664 240.647 179.213 244.257 184.605 244.761C188.284 245.106 191.146 243.846 192.083 243.464C203.709 238.724 234.959 240.237 255.356 252.867C259.975 255.727 262.578 258.254 264.314 261.478C266.777 266.05 266.367 269.927 266.679 279.873C266.85 285.314 267.446 290.734 267.664 296.173C268.943 328.014 273.754 333.711 268.533 340.097C262.74 347.183 249.748 348.819 244.902 344.324C242.917 342.482 243.105 340.361 242.261 335.236C239.789 320.21 235.054 319.463 233.629 308.271C231.965 295.205 237.508 289.068 233.924 286.254C230.6 283.644 225.194 288.419 212.534 291.044C206.742 292.245 203.221 292.211 192.346 292.322C150 292.757 148.587 293.849 141.696 291.499C138.681 290.471 117.28 283.173 116.195 270.938C114.497 251.793 163.455 230.791 174.445 239.662Z" fill="#2F2E41"/>
<path d="M261.613 368.235C263.733 368.608 266.213 369.045 268.156 367.497C269.47 366.45 270.343 364.652 270.256 362.94C270.155 360.965 268.811 359.802 269.027 359.611C269.356 359.321 272.716 361.802 275.597 365.714C276.141 366.453 278.578 369.836 280.516 375.852C282.069 380.672 281.274 380.887 282.336 383.78C285.597 392.658 294.001 393.108 294.536 399.722C294.743 402.275 293.718 405.005 291.872 406.522C288.166 409.568 281.82 407.176 278.378 405.829C270.09 402.584 265.557 397.565 260.53 392.756C243.433 376.402 230.575 372.004 232.159 366.546C232.458 365.514 232.856 365.889 238.56 360.687C244.189 355.553 245.284 353.837 246.868 354.195C249.253 354.734 248.236 358.954 252.2 363.324C255.713 367.197 260.239 367.993 261.613 368.235Z" fill="#2F2E41"/>
<path d="M119.768 109.021C120.777 105.41 119.509 104.094 120.802 102.473C120.802 102.473 121.322 101.821 125.971 100.06C124.599 92.101 125.626 90.7552 125.626 90.7551C126.81 89.204 129.182 88.829 130.796 89.0319C134.21 89.4611 134.815 92.5476 137 92.4783C140.018 92.3826 143.637 86.3413 142.514 81.1052C141.597 76.834 137.646 73.662 136.655 74.2124C135.673 74.7581 132.137 72.3517 130.796 72.8338C129.88 73.1631 125.57 72.725 124.593 73.1785C123.525 73.6737 120.469 76.7568 120.176 76.3683C118.145 73.6689 118.189 72.7264 117.01 72.1446C114.923 71.1136 112.653 73.0191 108.739 74.9017C100.686 78.7751 98.3284 76.4646 94.6089 79.7266C92.7299 81.3745 91.7224 84.5238 89.7839 90.7551C87.073 99.4695 85.7176 103.827 87.0268 107.987C88.362 112.23 90.3282 111.306 93.2303 117.292C96.4608 123.956 95.3474 127.829 98.3999 129.355C100.759 130.534 104.551 129.784 105.982 127.632C108.433 123.947 102.098 118.963 104.259 113.157C105.585 109.592 109.676 106.89 112.185 107.642C115.022 108.493 115.231 113.58 117.01 113.501C118.534 113.434 119.592 109.65 119.768 109.021Z" fill="#2F2E41"/>
<path d="M100.123 133.835C105.429 127.885 127.044 134.043 129.073 143.485C129.907 147.368 126.826 149.008 127.694 153.479C128.963 160.02 136.147 159.574 141.48 166.231C149.05 175.683 141.251 184.922 149.751 200.695C151.567 204.066 153.098 206.906 156.299 209.656C163.644 215.965 170.48 213.801 174.22 219.65C177.017 224.024 175.868 229.416 175.599 230.679C174.495 235.857 171.503 237.119 169.395 241.363C165.888 248.423 169.859 253.606 170.085 262.041C170.367 272.595 164.758 287.225 153.542 292.025C140.941 297.417 125.743 288.486 118.389 279.618C114 274.326 112.726 269.445 110.807 263.42C102.226 236.492 97.3791 238.928 90.8175 217.582C83.3165 193.181 81.8419 164.593 90.8175 155.547C92.0072 154.348 95.2812 151.577 97.3657 146.587C100.171 139.872 97.7474 136.498 100.123 133.835Z" fill="#E6E6E6"/>
<path d="M268.657 156.847C269.961 165.413 264.053 173.444 255.487 174.748C246.921 176.053 238.89 170.145 237.585 161.578C236.281 153.012 242.189 144.981 250.755 143.677C259.321 142.372 267.352 148.28 268.657 156.847ZM239.221 161.329C240.388 168.994 247.573 174.28 255.238 173.113C262.903 171.946 268.189 164.76 267.021 157.096C265.854 149.431 258.669 144.145 251.004 145.312C243.339 146.479 238.053 153.665 239.221 161.329Z" fill="#3F3D56"/>
<path d="M245.073 160.438C245.749 164.875 249.909 167.936 254.346 167.26C258.784 166.584 261.844 162.424 261.168 157.987C260.492 153.549 256.333 150.489 251.895 151.165C247.457 151.841 244.397 156 245.073 160.438Z" fill="#3F3D56"/>
<path d="M315.841 27.117C317.797 39.964 329.84 48.8238 342.687 46.8673C355.534 44.9109 364.394 32.868 362.437 20.021C360.481 7.17399 348.438 -1.68574 335.591 0.27069C322.744 2.22712 313.884 14.27 315.841 27.117Z" fill="#6A33EB"/>
<path d="M227.933 155.258C234.414 153.76 240.441 155.89 241.393 160.015C242.346 164.14 237.864 168.697 231.381 170.195C228.799 170.829 226.103 170.835 223.518 170.213L195.976 176.214L193.631 165.316L220.857 158.692C222.908 156.999 225.334 155.822 227.933 155.258Z" fill="#FFB6B6"/>
<path d="M96.3833 162.802C96.5539 162.039 98.1435 155.407 104.055 152.385C110.845 148.914 118.341 152.763 120.97 154.113C127.043 157.231 126.912 160.124 132.291 164.411C142.354 172.433 155.295 172.258 162.445 172.161C164.92 172.127 172.563 171.874 182.149 168.724C200.791 162.596 212.701 154.907 212.701 154.907L217.594 171.487C217.594 171.487 203.158 187.441 185.849 194.711C168.095 202.168 117.456 202.66 105.461 202.058C104.428 202.006 120.873 203.593 104.772 184.282C101.099 179.877 94.3702 171.806 96.3833 162.802Z" fill="#E6E6E6"/>
</g>
<defs>
<clipPath id="clip0_120_339">
<rect width="434.163" height="408" fill="white" transform="translate(0.918457)"/>
</clipPath>
</defs>
</svg>
