<svg width="55" height="51" viewBox="0 0 55 51" fill="none" xmlns="http://www.w3.org/2000/svg">
<g clip-path="url(#clip0_118_287)">
<path d="M25.3846 4.6489C20.9652 1.81815 15.8252 0.317284 10.5769 0.325058C7.45459 0.321866 4.35458 0.851252 1.41026 1.89044C0.997873 2.03624 0.640825 2.30629 0.388267 2.66341C0.13571 3.02052 6.22761e-05 3.44715 0 3.88454V44.0768C4.81777e-05 44.4152 0.0812784 44.7487 0.236871 45.0492C0.392464 45.3497 0.617877 45.6085 0.89419 45.8038C1.1705 45.9992 1.48965 46.1254 1.82484 46.1719C2.16002 46.2184 2.50147 46.1838 2.82051 46.071C5.31196 45.1922 7.93505 44.7449 10.5769 44.7481C16.2038 44.7481 21.3597 46.7422 25.3846 50.0676V4.6489ZM29.6154 50.0676C33.7796 46.6213 39.0178 44.7396 44.4231 44.7481C47.1477 44.7481 49.7538 45.2163 52.1795 46.0738C52.4988 46.1867 52.8405 46.2212 53.1759 46.1746C53.5113 46.128 53.8306 46.0015 54.107 45.8059C54.3833 45.6102 54.6087 45.351 54.7641 45.0501C54.9195 44.7493 55.0004 44.4155 55 44.0768V3.88454C54.9999 3.44715 54.8643 3.02052 54.6117 2.66341C54.3592 2.30629 54.0021 2.03624 53.5897 1.89044C50.6454 0.851252 47.5454 0.321866 44.4231 0.325058C39.1748 0.317284 34.0348 1.81815 29.6154 4.6489V50.0676Z" fill="#4AD0CE"/>
</g>
<defs>
<clipPath id="clip0_118_287">
<rect width="55" height="49.7426" fill="white" transform="translate(0 0.325027)"/>
</clipPath>
</defs>
</svg>
