<svg width="492" height="354" viewBox="0 0 492 354" fill="none" xmlns="http://www.w3.org/2000/svg">
<g clip-path="url(#clip0_120_342)">
<path d="M46.4725 353.454C49.8857 353.454 52.6526 350.687 52.6526 347.274C52.6526 343.861 49.8857 341.094 46.4725 341.094C43.0594 341.094 40.2925 343.861 40.2925 347.274C40.2925 350.687 43.0594 353.454 46.4725 353.454Z" fill="#3F3D56"/>
<path d="M32.5238 169.215C33.0415 167.464 33.9117 165.976 34.9399 164.919L38.8183 147.93L46.8479 150.012L42.0492 167.021C42.3369 168.468 42.2575 170.19 41.7398 171.941C40.5572 175.94 37.5353 178.572 34.9904 177.819C32.4455 177.066 31.3411 173.214 32.5238 169.215Z" fill="#FFB6B6"/>
<path d="M109.806 334.392L102.207 334.571L97.9712 300.431L109.186 300.165L109.806 334.392Z" fill="#FFB6B6"/>
<path d="M83.7339 350.246C83.7339 351.53 84.6449 352.571 85.7688 352.571H100.853C100.853 352.571 102.337 346.604 108.389 344.036L108.807 352.571H116.588L115.645 338.848C115.645 338.848 117.727 331.505 113.404 327.752C109.081 323.999 112.583 324.522 112.583 324.522L110.882 316.028L99.1236 317.411L99.0371 330.744L93.3309 343.978L84.9612 348.113C84.2162 348.481 83.7339 349.319 83.7339 350.246Z" fill="#2F2E41"/>
<path d="M59.8314 325.468L52.2321 325.647L47.9961 291.507L59.2107 291.241L59.8314 325.468Z" fill="#FFB6B6"/>
<path d="M33.7593 341.322C33.7593 342.606 34.6703 343.647 35.7942 343.647H50.8781C50.8781 343.647 52.3625 337.68 58.4146 335.112L58.8323 343.647H66.6136L65.6708 329.923C65.6708 329.923 67.7523 322.581 63.4294 318.828C59.1065 315.075 62.6079 315.598 62.6079 315.598L60.9073 307.104L49.149 308.487L49.0625 321.82L43.3562 335.054L34.9866 339.189C34.2416 339.557 33.7593 340.395 33.7593 341.322Z" fill="#2F2E41"/>
<path d="M107.453 62.2396L80.0859 66.9992C78.2005 62.1736 65.5424 29.4344 64.7606 24.7097C62.7282 12.4264 71.8863 1.10196 84.3022 0.1754C96.2103 -0.713273 103.465 1.5168 104.479 12.8595C104.834 16.8352 108.245 27.4855 109.288 31.3385C115.04 52.5952 108.829 57.71 107.453 62.2396Z" fill="#2F2E41"/>
<path d="M62.832 131.848L61.0471 159.215L44.0913 243.399L45.2812 302.299L60.7497 299.919L65.5092 245.779L92.3682 184.798L95.8512 311.223L112.51 311.818L124.217 163.348C125.111 152.004 122.138 140.691 115.782 131.253L62.832 131.848Z" fill="#2F2E41"/>
<path d="M97.3387 43.7966H75.5038L70.5663 51.5309L53.313 58.6702L62.8321 126.493L60.4523 155.646C73.903 160.21 105.118 167.274 127.696 148.63L107.453 112.215L112.212 61.0499L102.991 52.6598L97.3387 43.7966Z" fill="#6A33EB"/>
<path d="M66.7001 56.5877C66.7001 56.5877 56.5861 52.4231 51.8265 60.1574C49.2365 64.3662 44.356 93.241 40.4449 118.69C37.169 140.005 34.5732 158.918 34.5732 158.918L44.9847 160.405L56.6158 118.769L65.5102 86.9297L66.7001 56.5877Z" fill="#6A33EB"/>
<path d="M85.2592 39.9505C94.3702 39.9505 101.756 32.5645 101.756 23.4535C101.756 14.3425 94.3702 6.95654 85.2592 6.95654C76.1481 6.95654 68.7622 14.3425 68.7622 23.4535C68.7622 32.5645 76.1481 39.9505 85.2592 39.9505Z" fill="#FFB6B6"/>
<path d="M351.295 332.809L359.498 337.309L380.761 307.813L368.655 301.171L351.295 332.809Z" fill="#FFB6B6"/>
<path d="M379.5 348.044C379.519 348.615 378.892 350.077 378.618 350.577C377.774 352.114 375.844 352.677 374.306 351.833L348.905 337.894C347.856 337.318 347.472 336.001 348.048 334.952L348.628 333.895C348.628 333.895 349.116 330.027 353.853 327.529C353.853 327.529 355.385 332.361 362.826 330.193L365.651 328.404L371.791 341.533L377.092 345.352C378.251 346.188 379.451 346.616 379.5 348.044Z" fill="#2F2E41"/>
<path d="M368.126 346.745L377.482 346.744L381.933 310.656L368.124 310.657L368.126 346.745Z" fill="#FFB6B6"/>
<path d="M400.181 346.533C400.472 347.024 400.626 348.607 400.626 349.178C400.626 350.931 399.204 352.353 397.45 352.353H368.476C367.279 352.353 366.309 351.383 366.309 350.187V348.981C366.309 348.981 364.876 345.355 367.827 340.886C367.827 340.886 371.495 344.385 376.975 338.905L378.591 335.977L390.29 344.533L396.775 345.331C398.193 345.506 399.451 345.304 400.181 346.533Z" fill="#2F2E41"/>
<path d="M374.978 149.965L371.099 177.035L366.054 324.878H383.78L402.94 188.636V260.202L362.484 304.055L375.311 312.979L429.354 262.264L439.232 164.838L431.498 150.56L374.978 149.965Z" fill="#2F2E41"/>
<path d="M416.327 42.5588L399.619 41.803L394.314 50.293L372.25 61.226L375.276 126.446L369.327 156.193C369.327 156.193 425.069 176.42 439.347 164.521L435.365 122.281L438.465 62.1088L424.061 55.0525L416.327 42.5588Z" fill="#6A33EB"/>
<path d="M409.469 38.0894C419.012 38.0894 426.748 30.3533 426.748 20.8103C426.748 11.2674 419.012 3.53125 409.469 3.53125C399.926 3.53125 392.19 11.2674 392.19 20.8103C392.19 30.3533 399.926 38.0894 409.469 38.0894Z" fill="#FFB6B6"/>
<path d="M395.809 34.9271C397.064 35.0498 397.135 37.4781 398.328 37.8432C399.419 38.1772 401.322 36.7468 401.509 35.1922C401.658 33.9533 400.61 33.5366 399.123 30.9505C398.25 29.4302 399.668 29.8384 399.618 27.6774C399.603 27.0338 397.234 23.1212 398.46 21.4067C398.866 20.8393 399.442 20.0351 400.449 19.6835C401.965 19.1545 402.779 20.2368 404.69 20.3463C406.518 20.4509 403.509 22.1813 405.627 20.8245C407.792 19.4376 408.614 15.8344 408.602 14.2802C408.233 15.6961 408.589 12.6812 408.602 14.2802C408.787 13.5664 416.038 19.9469 416.392 19.7316C418.676 18.3446 419.823 15.7442 422.285 17.2549C424.957 18.894 426.166 18.2405 427.045 17.8498C427.766 17.5289 427.172 11.3992 426.959 10.4048C426.374 7.66973 423.35 6.39083 423.115 6.2957C421.551 5.66054 420.978 6.12443 420.067 5.36783C418.772 4.2933 419.508 3.00916 418.476 1.92146C417.339 0.723446 416.004 2.91736 411.095 2.95719C407.94 2.98278 407.813 1.1608 406.149 1.25869C404.768 1.33991 400.184 1.60946 396.075 4.83762C391.626 8.33212 390.449 13.1604 390.11 14.6465C389.317 18.1194 388.992 24.3102 391.965 27.6367C392.678 28.4342 393.769 29.278 394.219 30.9505C394.726 32.8366 394.139 34.7398 394.882 35.0596C395.193 35.1937 395.348 34.882 395.809 34.9271Z" fill="#2F2E41"/>
<path d="M0.268066 352.949C0.268066 353.532 0.736011 354 1.31873 354H490.681C491.264 354 491.732 353.532 491.732 352.949C491.732 352.367 491.264 351.899 490.681 351.899H1.31873C0.736011 351.899 0.268066 352.367 0.268066 352.949Z" fill="#CCCCCC"/>
<path d="M372.232 165.404H119.768C110.507 165.404 102.976 172.935 102.976 182.196V335.779C102.976 345.04 110.507 352.571 119.768 352.571H372.232C381.493 352.571 389.024 345.04 389.024 335.779V182.196C389.024 172.935 381.493 165.404 372.232 165.404Z" fill="white"/>
<path d="M372.232 165.404H119.768C110.507 165.404 102.976 172.935 102.976 182.196V335.779C102.976 345.04 110.507 352.571 119.768 352.571H372.232C381.493 352.571 389.024 345.04 389.024 335.779V182.196C389.024 172.935 381.493 165.404 372.232 165.404ZM387.258 284.859C387.258 321.28 357.733 350.805 321.312 350.805H119.768C111.469 350.805 104.742 344.078 104.742 335.779V182.196C104.742 173.897 111.469 167.17 119.768 167.17H372.232C380.531 167.17 387.258 173.897 387.258 182.196V284.859Z" fill="#3F3D56"/>
<path d="M125.983 171.47C125.629 169.679 125.708 167.957 126.128 166.543L121.672 149.697L129.75 147.812L133.4 165.103C134.327 166.251 135.056 167.813 135.411 169.604C136.221 173.695 134.767 177.429 132.164 177.944C129.56 178.46 126.793 175.561 125.983 171.47Z" fill="#FFB6B6"/>
<path d="M101.206 57.1827C101.206 57.1827 111.32 53.0181 116.08 60.7523C120.839 68.4866 133.333 159.513 133.333 159.513L122.921 161L102.396 87.5247L101.206 57.1827Z" fill="#6A33EB"/>
<path d="M350.538 174.154C350.782 172.33 351.415 170.713 352.271 169.5L350.327 130.032L365.102 128.06L359.632 170.483C360.139 171.878 360.324 173.605 360.08 175.429C359.523 179.595 356.935 182.687 354.299 182.334C351.664 181.982 349.98 178.32 350.538 174.154Z" fill="#FFB6B6"/>
<path d="M388.453 62.7971C388.453 62.7971 374.451 57.5088 369.794 62.3022C365.137 67.0957 349.679 120.53 349.679 120.53L351.127 160.325L362.157 158.422L388.453 62.7971Z" fill="#6A33EB"/>
<path d="M216.892 316.097H192.119C190.874 316.097 189.859 317.113 189.859 318.358C189.859 319.611 190.874 320.627 192.119 320.627H216.892C218.137 320.627 219.152 319.611 219.152 318.358C219.152 317.113 218.137 316.097 216.892 316.097Z" fill="#E6E6E6"/>
<path d="M258.387 316.097H233.614C232.369 316.097 231.354 317.113 231.354 318.358C231.354 319.611 232.369 320.627 233.614 320.627H258.387C259.632 320.627 260.647 319.611 260.647 318.358C260.647 317.113 259.632 316.097 258.387 316.097Z" fill="#E6E6E6"/>
<path d="M299.881 316.097H275.108C273.863 316.097 272.848 317.113 272.848 318.358C272.848 319.611 273.863 320.627 275.108 320.627H299.881C301.126 320.627 302.142 319.611 302.142 318.358C302.142 317.113 301.126 316.097 299.881 316.097Z" fill="#E6E6E6"/>
<path d="M400.06 83.2976C400.06 78.6729 403.822 74.9104 408.447 74.9104C413.071 74.9104 416.834 78.6729 416.834 83.2976C416.834 87.9223 413.071 91.6848 408.447 91.6848C403.822 91.6848 400.06 87.9223 400.06 83.2976ZM400.942 83.2976C400.942 87.4352 404.309 90.8019 408.447 90.8019C412.585 90.8019 415.951 87.4352 415.951 83.2976C415.951 79.16 412.585 75.7933 408.447 75.7933C404.309 75.7933 400.942 79.16 400.942 83.2976Z" fill="#3F3D56"/>
<path d="M408.447 87.7119C410.885 87.7119 412.861 85.7356 412.861 83.2976C412.861 80.8597 410.885 78.8833 408.447 78.8833C406.009 78.8833 404.033 80.8597 404.033 83.2976C404.033 85.7356 406.009 87.7119 408.447 87.7119Z" fill="#3F3D56"/>
<path d="M418.432 90.1206C419.587 91.5341 420.328 93.0913 420.623 94.5364L450.562 119.867L441.901 131.959L414.882 99.2281C413.525 98.6515 412.146 97.6162 410.991 96.2027C408.352 92.9737 407.878 88.9945 409.933 87.315C411.987 85.6355 415.793 86.8916 418.432 90.1206Z" fill="#FFB6B6"/>
<path d="M430.308 62.4895C430.308 62.4895 438.637 58.3249 443.397 65.4642C448.156 72.6035 453 109.512 453 109.512C453 109.512 458.865 135.072 447.561 134.477C436.257 133.882 415.51 101.957 415.51 101.957L423.456 94.8938L424.358 86.2871L430.308 62.4895Z" fill="#6A33EB"/>
<path d="M83.2368 2.80088C76.5265 3.98165 70.0238 7.61477 66.5425 13.4716C63.0612 19.3285 56.6826 27.489 61.3071 32.4927C62.9054 34.2221 64.9418 35.5313 66.3796 37.3963C68.8263 40.57 69.1796 45.0291 67.9596 48.8461C66.7395 52.6632 64.123 55.8999 61.1295 58.564C67.5371 57.903 73.3848 53.3508 75.5976 47.3012C76.6216 44.5018 76.8301 41.1437 75.0779 38.7323C74.1563 37.464 72.7991 36.597 71.6286 35.5541C68.6097 32.8644 70.5485 28.8015 70.5665 24.7582C70.5844 20.7149 71.0934 17.902 74.1361 15.2392C76.2316 16.9139 83.1798 16.5095 85.8277 16.0799C88.4755 15.6503 95.8804 25.8197 97.3388 23.5683C100.194 27.2381 98.2404 19.6759 97.7044 24.2944C97.321 27.5986 95.1515 30.4487 94.4973 33.7101C93.9281 36.5482 94.5502 39.5015 95.55 42.218C97.8055 48.3456 102.034 53.7294 107.453 57.3724C104.324 52.9474 101.062 48.1117 101.165 42.6933C101.242 38.6745 108.039 30.3796 109.238 26.543C111.532 19.2017 106.983 11.0664 102.098 5.12514C97.8086 -0.0924494 89.516 1.51982 82.9403 3.06452" fill="#2F2E41"/>
<path opacity="0.7" d="M298.613 245.216C302.626 248.737 297.766 255.696 296.199 260.512C293.758 268.016 286.053 272.48 278.282 271.107C272.263 270.043 266.206 269.291 260.112 268.859C253.614 268.4 247.081 268.303 240.495 268.568C233.652 268.842 226.766 269.521 219.818 270.607L219.702 270.625C211.728 271.866 204.086 267.077 201.782 259.343C200.449 254.867 196.303 248.728 199.733 245.216C210.319 234.377 204.693 230.753 203.448 226.383C201.496 219.532 212.852 215.782 219.939 216.505C220.234 216.535 220.529 216.565 220.824 216.594C231.286 217.627 241.748 218.033 252.21 217.812C254.841 217.768 257.481 217.671 260.112 217.538C266.08 217.244 272.044 216.747 278.009 216.045C284.94 215.229 297.104 218.898 294.464 225.359C291.744 232.017 291.445 238.926 298.613 245.216Z" fill="#6C63FF"/>
<path opacity="0.7" d="M260.112 217.539V268.86C253.614 268.4 247.081 268.303 240.495 268.568C233.653 268.842 226.766 269.522 219.818 270.608C220.745 262.017 220.153 253.277 226.784 250.072C234.986 246.099 227.702 230.058 220.824 216.594C231.286 217.627 241.748 218.033 252.21 217.812C254.841 217.768 257.481 217.671 260.112 217.539Z" fill="#3F3D56"/>
<path opacity="0.7" d="M298.614 245.216C302.55 248.822 297.766 255.696 296.199 260.512C293.758 268.016 286.053 272.48 278.282 271.107C272.263 270.043 266.206 269.291 260.112 268.86C253.614 268.4 247.081 268.303 240.495 268.568C234.332 260.614 231.975 253.312 237.643 248.713C244.062 243.513 246.295 230.729 252.21 217.812C254.841 217.768 257.481 217.671 260.112 217.539C266.08 217.245 272.044 216.747 278.009 216.045C284.941 215.229 297.401 219.028 294.464 225.359C291.553 231.635 291.191 238.418 298.614 245.216Z" fill="#6A33EB"/>
<path d="M238.297 259.107H213.523C212.279 259.107 211.263 260.123 211.263 261.368C211.263 262.621 212.278 263.637 213.523 263.637H238.297C239.541 263.637 240.557 262.621 240.557 261.368C240.557 260.123 239.541 259.107 238.297 259.107Z" fill="#3F3D56"/>
<path d="M282.44 243.216H257.666C256.422 243.216 255.406 244.231 255.406 245.476C255.406 246.73 256.422 247.745 257.666 247.745H282.44C283.684 247.745 284.7 246.73 284.7 245.476C284.7 244.231 283.684 243.216 282.44 243.216Z" fill="#3F3D56"/>
<path d="M248.008 228.207H223.235C221.99 228.207 220.975 229.222 220.975 230.467C220.975 231.721 221.99 232.736 223.235 232.736H248.008C249.253 232.736 250.268 231.721 250.268 230.467C250.268 229.222 249.253 228.207 248.008 228.207Z" fill="#3F3D56"/>
<path d="M213.679 255.422H121.853V256.305H213.679V255.422Z" fill="#3F3D56"/>
<path d="M140.401 264.121C135.777 264.121 132.014 260.359 132.014 255.734C132.014 251.109 135.777 247.347 140.401 247.347C145.026 247.347 148.789 251.109 148.789 255.734C148.789 260.359 145.026 264.121 140.401 264.121ZM140.401 248.23C136.263 248.23 132.897 251.597 132.897 255.734C132.897 259.872 136.263 263.238 140.401 263.238C144.539 263.238 147.906 259.872 147.906 255.734C147.906 251.597 144.539 248.23 140.401 248.23Z" fill="#3F3D56"/>
<path d="M140.401 260.148C142.839 260.148 144.815 258.172 144.815 255.734C144.815 253.296 142.839 251.32 140.401 251.32C137.963 251.32 135.987 253.296 135.987 255.734C135.987 258.172 137.963 260.148 140.401 260.148Z" fill="#6C63FF"/>
<path d="M363.084 251.008H271.258V251.89H363.084V251.008Z" fill="#3F3D56"/>
<path d="M336.148 251.32C336.148 246.695 339.911 242.933 344.536 242.933C349.16 242.933 352.923 246.695 352.923 251.32C352.923 255.945 349.16 259.707 344.536 259.707C339.911 259.707 336.148 255.945 336.148 251.32ZM337.031 251.32C337.031 255.457 340.398 258.824 344.536 258.824C348.674 258.824 352.04 255.457 352.04 251.32C352.04 247.182 348.674 243.815 344.536 243.815C340.398 243.815 337.031 247.182 337.031 251.32Z" fill="#3F3D56"/>
<path d="M344.536 255.734C346.974 255.734 348.95 253.758 348.95 251.32C348.95 248.882 346.974 246.906 344.536 246.906C342.098 246.906 340.122 248.882 340.122 251.32C340.122 253.758 342.098 255.734 344.536 255.734Z" fill="#4AD0CE"/>
<path d="M239.282 223.639H147.456V224.522H239.282V223.639Z" fill="#3F3D56"/>
<path d="M166.004 232.338C161.38 232.338 157.617 228.576 157.617 223.951C157.617 219.326 161.38 215.564 166.004 215.564C170.629 215.564 174.392 219.326 174.392 223.951C174.392 228.576 170.629 232.338 166.004 232.338ZM166.004 216.447C161.866 216.447 158.5 219.813 158.5 223.951C158.5 228.088 161.866 231.455 166.004 231.455C170.142 231.455 173.509 228.088 173.509 223.951C173.509 219.813 170.142 216.447 166.004 216.447Z" fill="#3F3D56"/>
<path d="M166.004 228.365C168.442 228.365 170.418 226.389 170.418 223.951C170.418 221.513 168.442 219.537 166.004 219.537C163.566 219.537 161.59 221.513 161.59 223.951C161.59 226.389 163.566 228.365 166.004 228.365Z" fill="#3F3D56"/>
</g>
<defs>
<clipPath id="clip0_120_342">
<rect width="491.464" height="354" fill="white" transform="translate(0.268066)"/>
</clipPath>
</defs>
</svg>
