<svg width="52" height="62" viewBox="0 0 52 62" fill="none" xmlns="http://www.w3.org/2000/svg">
<g clip-path="url(#clip0_118_281)">
<path fill-rule="evenodd" clip-rule="evenodd" d="M26 0.624817C26.5746 0.624817 27.1257 0.85309 27.5321 1.25942C27.9384 1.66575 28.1667 2.21685 28.1667 2.79148V9.29148C28.1667 9.86612 27.9384 10.4172 27.5321 10.8235C27.1257 11.2299 26.5746 11.4581 26 11.4581C25.4254 11.4581 24.8743 11.2299 24.4679 10.8235C24.0616 10.4172 23.8333 9.86612 23.8333 9.29148V2.79148C23.8333 2.21685 24.0616 1.66575 24.4679 1.25942C24.8743 0.85309 25.4254 0.624817 26 0.624817ZM7.61511 8.23993C8.02136 7.83418 8.57205 7.60628 9.14622 7.60628C9.72039 7.60628 10.2711 7.83418 10.6773 8.23993L15.2764 12.8362C15.6709 13.245 15.8891 13.7924 15.8839 14.3605C15.8787 14.9286 15.6505 15.4719 15.2486 15.8734C14.8467 16.275 14.3032 16.5026 13.7351 16.5072C13.167 16.5119 12.6198 16.2932 12.2113 15.8984L7.61511 11.305C7.41377 11.1038 7.25405 10.8649 7.14508 10.602C7.03611 10.339 6.98002 10.0571 6.98002 9.77248C6.98002 9.48784 7.03611 9.20598 7.14508 8.94302C7.25405 8.68005 7.41377 8.44114 7.61511 8.23993ZM44.3849 8.23993C44.7906 8.64618 45.0185 9.19687 45.0185 9.77104C45.0185 10.3452 44.7906 10.8959 44.3849 11.3022L39.7887 15.9013C39.3798 16.2957 38.8324 16.5139 38.2643 16.5087C37.6962 16.5035 37.1529 16.2754 36.7514 15.8734C36.3499 15.4715 36.1223 14.928 36.1176 14.3599C36.1129 13.7918 36.3316 13.2446 36.7264 12.8362L41.3198 8.23993C41.521 8.03859 41.7599 7.87887 42.0229 7.7699C42.2858 7.66092 42.5677 7.60484 42.8523 7.60484C43.137 7.60484 43.4188 7.66092 43.6818 7.7699C43.9448 7.87887 44.1837 8.03859 44.3849 8.23993ZM24.6942 21.2284C25.1334 21.1106 25.5985 21.134 26.0237 21.2953C26.4488 21.4565 26.8125 21.7474 27.0631 22.1268L42.1662 44.9981C42.4026 45.3559 42.5275 45.7758 42.5251 46.2046C42.5227 46.6333 42.3931 47.0518 42.1527 47.4069C41.9124 47.762 41.5721 48.0378 41.1749 48.1994C40.7777 48.3609 40.3415 48.4011 39.9216 48.3146L33.8636 47.0724L36.8824 58.339C37.0311 58.8945 36.953 59.4863 36.6653 59.9842C36.3776 60.4821 35.9039 60.8453 35.3484 60.9939C34.793 61.1426 34.2012 61.0645 33.7033 60.7768C33.2054 60.4891 32.8422 60.0154 32.6936 59.4599L29.6776 48.1961L25.0524 52.2984C24.7319 52.5834 24.334 52.7669 23.9091 52.8256C23.4842 52.8843 23.0514 52.8155 22.6656 52.628C22.2799 52.4405 21.9584 52.1428 21.742 51.7724C21.5256 51.4021 21.424 50.9758 21.45 50.5477L23.0938 23.1899C23.1206 22.736 23.2897 22.3019 23.5769 21.9494C23.8641 21.5968 24.255 21.3435 24.6942 21.2255V21.2284ZM0 26.6248C0 26.0502 0.228273 25.4991 0.634602 25.0928C1.04093 24.6864 1.59203 24.4581 2.16667 24.4581H8.66667C9.2413 24.4581 9.7924 24.6864 10.1987 25.0928C10.6051 25.4991 10.8333 26.0502 10.8333 26.6248C10.8333 27.1995 10.6051 27.7506 10.1987 28.1569C9.7924 28.5632 9.2413 28.7915 8.66667 28.7915H2.16667C1.59203 28.7915 1.04093 28.5632 0.634602 28.1569C0.228273 27.7506 0 27.1995 0 26.6248ZM41.1667 26.6248C41.1667 26.0502 41.3949 25.4991 41.8013 25.0928C42.2076 24.6864 42.7587 24.4581 43.3333 24.4581H49.8333C50.408 24.4581 50.9591 24.6864 51.3654 25.0928C51.7717 25.4991 52 26.0502 52 26.6248C52 27.1995 51.7717 27.7506 51.3654 28.1569C50.9591 28.5632 50.408 28.7915 49.8333 28.7915H43.3333C42.7587 28.7915 42.2076 28.5632 41.8013 28.1569C41.3949 27.7506 41.1667 27.1995 41.1667 26.6248ZM15.2764 37.3484C15.4778 37.5496 15.6375 37.7885 15.7465 38.0515C15.8554 38.3144 15.9115 38.5963 15.9115 38.8809C15.9115 39.1656 15.8554 39.4474 15.7465 39.7104C15.6375 39.9734 15.4778 40.2123 15.2764 40.4135L10.6802 45.0097C10.4805 45.2167 10.2414 45.3819 9.97716 45.4956C9.71287 45.6093 9.42859 45.6692 9.14091 45.6718C8.85322 45.6744 8.56789 45.6197 8.30157 45.5109C8.03524 45.4021 7.79325 45.2413 7.58972 45.038C7.38619 44.8347 7.2252 44.5928 7.11613 44.3266C7.00706 44.0604 6.95211 43.7751 6.95447 43.4874C6.95683 43.1997 7.01647 42.9154 7.1299 42.651C7.24332 42.3866 7.40827 42.1474 7.61511 41.9475L12.2113 37.3484C12.6176 36.9426 13.1683 36.7147 13.7424 36.7147C14.3166 36.7147 14.8673 36.9426 15.2736 37.3484H15.2764Z" fill="#4AD0CE"/>
</g>
<defs>
<clipPath id="clip0_118_281">
<rect width="52" height="60.4428" fill="white" transform="translate(0 0.624817)"/>
</clipPath>
</defs>
</svg>
