<svg width="564" height="395" viewBox="0 0 564 395" fill="none" xmlns="http://www.w3.org/2000/svg">
<g clip-path="url(#clip0_120_323)">
<path d="M418.096 203.617C418.096 316.075 349.662 308.819 237.204 308.819C212.207 308.819 165.543 402.728 143.423 394.488H143.417C142.602 394.189 141.794 393.877 140.987 393.558C140.756 393.477 140.525 393.388 140.301 393.293C139.032 392.805 137.77 392.296 136.514 391.773C133.928 390.701 131.369 389.574 128.844 388.406C127.534 387.796 126.231 387.178 124.942 386.54C112.969 380.669 101.655 373.651 91.1413 365.635C85.8472 361.604 80.75 357.307 75.8836 352.787C71.8519 349.041 67.9765 345.138 64.2706 341.079C63.1032 339.81 61.9629 338.527 60.8363 337.231C60.3747 336.708 59.9268 336.185 59.4856 335.663C56.2888 331.923 53.2345 328.061 50.316 324.091C49.3726 322.808 48.4428 321.511 47.5265 320.202C41.3026 311.31 35.771 301.89 31.0063 292.034C18.097 265.293 10.8618 235.3 10.8618 203.617C10.8618 91.1594 102.021 0 214.479 0C326.937 0 418.096 91.1594 418.096 203.617Z" fill="#16151B"/>
<path d="M557.054 319.055C556.925 317.583 553.396 317.396 553.356 316.096C553.315 314.802 556.806 314.537 560.1 311.681C560.694 311.166 564.438 307.921 563.734 306.025C562.398 302.432 546.256 306.847 543.829 301.694C543.296 300.563 543.367 298.852 541.828 295.276C541.216 293.854 540.778 293.135 540.088 292.992C539.109 292.79 538.477 293.927 536.433 295.776C533.368 298.55 532.637 297.942 530.494 300.301C528.903 302.051 528.47 303.306 527.644 303.194C526.474 303.034 526.584 300.419 525.207 299.995C523.803 299.564 521.797 301.706 520.639 303.476C518.464 306.796 518.641 309.761 518.18 312.569C517.678 315.619 516.188 319.909 511.608 324.794L469.39 366.681C478.332 358.22 503.456 335.32 513.349 327.078C516.205 324.699 519.226 322.346 522.964 322.641C526.563 322.926 530.393 325.631 536.321 326.907C537.013 327.056 538.946 327.446 539.649 326.537C540.231 325.786 539.443 324.832 539.976 324.122C540.691 323.171 542.688 324.116 545.719 324.08C547.856 324.054 549.421 323.553 550.766 323.123C551.172 322.993 557.225 321.015 557.054 319.055Z" fill="#4AD0CE"/>
<path d="M473.736 311.724C472.977 311.362 471.866 313.041 471.217 312.685C470.57 312.332 471.447 310.542 470.996 308.101C470.915 307.661 470.402 304.887 469.268 304.686C467.119 304.305 464.629 313.501 461.399 313.206C460.691 313.141 459.871 312.612 457.672 312.336C456.798 312.226 456.318 312.233 456.049 312.531C455.667 312.953 456.043 313.591 456.361 315.128C456.838 317.433 456.328 317.616 456.868 319.349C457.268 320.635 457.759 321.209 457.465 321.582C457.049 322.11 455.798 321.302 455.193 321.855C454.576 322.42 455.049 324.022 455.583 325.102C456.585 327.127 458.091 327.896 459.336 328.932C460.689 330.059 462.364 332.028 463.44 335.685L471.817 368.492C470.245 361.661 466.254 342.723 465.064 335.49C464.72 333.402 464.437 331.24 465.66 329.49C466.839 327.806 469.271 326.707 471.608 324.165C471.88 323.868 472.629 323.032 472.387 322.425C472.186 321.923 471.49 322.034 471.296 321.568C471.035 320.943 472.075 320.235 472.932 318.737C473.536 317.68 473.741 316.768 473.918 315.984C473.972 315.747 474.748 312.206 473.736 311.724Z" fill="#4AD0CE"/>
<path d="M487.231 322.396L488.736 318.098L489.093 317.889C490.747 316.924 491.91 315.765 492.554 314.442C492.656 314.232 492.748 314.016 492.841 313.797C493.211 312.927 493.67 311.846 494.814 310.879C495.454 310.34 497.088 309.167 498.299 309.991C498.627 310.21 498.815 310.499 498.926 310.785C498.978 310.752 499.031 310.72 499.088 310.684C499.793 310.259 500.243 310.148 500.677 310.041C501.01 309.959 501.353 309.875 501.97 309.58C502.241 309.451 502.462 309.329 502.648 309.227C503.212 308.919 503.923 308.569 504.696 308.953C505.509 309.393 505.613 310.289 505.683 310.883C505.808 311.942 505.76 312.639 505.728 313.101C505.716 313.27 505.703 313.46 505.712 313.525C505.79 314.048 508.144 314.727 509.029 314.987C511.019 315.566 512.741 316.067 512.839 317.545C512.91 318.602 512.032 319.533 510.156 320.384C509.571 320.648 509.015 320.795 508.537 320.89C508.744 321.203 508.876 321.594 508.781 322.062C508.554 323.17 507.227 323.752 504.838 323.796C504.244 323.809 503.446 323.822 502.47 323.545C502.011 323.413 501.62 323.247 501.289 323.1C501.191 323.286 501.048 323.469 500.831 323.625C500.195 324.082 499.35 324.04 498.325 323.459C497.188 322.838 496.335 322.153 495.582 321.551C494.924 321.026 494.356 320.576 493.84 320.369C492.877 319.997 491.805 320.396 490.503 320.956L487.231 322.396Z" fill="#4AD0CE"/>
<path d="M501.029 299.133L496.49 298.767L496.197 298.475C494.844 297.12 493.428 296.288 491.985 296.001C491.756 295.956 491.524 295.922 491.288 295.887C490.353 295.75 489.191 295.58 487.965 294.719C487.282 294.236 485.732 292.954 486.223 291.573C486.351 291.201 486.583 290.945 486.832 290.765C486.786 290.723 486.741 290.68 486.692 290.634C486.103 290.059 485.881 289.652 485.668 289.26C485.504 288.959 485.335 288.648 484.893 288.126C484.7 287.897 484.526 287.714 484.38 287.56C483.939 287.093 483.421 286.493 483.596 285.648C483.815 284.751 484.655 284.422 485.212 284.204C486.205 283.815 486.891 283.685 487.347 283.598C487.513 283.567 487.7 283.531 487.761 283.506C488.246 283.298 488.306 280.848 488.334 279.927C488.389 277.855 488.436 276.062 489.841 275.593C490.846 275.256 491.969 275.869 493.268 277.468C493.672 277.966 493.955 278.468 494.168 278.905C494.419 278.626 494.763 278.399 495.24 278.372C496.37 278.311 497.269 279.446 497.917 281.746C498.08 282.317 498.296 283.086 498.275 284.1C498.264 284.578 498.203 284.998 498.144 285.356C498.349 285.404 498.563 285.495 498.768 285.665C499.372 286.165 499.545 286.993 499.244 288.132C498.931 289.389 498.485 290.388 498.093 291.269C497.753 292.038 497.461 292.702 497.392 293.254C497.277 294.28 497.935 295.216 498.806 296.333L501.029 299.133Z" fill="#4AD0CE"/>
<path d="M504.688 286.098L506.193 281.8L506.551 281.591C508.204 280.626 509.368 279.467 510.011 278.144C510.114 277.934 510.205 277.718 510.298 277.499C510.668 276.629 511.128 275.548 512.272 274.581C512.912 274.042 514.545 272.869 515.756 273.693C516.084 273.912 516.272 274.201 516.383 274.487C516.436 274.454 516.489 274.422 516.546 274.386C517.251 273.961 517.701 273.85 518.134 273.743C518.467 273.661 518.811 273.577 519.428 273.282C519.699 273.152 519.92 273.031 520.106 272.929C520.67 272.621 521.381 272.271 522.154 272.655C522.966 273.094 523.071 273.991 523.14 274.585C523.265 275.644 523.217 276.341 523.185 276.803C523.173 276.972 523.16 277.162 523.169 277.227C523.248 277.75 525.602 278.429 526.486 278.689C528.477 279.268 530.198 279.769 530.296 281.247C530.367 282.304 529.489 283.235 527.613 284.086C527.029 284.35 526.472 284.497 525.995 284.592C526.202 284.905 526.334 285.296 526.238 285.764C526.011 286.872 524.685 287.454 522.296 287.498C521.702 287.511 520.904 287.524 519.928 287.247C519.468 287.115 519.078 286.949 518.746 286.802C518.648 286.988 518.505 287.171 518.289 287.327C517.653 287.784 516.808 287.742 515.782 287.161C514.646 286.539 513.793 285.855 513.04 285.253C512.382 284.728 511.814 284.278 511.298 284.071C510.334 283.699 509.262 284.098 507.96 284.658L504.688 286.098Z" fill="#4AD0CE"/>
<path d="M470.787 367.271L470.19 366.324L469.138 365.959C469.167 365.859 469.215 365.62 469.293 365.248C469.724 363.21 471.034 357.006 474.103 347.721C476.245 341.24 478.814 334.752 481.738 328.435C484.667 322.109 487.251 317.496 489.328 313.788C490.895 310.992 492.434 308.352 493.935 305.78C497.942 298.91 501.726 292.421 504.919 284.757C505.633 283.046 507.116 279.485 506.865 274.815C506.719 272.106 506.013 269.424 504.765 266.846L506.781 265.87C508.157 268.719 508.937 271.689 509.099 274.696C509.378 279.874 507.762 283.755 506.985 285.619C503.736 293.419 499.914 299.971 495.868 306.907C494.373 309.469 492.84 312.097 491.28 314.882C489.222 318.555 486.661 323.128 483.77 329.373C480.88 335.614 478.343 342.023 476.227 348.423C473.197 357.591 471.908 363.702 471.484 365.71C471.257 366.782 471.21 367.006 470.787 367.271Z" fill="#4AD0CE"/>
<path d="M499.526 268.271C499.443 268.231 499.36 268.189 499.279 268.142C497.606 267.224 496.51 265.431 496.02 262.814C495.792 261.584 495.951 260.383 496.267 257.986C496.315 257.617 496.581 255.752 497.341 253.375C497.838 251.821 498.156 251.225 498.703 250.826C499.311 250.381 500.03 250.213 500.748 250.212C500.815 250.007 500.931 249.818 501.113 249.655C501.861 248.979 502.721 249.529 503.19 249.82C503.425 249.972 503.717 250.163 504.063 250.308C504.605 250.537 504.965 250.516 505.51 250.487C506.031 250.459 506.68 250.424 507.516 250.635C509.167 251.043 510.22 252.073 510.567 252.413C512.399 254.188 512.658 256.401 512.959 258.963C513.017 259.476 513.18 261.319 512.797 263.555C512.52 265.168 512.16 265.771 511.813 266.181C511.101 267.024 510.25 267.294 508.177 267.796C506.011 268.322 504.924 268.585 504.068 268.651C502.076 268.802 500.826 268.896 499.526 268.271Z" fill="#4AD0CE"/>
<path d="M456.452 377.117H347.644C331.324 377.117 318.047 363.84 318.047 347.52V59.8825C318.047 43.5627 331.324 30.2854 347.644 30.2854H456.452C472.771 30.2854 486.048 43.5627 486.048 59.8824C488.074 175.389 491.528 304.738 486.048 347.52C486.048 363.84 472.771 377.117 456.452 377.117Z" fill="#3F3D56"/>
<path d="M487.566 136.088C486.875 136.088 486.313 136.65 486.313 137.34V177.407C486.313 178.098 486.875 178.659 487.566 178.659C488.256 178.659 488.818 178.098 488.818 177.407V137.34C488.818 136.65 488.256 136.088 487.566 136.088Z" fill="#3F3D56"/>
<path d="M475.819 63.4938L483.231 347.515C483.231 361.72 472.175 373.34 458.195 374.241H458.189C457.982 374.254 457.776 374.266 457.563 374.272C457.193 374.291 456.824 374.298 456.448 374.298C456.448 374.298 455.071 374.197 452.554 374.01C450.013 373.822 446.313 373.54 441.699 373.171C440.315 373.064 438.856 372.945 437.316 372.82C434.249 372.57 430.881 372.294 427.268 371.981C425.828 371.862 424.338 371.731 422.817 371.599C415.042 370.929 406.333 370.147 397.149 369.258C395.596 369.114 394.031 368.964 392.454 368.807C392.04 368.763 320.864 350.871 320.864 347.515V59.8827C320.864 45.0892 332.853 33.1003 347.646 33.1003H363.635C366.19 33.1003 368.243 35.0912 368.462 37.6392C368.481 37.8082 368.5 37.9773 368.531 38.1463C368.994 40.7069 371.342 42.4911 373.947 42.4911H430.148C432.752 42.4911 435.1 40.7069 435.563 38.1463C435.595 37.9773 435.613 37.8083 435.632 37.6392C435.851 35.0912 437.905 33.1003 440.459 33.1003H456.448C471.242 33.1003 475.819 48.7003 475.819 63.4938Z" fill="white"/>
<path d="M317.421 106.038C316.73 106.038 316.168 106.599 316.168 107.29V117.306C316.168 117.997 316.73 118.559 317.421 118.559C318.111 118.559 318.673 117.997 318.673 117.306V107.29C318.673 106.599 318.111 106.038 317.421 106.038Z" fill="#3F3D56"/>
<path d="M317.421 136.088C316.73 136.088 316.168 136.65 316.168 137.34V156.748C316.168 157.438 316.73 158 317.421 158C318.111 158 318.673 157.438 318.673 156.748V137.34C318.673 136.65 318.111 136.088 317.421 136.088Z" fill="#3F3D56"/>
<path d="M317.421 163.634C316.73 163.634 316.168 164.196 316.168 164.886V184.294C316.168 184.984 316.73 185.546 317.421 185.546C318.111 185.546 318.673 184.984 318.673 184.294V164.886C318.673 164.196 318.111 163.634 317.421 163.634Z" fill="#3F3D56"/>
<path d="M363.225 37.4851H339.23C339.114 37.4851 339.02 37.5794 339.02 37.6957V40.4048C339.02 40.5211 339.114 40.6154 339.23 40.6154H363.225C363.341 40.6154 363.435 40.5211 363.435 40.4048V37.6957C363.435 37.5794 363.341 37.4851 363.225 37.4851Z" fill="#E6E6E6"/>
<path d="M444.416 40.6153C445.799 40.6153 446.92 39.4942 446.92 38.1111C446.92 36.7281 445.799 35.6069 444.416 35.6069C443.033 35.6069 441.912 36.7281 441.912 38.1111C441.912 39.4942 443.033 40.6153 444.416 40.6153Z" fill="#E6E6E6"/>
<path d="M451.303 40.6153C452.686 40.6153 453.807 39.4942 453.807 38.1111C453.807 36.7281 452.686 35.6069 451.303 35.6069C449.919 35.6069 448.798 36.7281 448.798 38.1111C448.798 39.4942 449.919 40.6153 451.303 40.6153Z" fill="#E6E6E6"/>
<path d="M458.189 40.6153C459.572 40.6153 460.693 39.4942 460.693 38.1111C460.693 36.7281 459.572 35.6069 458.189 35.6069C456.806 35.6069 455.685 36.7281 455.685 38.1111C455.685 39.4942 456.806 40.6153 458.189 40.6153Z" fill="#E6E6E6"/>
<path d="M399.419 181.364C419.098 181.364 435.052 165.411 435.052 145.732C435.052 126.053 419.098 110.1 399.419 110.1C379.74 110.1 363.787 126.053 363.787 145.732C363.787 165.411 379.74 181.364 399.419 181.364Z" fill="#4AD0CE"/>
<path d="M401.555 280.003H242.927C236.541 280.003 231.346 274.807 231.346 268.422V148.472C231.346 142.087 236.541 136.891 242.927 136.891H401.555C407.941 136.891 413.136 142.087 413.136 148.472V268.422C413.136 274.807 407.941 280.003 401.555 280.003Z" fill="white"/>
<path d="M401.555 280.003H242.927C236.541 280.003 231.346 274.807 231.346 268.422V148.472C231.346 142.087 236.541 136.891 242.927 136.891H401.555C407.941 136.891 413.136 142.087 413.136 148.472V268.422C413.136 274.807 407.941 280.003 401.555 280.003ZM242.927 138.825C237.607 138.825 233.28 143.153 233.28 148.472V268.422C233.28 273.741 237.607 278.069 242.927 278.069H401.555C406.874 278.069 411.202 273.741 411.202 268.422V148.472C411.202 143.153 406.874 138.825 401.555 138.825H242.927Z" fill="#3F3D56"/>
<path d="M384.127 151.396C385.729 151.396 387.028 150.097 387.028 148.495C387.028 146.893 385.729 145.594 384.127 145.594C382.525 145.594 381.226 146.893 381.226 148.495C381.226 150.097 382.525 151.396 384.127 151.396Z" fill="#3F3D56"/>
<path d="M391.863 151.396C393.465 151.396 394.764 150.097 394.764 148.495C394.764 146.893 393.465 145.594 391.863 145.594C390.261 145.594 388.962 146.893 388.962 148.495C388.962 150.097 390.261 151.396 391.863 151.396Z" fill="#3F3D56"/>
<path d="M399.599 151.396C401.201 151.396 402.5 150.097 402.5 148.495C402.5 146.893 401.201 145.594 399.599 145.594C397.997 145.594 396.698 146.893 396.698 148.495C396.698 150.097 397.997 151.396 399.599 151.396Z" fill="#3F3D56"/>
<path d="M247.784 195.393C246.984 195.393 246.333 196.044 246.333 196.843C246.333 197.233 246.484 197.594 246.757 197.86C247.033 198.143 247.394 198.294 247.784 198.294H397.664C398.464 198.294 399.115 197.643 399.115 196.843C399.115 196.453 398.964 196.093 398.691 195.826C398.415 195.544 398.054 195.393 397.664 195.393H247.784Z" fill="#E6E6E6"/>
<path d="M370.589 194.909V198.777H247.784C247.252 198.777 246.769 198.565 246.421 198.207C246.063 197.859 245.85 197.375 245.85 196.843C245.85 195.78 246.72 194.91 247.784 194.91L370.589 194.909Z" fill="#4360F6"/>
<path d="M395.247 187.657H375.908C373.775 187.657 372.04 185.923 372.04 183.789C372.04 181.656 373.775 179.921 375.908 179.921H395.247C397.38 179.921 399.115 181.656 399.115 183.789C399.115 185.923 397.38 187.657 395.247 187.657Z" fill="#E6E6E6"/>
<path d="M268.574 167.351H249.235C247.102 167.351 245.367 165.616 245.367 163.483C245.367 161.35 247.102 159.615 249.235 159.615H268.574C270.707 159.615 272.442 161.35 272.442 163.483C272.442 165.616 270.707 167.351 268.574 167.351Z" fill="#E6E6E6"/>
<path d="M247.784 238.907C246.984 238.907 246.333 239.557 246.333 240.357C246.333 240.747 246.484 241.108 246.757 241.374C247.033 241.656 247.394 241.808 247.784 241.808H397.664C398.464 241.808 399.115 241.157 399.115 240.357C399.115 239.967 398.964 239.606 398.691 239.34C398.415 239.058 398.054 238.907 397.664 238.907H247.784Z" fill="#E6E6E6"/>
<path d="M296.133 238.423V242.291H247.784C247.252 242.291 246.769 242.078 246.421 241.721C246.063 241.372 245.85 240.889 245.85 240.357C245.85 239.293 246.72 238.423 247.784 238.423L296.133 238.423Z" fill="#4360F6"/>
<path d="M395.247 231.171H375.908C373.775 231.171 372.04 229.436 372.04 227.303C372.04 225.17 373.775 223.435 375.908 223.435H395.247C397.38 223.435 399.115 225.17 399.115 227.303C399.115 229.436 397.38 231.171 395.247 231.171Z" fill="#E6E6E6"/>
<path d="M141.771 201.312C145.718 195.689 146.015 189.094 142.436 186.582C138.857 184.071 132.757 186.595 128.809 192.221C127.202 194.447 126.15 197.025 125.743 199.741L109.321 223.78L120.766 231.246L135.74 206.755C138.156 205.448 140.224 203.582 141.771 201.312Z" fill="#A0616A"/>
<path d="M42.395 231.052C53.3097 254.393 72.6099 291.906 85.6418 295.967C90.1338 297.37 94.6773 294.114 98.9956 288.315C111.5 271.551 122.138 233.517 124.294 225.479C124.558 224.5 124.693 223.966 124.693 223.966L113.862 217.132L112.922 216.54L96.4986 239.122L91.4402 246.072C91.4402 246.072 91.6784 242.61 92.2383 237.037L66.3417 224.352C66.3417 224.352 52.1191 226.721 42.395 231.052Z" fill="#6A33EB"/>
<path d="M97.2319 226.283C112.515 226.283 124.905 213.894 124.905 198.61C124.905 183.327 112.515 170.937 97.2319 170.937C81.9486 170.937 69.5591 183.327 69.5591 198.61C69.5591 213.894 81.9486 226.283 97.2319 226.283Z" fill="#A0616A"/>
<path d="M82.0537 377.117H61.2915C59.744 375.515 58.2169 373.887 56.7169 372.244C55.1694 370.561 53.6627 368.864 52.1694 367.147C65.7439 364.344 76.9564 362.396 76.9564 362.396C76.9564 362.396 77.2619 363.312 77.8319 364.961C78.6939 367.5 80.1533 371.755 82.0537 377.117Z" fill="#2F2E41"/>
<path d="M105.92 223.387L94.9016 242.772L63.4458 231.11L75.6733 206.655L105.92 223.387Z" fill="#A0616A"/>
<path d="M125.227 197.645L131.019 197.001L132.306 193.14H138.43L138.741 195.071L148.394 197.001L146.456 224.713L141.959 229.179L129.731 227.892L128.444 206.011H125.227V197.645Z" fill="#2F2E41"/>
<path d="M145.177 205.368L199.235 203.437L200.522 228.535L143.246 225.318L145.177 205.368Z" fill="#2F2E41"/>
<path d="M107.851 195.714L109.781 204.724L113.255 195.714L117.653 191.739L119.435 184.774C119.435 184.774 130.375 195.071 129.088 187.348C127.801 179.625 126.514 173.19 120.078 172.546C113.643 171.903 109.138 173.458 105.92 172.037C102.702 170.616 102.702 160.319 96.9103 164.18C91.1183 168.041 89.8312 170.616 85.3264 171.259C80.8215 171.903 64.7326 166.111 65.3762 179.625C66.0198 193.14 71.8117 197.001 69.8811 206.655C67.9504 216.308 85.9699 217.595 85.9699 217.595C85.9699 217.595 92.4054 217.595 92.4054 208.585C92.4054 199.576 107.851 195.714 107.851 195.714Z" fill="#2F2E41"/>
<path d="M99.5031 310.154V310.161L88.2363 325.534L88.0734 334.358L87.578 360.787L77.8314 364.961L74.3971 377.117H58.8476C58.0263 376.174 57.877 376.418 58.0059 377.117H0.178711C2.39136 369.393 6.33478 351.991 10.1763 334.358C15.5179 309.829 20.649 284.845 20.649 284.845C20.649 284.845 29.0177 239.153 38.0244 233.364C39.3004 232.536 40.7868 231.775 42.3953 231.056C44.8252 229.97 47.5401 229.013 50.2346 228.178C51.626 227.751 53.0106 227.357 54.3613 226.997C55.2571 226.76 56.1395 226.536 56.9811 226.325C57.4088 226.223 57.8227 226.122 58.23 226.027C59.0444 225.83 59.825 225.653 60.5512 225.497C60.8159 225.436 61.0738 225.382 61.3249 225.327C61.515 225.287 61.6982 225.253 61.8814 225.212C62.0919 225.165 62.2955 225.124 62.4924 225.083C62.6892 225.042 62.886 225.002 63.0692 224.968C63.2796 224.927 63.4833 224.886 63.6801 224.846C63.8769 224.805 64.0602 224.771 64.2367 224.737C64.4131 224.703 64.5828 224.669 64.7389 224.642C64.895 224.615 65.0376 224.588 65.1733 224.561C65.377 224.52 65.5602 224.486 65.7095 224.459C65.8113 224.445 65.8996 224.425 65.9809 224.411C66.2186 224.37 66.3407 224.35 66.3407 224.35L66.7208 224.54H66.7276L92.2408 237.042L96.4896 239.126H96.4964L96.8697 239.302L97.8742 239.798L97.9557 243.436L98.9941 288.313L99.5031 310.154Z" fill="#6A33EB"/>
<path d="M149.905 223.671C149.227 216.834 145.15 211.642 140.799 212.075C136.448 212.507 133.471 218.399 134.15 225.238C134.384 227.974 135.27 230.614 136.733 232.937L139.971 261.869L153.516 260.06L148.885 231.73C149.864 229.164 150.213 226.401 149.905 223.671Z" fill="#A0616A"/>
<path d="M92.4052 245.268C92.4052 245.268 112.355 235.615 120.078 254.278C127.801 272.941 136.328 288.789 136.328 288.789L138.741 252.347H152.659C152.659 252.347 177.354 328.93 158.048 334.078C138.741 339.227 69.8809 290.96 69.8809 290.96L92.4052 245.268Z" fill="#6A33EB"/>
</g>
<defs>
<clipPath id="clip0_120_323">
<rect width="563.642" height="395" fill="white" transform="translate(0.178711)"/>
</clipPath>
</defs>
</svg>
